%TF.GenerationSoftware,KiCad,Pcbnew,(6.0.4-0)*%
%TF.CreationDate,2022-04-27T09:59:17-07:00*%
%TF.ProjectId,worst keyboard ever,776f7273-7420-46b6-9579-626f61726420,rev?*%
%TF.SameCoordinates,Original*%
%TF.FileFunction,Soldermask,Top*%
%TF.FilePolarity,Negative*%
%FSLAX46Y46*%
G04 Gerber Fmt 4.6, Leading zero omitted, Abs format (unit mm)*
G04 Created by KiCad (PCBNEW (6.0.4-0)) date 2022-04-27 09:59:17*
%MOMM*%
%LPD*%
G01*
G04 APERTURE LIST*
G04 Aperture macros list*
%AMRoundRect*
0 Rectangle with rounded corners*
0 $1 Rounding radius*
0 $2 $3 $4 $5 $6 $7 $8 $9 X,Y pos of 4 corners*
0 Add a 4 corners polygon primitive as box body*
4,1,4,$2,$3,$4,$5,$6,$7,$8,$9,$2,$3,0*
0 Add four circle primitives for the rounded corners*
1,1,$1+$1,$2,$3*
1,1,$1+$1,$4,$5*
1,1,$1+$1,$6,$7*
1,1,$1+$1,$8,$9*
0 Add four rect primitives between the rounded corners*
20,1,$1+$1,$2,$3,$4,$5,0*
20,1,$1+$1,$4,$5,$6,$7,0*
20,1,$1+$1,$6,$7,$8,$9,0*
20,1,$1+$1,$8,$9,$2,$3,0*%
G04 Aperture macros list end*
%ADD10C,1.800000*%
%ADD11R,1.700000X1.700000*%
%ADD12O,1.700000X1.700000*%
%ADD13C,2.200000*%
%ADD14RoundRect,0.249999X-0.325001X-0.450001X0.325001X-0.450001X0.325001X0.450001X-0.325001X0.450001X0*%
%ADD15RoundRect,0.249999X0.350001X0.450001X-0.350001X0.450001X-0.350001X-0.450001X0.350001X-0.450001X0*%
G04 APERTURE END LIST*
D10*
%TO.C,S4*%
X54132000Y-62584200D03*
X54132000Y-72744200D03*
X54132000Y-67664200D03*
%TD*%
%TO.C,S5*%
X63582000Y-62584200D03*
X63582000Y-72744200D03*
X63582000Y-67664200D03*
%TD*%
%TO.C,S6*%
X73032000Y-62584200D03*
X73032000Y-72744200D03*
X73032000Y-67664200D03*
%TD*%
%TO.C,S7*%
X82482000Y-62584200D03*
X82482000Y-72744200D03*
X82482000Y-67664200D03*
%TD*%
%TO.C,S8*%
X91932000Y-62584200D03*
X91932000Y-72744200D03*
X91932000Y-67664200D03*
%TD*%
%TO.C,S9*%
X101382000Y-62584200D03*
X101382000Y-72744200D03*
X101382000Y-67664200D03*
%TD*%
%TO.C,S10*%
X110832000Y-62584200D03*
X110832000Y-72744200D03*
X110832000Y-67664200D03*
%TD*%
%TO.C,S11*%
X120282000Y-62584200D03*
X120282000Y-72744200D03*
X120282000Y-67664200D03*
%TD*%
%TO.C,S12*%
X129732000Y-62584200D03*
X129732000Y-72744200D03*
X129732000Y-67664200D03*
%TD*%
%TO.C,S13*%
X139182000Y-62584200D03*
X139182000Y-72744200D03*
X139182000Y-67664200D03*
%TD*%
%TO.C,S14*%
X152175750Y-62584200D03*
X152175750Y-72744200D03*
X152175750Y-67664200D03*
%TD*%
%TO.C,S16*%
X39957000Y-75884200D03*
X39957000Y-86044200D03*
X39957000Y-80964200D03*
%TD*%
%TO.C,S17*%
X49407000Y-75884200D03*
X49407000Y-86044200D03*
X49407000Y-80964200D03*
%TD*%
%TO.C,S18*%
X58857000Y-75884200D03*
X58857000Y-86044200D03*
X58857000Y-80964200D03*
%TD*%
%TO.C,S19*%
X68307000Y-75884200D03*
X68307000Y-86044200D03*
X68307000Y-80964200D03*
%TD*%
%TO.C,S20*%
X77757000Y-75884200D03*
X77757000Y-86044200D03*
X77757000Y-80964200D03*
%TD*%
%TO.C,S21*%
X87207000Y-75884200D03*
X87207000Y-86044200D03*
X87207000Y-80964200D03*
%TD*%
%TO.C,S22*%
X96657000Y-75884200D03*
X96657000Y-86044200D03*
X96657000Y-80964200D03*
%TD*%
%TO.C,S23*%
X106107000Y-75884200D03*
X106107000Y-86044200D03*
X106107000Y-80964200D03*
%TD*%
%TO.C,S24*%
X115557000Y-75884200D03*
X115557000Y-86044200D03*
X115557000Y-80964200D03*
%TD*%
%TO.C,S25*%
X125007000Y-75884200D03*
X125007000Y-86044200D03*
X125007000Y-80964200D03*
%TD*%
%TO.C,S26*%
X134457000Y-75884200D03*
X134457000Y-86044200D03*
X134457000Y-80964200D03*
%TD*%
%TO.C,S27*%
X143907000Y-75884200D03*
X143907000Y-86044200D03*
X143907000Y-80964200D03*
%TD*%
%TO.C,S28*%
X155719500Y-75884200D03*
X155719500Y-86044200D03*
X155719500Y-80964200D03*
%TD*%
%TO.C,S29*%
X30507000Y-89184200D03*
X30507000Y-99344200D03*
X30507000Y-94264200D03*
%TD*%
%TO.C,S30*%
X42319500Y-89184200D03*
X42319500Y-99344200D03*
X42319500Y-94264200D03*
%TD*%
%TO.C,S31*%
X51769500Y-89184200D03*
X51769500Y-99344200D03*
X51769500Y-94264200D03*
%TD*%
%TO.C,S32*%
X61219500Y-89184200D03*
X61219500Y-99344200D03*
X61219500Y-94264200D03*
%TD*%
%TO.C,S33*%
X70669500Y-89184200D03*
X70669500Y-99344200D03*
X70669500Y-94264200D03*
%TD*%
%TO.C,S34*%
X80119500Y-89184200D03*
X80119500Y-99344200D03*
X80119500Y-94264200D03*
%TD*%
%TO.C,S35*%
X89569500Y-89184200D03*
X89569500Y-99344200D03*
X89569500Y-94264200D03*
%TD*%
%TO.C,S36*%
X99019500Y-89184200D03*
X99019500Y-99344200D03*
X99019500Y-94264200D03*
%TD*%
%TO.C,S37*%
X108469500Y-89184200D03*
X108469500Y-99344200D03*
X108469500Y-94264200D03*
%TD*%
%TO.C,S38*%
X117919500Y-89184200D03*
X117919500Y-99344200D03*
X117919500Y-94264200D03*
%TD*%
%TO.C,S39*%
X127369500Y-89184200D03*
X127369500Y-99344200D03*
X127369500Y-94264200D03*
%TD*%
%TO.C,S40*%
X136819500Y-89184200D03*
X136819500Y-99344200D03*
X136819500Y-94264200D03*
%TD*%
%TO.C,S41*%
X152175750Y-89184200D03*
X152175750Y-99344200D03*
X152175750Y-94264200D03*
%TD*%
%TO.C,S42*%
X31688250Y-102484200D03*
X31688250Y-112644200D03*
X31688250Y-107564200D03*
%TD*%
%TO.C,S44*%
X54132000Y-102484200D03*
X54132000Y-112644200D03*
X54132000Y-107564200D03*
%TD*%
%TO.C,S45*%
X63582000Y-102484200D03*
X63582000Y-112644200D03*
X63582000Y-107564200D03*
%TD*%
%TO.C,S46*%
X73032000Y-102484200D03*
X73032000Y-112644200D03*
X73032000Y-107564200D03*
%TD*%
%TO.C,S47*%
X82482000Y-102484200D03*
X82482000Y-112644200D03*
X82482000Y-107564200D03*
%TD*%
%TO.C,S48*%
X91932000Y-102484200D03*
X91932000Y-112644200D03*
X91932000Y-107564200D03*
%TD*%
%TO.C,S49*%
X101382000Y-102484200D03*
X101382000Y-112644200D03*
X101382000Y-107564200D03*
%TD*%
%TO.C,S50*%
X110832000Y-102484200D03*
X110832000Y-112644200D03*
X110832000Y-107564200D03*
%TD*%
%TO.C,S51*%
X120282000Y-102484200D03*
X120282000Y-112644200D03*
X120282000Y-107564200D03*
%TD*%
%TO.C,S52*%
X129732000Y-102484200D03*
X129732000Y-112644200D03*
X129732000Y-107564200D03*
%TD*%
%TO.C,S53*%
X139182000Y-102484200D03*
X139182000Y-112644200D03*
X139182000Y-107564200D03*
%TD*%
%TO.C,S55*%
X158082000Y-102484200D03*
X158082000Y-112644200D03*
X158082000Y-107564200D03*
%TD*%
%TO.C,S56*%
X28144500Y-115784200D03*
X28144500Y-125944200D03*
X28144500Y-120864200D03*
%TD*%
%TO.C,S57*%
X42319500Y-115784200D03*
X42319500Y-125944200D03*
X42319500Y-120864200D03*
%TD*%
%TO.C,S62*%
X113194500Y-115784200D03*
X113194500Y-125944200D03*
X113194500Y-120864200D03*
%TD*%
%TO.C,S63*%
X127369500Y-115784200D03*
X127369500Y-125944200D03*
X127369500Y-120864200D03*
%TD*%
%TO.C,S64*%
X139182000Y-115784200D03*
X139182000Y-125944200D03*
X139182000Y-120864200D03*
%TD*%
%TO.C,S65*%
X148632000Y-115784200D03*
X148632000Y-125944200D03*
X148632000Y-120864200D03*
%TD*%
%TO.C,S66*%
X158082000Y-115784200D03*
X158082000Y-125944200D03*
X158082000Y-120864200D03*
%TD*%
%TO.C,S60*%
X84844500Y-115784200D03*
X84844500Y-125944200D03*
X84844500Y-120864200D03*
%TD*%
%TO.C,S15*%
X28144500Y-75884200D03*
X28144500Y-86044200D03*
X28144500Y-80964200D03*
%TD*%
%TO.C,S43*%
X44682000Y-102484200D03*
X44682000Y-112644200D03*
X44682000Y-107564200D03*
%TD*%
%TO.C,S54*%
X148632000Y-102484200D03*
X148632000Y-112644200D03*
X148632000Y-107564200D03*
%TD*%
%TO.C,S58*%
X56494500Y-115784200D03*
X56494500Y-125944200D03*
X56494500Y-120864200D03*
%TD*%
D11*
%TO.C,J1*%
X27897000Y-56784000D03*
D12*
X30437000Y-56784000D03*
X32977000Y-56784000D03*
X35517000Y-56784000D03*
X38057000Y-56784000D03*
%TD*%
D10*
%TO.C,S3*%
X44682000Y-62584200D03*
X44682000Y-72744200D03*
X44682000Y-67664200D03*
%TD*%
D13*
%TO.C,H1*%
X23419500Y-56896000D03*
%TD*%
%TO.C,H2*%
X160444500Y-56896000D03*
%TD*%
%TO.C,H4*%
X104925750Y-124159000D03*
%TD*%
D11*
%TO.C,J3*%
X90127000Y-57165000D03*
D12*
X92667000Y-57165000D03*
X95207000Y-57165000D03*
X97747000Y-57165000D03*
%TD*%
D14*
%TO.C,D65*%
X143322000Y-57419000D03*
X145372000Y-57419000D03*
%TD*%
D15*
%TO.C,R2*%
X111717000Y-57419000D03*
X109717000Y-57419000D03*
%TD*%
D14*
%TO.C,D67*%
X120852000Y-57419000D03*
X122902000Y-57419000D03*
%TD*%
%TO.C,D66*%
X131892000Y-57419000D03*
X133942000Y-57419000D03*
%TD*%
D13*
%TO.C,H3*%
X65157000Y-123825000D03*
%TD*%
D15*
%TO.C,R1*%
X107637000Y-57419000D03*
X105637000Y-57419000D03*
%TD*%
D10*
%TO.C,S2*%
X35232000Y-62584200D03*
X35232000Y-72744200D03*
X35232000Y-67664200D03*
%TD*%
%TO.C,S1*%
X25782000Y-62584200D03*
X25782000Y-72744200D03*
X25782000Y-67664200D03*
%TD*%
D11*
%TO.C,J2*%
X45042000Y-56784000D03*
D12*
X47582000Y-56784000D03*
X50122000Y-56784000D03*
X52662000Y-56784000D03*
X55202000Y-56784000D03*
X57742000Y-56784000D03*
X60282000Y-56784000D03*
X62822000Y-56784000D03*
X65362000Y-56784000D03*
X67902000Y-56784000D03*
X70442000Y-56784000D03*
X72982000Y-56784000D03*
X75522000Y-56784000D03*
X78062000Y-56784000D03*
%TD*%
D15*
%TO.C,R3*%
X115892000Y-57419000D03*
X113892000Y-57419000D03*
%TD*%
D10*
%TO.C,S59*%
X74418750Y-115784200D03*
X74418750Y-125944200D03*
X74418750Y-120864200D03*
%TD*%
%TO.C,S61*%
X95681250Y-115784200D03*
X95681250Y-125944200D03*
X95681250Y-120864200D03*
%TD*%
D13*
%TO.C,H8*%
X86106000Y-56896000D03*
%TD*%
%TO.C,H5*%
X35179000Y-124159000D03*
%TD*%
%TO.C,H7*%
X160444500Y-93980000D03*
%TD*%
%TO.C,H6*%
X23419500Y-106680000D03*
%TD*%
M02*
