%TF.GenerationSoftware,KiCad,Pcbnew,(6.0.4-0)*%
%TF.CreationDate,2022-04-27T09:59:17-07:00*%
%TF.ProjectId,worst keyboard ever,776f7273-7420-46b6-9579-626f61726420,rev?*%
%TF.SameCoordinates,Original*%
%TF.FileFunction,Soldermask,Bot*%
%TF.FilePolarity,Negative*%
%FSLAX46Y46*%
G04 Gerber Fmt 4.6, Leading zero omitted, Abs format (unit mm)*
G04 Created by KiCad (PCBNEW (6.0.4-0)) date 2022-04-27 09:59:17*
%MOMM*%
%LPD*%
G01*
G04 APERTURE LIST*
G04 Aperture macros list*
%AMRoundRect*
0 Rectangle with rounded corners*
0 $1 Rounding radius*
0 $2 $3 $4 $5 $6 $7 $8 $9 X,Y pos of 4 corners*
0 Add a 4 corners polygon primitive as box body*
4,1,4,$2,$3,$4,$5,$6,$7,$8,$9,$2,$3,0*
0 Add four circle primitives for the rounded corners*
1,1,$1+$1,$2,$3*
1,1,$1+$1,$4,$5*
1,1,$1+$1,$6,$7*
1,1,$1+$1,$8,$9*
0 Add four rect primitives between the rounded corners*
20,1,$1+$1,$2,$3,$4,$5,0*
20,1,$1+$1,$4,$5,$6,$7,0*
20,1,$1+$1,$6,$7,$8,$9,0*
20,1,$1+$1,$8,$9,$2,$3,0*%
G04 Aperture macros list end*
%ADD10C,1.800000*%
%ADD11R,1.700000X1.700000*%
%ADD12O,1.700000X1.700000*%
%ADD13C,2.200000*%
%ADD14RoundRect,0.250000X0.625000X-0.462500X0.625000X0.462500X-0.625000X0.462500X-0.625000X-0.462500X0*%
%ADD15RoundRect,0.250001X0.624999X-0.462499X0.624999X0.462499X-0.624999X0.462499X-0.624999X-0.462499X0*%
G04 APERTURE END LIST*
D10*
%TO.C,S4*%
X54132000Y-62584200D03*
X54132000Y-72744200D03*
X54132000Y-67664200D03*
%TD*%
%TO.C,S5*%
X63582000Y-62584200D03*
X63582000Y-72744200D03*
X63582000Y-67664200D03*
%TD*%
%TO.C,S6*%
X73032000Y-62584200D03*
X73032000Y-72744200D03*
X73032000Y-67664200D03*
%TD*%
%TO.C,S7*%
X82482000Y-62584200D03*
X82482000Y-72744200D03*
X82482000Y-67664200D03*
%TD*%
%TO.C,S8*%
X91932000Y-62584200D03*
X91932000Y-72744200D03*
X91932000Y-67664200D03*
%TD*%
%TO.C,S9*%
X101382000Y-62584200D03*
X101382000Y-72744200D03*
X101382000Y-67664200D03*
%TD*%
%TO.C,S10*%
X110832000Y-62584200D03*
X110832000Y-72744200D03*
X110832000Y-67664200D03*
%TD*%
%TO.C,S11*%
X120282000Y-62584200D03*
X120282000Y-72744200D03*
X120282000Y-67664200D03*
%TD*%
%TO.C,S12*%
X129732000Y-62584200D03*
X129732000Y-72744200D03*
X129732000Y-67664200D03*
%TD*%
%TO.C,S13*%
X139182000Y-62584200D03*
X139182000Y-72744200D03*
X139182000Y-67664200D03*
%TD*%
%TO.C,S14*%
X152175750Y-62584200D03*
X152175750Y-72744200D03*
X152175750Y-67664200D03*
%TD*%
%TO.C,S16*%
X39957000Y-75884200D03*
X39957000Y-86044200D03*
X39957000Y-80964200D03*
%TD*%
%TO.C,S17*%
X49407000Y-75884200D03*
X49407000Y-86044200D03*
X49407000Y-80964200D03*
%TD*%
%TO.C,S18*%
X58857000Y-75884200D03*
X58857000Y-86044200D03*
X58857000Y-80964200D03*
%TD*%
%TO.C,S19*%
X68307000Y-75884200D03*
X68307000Y-86044200D03*
X68307000Y-80964200D03*
%TD*%
%TO.C,S20*%
X77757000Y-75884200D03*
X77757000Y-86044200D03*
X77757000Y-80964200D03*
%TD*%
%TO.C,S21*%
X87207000Y-75884200D03*
X87207000Y-86044200D03*
X87207000Y-80964200D03*
%TD*%
%TO.C,S22*%
X96657000Y-75884200D03*
X96657000Y-86044200D03*
X96657000Y-80964200D03*
%TD*%
%TO.C,S23*%
X106107000Y-75884200D03*
X106107000Y-86044200D03*
X106107000Y-80964200D03*
%TD*%
%TO.C,S24*%
X115557000Y-75884200D03*
X115557000Y-86044200D03*
X115557000Y-80964200D03*
%TD*%
%TO.C,S25*%
X125007000Y-75884200D03*
X125007000Y-86044200D03*
X125007000Y-80964200D03*
%TD*%
%TO.C,S26*%
X134457000Y-75884200D03*
X134457000Y-86044200D03*
X134457000Y-80964200D03*
%TD*%
%TO.C,S27*%
X143907000Y-75884200D03*
X143907000Y-86044200D03*
X143907000Y-80964200D03*
%TD*%
%TO.C,S28*%
X155719500Y-75884200D03*
X155719500Y-86044200D03*
X155719500Y-80964200D03*
%TD*%
%TO.C,S29*%
X30507000Y-89184200D03*
X30507000Y-99344200D03*
X30507000Y-94264200D03*
%TD*%
%TO.C,S30*%
X42319500Y-89184200D03*
X42319500Y-99344200D03*
X42319500Y-94264200D03*
%TD*%
%TO.C,S31*%
X51769500Y-89184200D03*
X51769500Y-99344200D03*
X51769500Y-94264200D03*
%TD*%
%TO.C,S32*%
X61219500Y-89184200D03*
X61219500Y-99344200D03*
X61219500Y-94264200D03*
%TD*%
%TO.C,S33*%
X70669500Y-89184200D03*
X70669500Y-99344200D03*
X70669500Y-94264200D03*
%TD*%
%TO.C,S34*%
X80119500Y-89184200D03*
X80119500Y-99344200D03*
X80119500Y-94264200D03*
%TD*%
%TO.C,S35*%
X89569500Y-89184200D03*
X89569500Y-99344200D03*
X89569500Y-94264200D03*
%TD*%
%TO.C,S36*%
X99019500Y-89184200D03*
X99019500Y-99344200D03*
X99019500Y-94264200D03*
%TD*%
%TO.C,S37*%
X108469500Y-89184200D03*
X108469500Y-99344200D03*
X108469500Y-94264200D03*
%TD*%
%TO.C,S38*%
X117919500Y-89184200D03*
X117919500Y-99344200D03*
X117919500Y-94264200D03*
%TD*%
%TO.C,S39*%
X127369500Y-89184200D03*
X127369500Y-99344200D03*
X127369500Y-94264200D03*
%TD*%
%TO.C,S40*%
X136819500Y-89184200D03*
X136819500Y-99344200D03*
X136819500Y-94264200D03*
%TD*%
%TO.C,S41*%
X152175750Y-89184200D03*
X152175750Y-99344200D03*
X152175750Y-94264200D03*
%TD*%
%TO.C,S42*%
X31688250Y-102484200D03*
X31688250Y-112644200D03*
X31688250Y-107564200D03*
%TD*%
%TO.C,S44*%
X54132000Y-102484200D03*
X54132000Y-112644200D03*
X54132000Y-107564200D03*
%TD*%
%TO.C,S45*%
X63582000Y-102484200D03*
X63582000Y-112644200D03*
X63582000Y-107564200D03*
%TD*%
%TO.C,S46*%
X73032000Y-102484200D03*
X73032000Y-112644200D03*
X73032000Y-107564200D03*
%TD*%
%TO.C,S47*%
X82482000Y-102484200D03*
X82482000Y-112644200D03*
X82482000Y-107564200D03*
%TD*%
%TO.C,S48*%
X91932000Y-102484200D03*
X91932000Y-112644200D03*
X91932000Y-107564200D03*
%TD*%
%TO.C,S49*%
X101382000Y-102484200D03*
X101382000Y-112644200D03*
X101382000Y-107564200D03*
%TD*%
%TO.C,S50*%
X110832000Y-102484200D03*
X110832000Y-112644200D03*
X110832000Y-107564200D03*
%TD*%
%TO.C,S51*%
X120282000Y-102484200D03*
X120282000Y-112644200D03*
X120282000Y-107564200D03*
%TD*%
%TO.C,S52*%
X129732000Y-102484200D03*
X129732000Y-112644200D03*
X129732000Y-107564200D03*
%TD*%
%TO.C,S53*%
X139182000Y-102484200D03*
X139182000Y-112644200D03*
X139182000Y-107564200D03*
%TD*%
%TO.C,S55*%
X158082000Y-102484200D03*
X158082000Y-112644200D03*
X158082000Y-107564200D03*
%TD*%
%TO.C,S56*%
X28144500Y-115784200D03*
X28144500Y-125944200D03*
X28144500Y-120864200D03*
%TD*%
%TO.C,S57*%
X42319500Y-115784200D03*
X42319500Y-125944200D03*
X42319500Y-120864200D03*
%TD*%
%TO.C,S62*%
X113194500Y-115784200D03*
X113194500Y-125944200D03*
X113194500Y-120864200D03*
%TD*%
%TO.C,S63*%
X127369500Y-115784200D03*
X127369500Y-125944200D03*
X127369500Y-120864200D03*
%TD*%
%TO.C,S64*%
X139182000Y-115784200D03*
X139182000Y-125944200D03*
X139182000Y-120864200D03*
%TD*%
%TO.C,S65*%
X148632000Y-115784200D03*
X148632000Y-125944200D03*
X148632000Y-120864200D03*
%TD*%
%TO.C,S66*%
X158082000Y-115784200D03*
X158082000Y-125944200D03*
X158082000Y-120864200D03*
%TD*%
%TO.C,S60*%
X84844500Y-115784200D03*
X84844500Y-125944200D03*
X84844500Y-120864200D03*
%TD*%
%TO.C,S15*%
X28144500Y-75884200D03*
X28144500Y-86044200D03*
X28144500Y-80964200D03*
%TD*%
%TO.C,S43*%
X44682000Y-102484200D03*
X44682000Y-112644200D03*
X44682000Y-107564200D03*
%TD*%
%TO.C,S54*%
X148632000Y-102484200D03*
X148632000Y-112644200D03*
X148632000Y-107564200D03*
%TD*%
%TO.C,S58*%
X56494500Y-115784200D03*
X56494500Y-125944200D03*
X56494500Y-120864200D03*
%TD*%
D11*
%TO.C,J1*%
X27897000Y-56784000D03*
D12*
X30437000Y-56784000D03*
X32977000Y-56784000D03*
X35517000Y-56784000D03*
X38057000Y-56784000D03*
%TD*%
D10*
%TO.C,S3*%
X44682000Y-62584200D03*
X44682000Y-72744200D03*
X44682000Y-67664200D03*
%TD*%
D13*
%TO.C,H1*%
X23419500Y-56896000D03*
%TD*%
%TO.C,H2*%
X160444500Y-56896000D03*
%TD*%
%TO.C,H4*%
X104925750Y-124159000D03*
%TD*%
D11*
%TO.C,J3*%
X90127000Y-57165000D03*
D12*
X92667000Y-57165000D03*
X95207000Y-57165000D03*
X97747000Y-57165000D03*
%TD*%
D13*
%TO.C,H3*%
X65157000Y-123825000D03*
%TD*%
D10*
%TO.C,S2*%
X35232000Y-62584200D03*
X35232000Y-72744200D03*
X35232000Y-67664200D03*
%TD*%
%TO.C,S1*%
X25782000Y-62584200D03*
X25782000Y-72744200D03*
X25782000Y-67664200D03*
%TD*%
D11*
%TO.C,J2*%
X45042000Y-56784000D03*
D12*
X47582000Y-56784000D03*
X50122000Y-56784000D03*
X52662000Y-56784000D03*
X55202000Y-56784000D03*
X57742000Y-56784000D03*
X60282000Y-56784000D03*
X62822000Y-56784000D03*
X65362000Y-56784000D03*
X67902000Y-56784000D03*
X70442000Y-56784000D03*
X72982000Y-56784000D03*
X75522000Y-56784000D03*
X78062000Y-56784000D03*
%TD*%
D10*
%TO.C,S59*%
X74418750Y-115784200D03*
X74418750Y-125944200D03*
X74418750Y-120864200D03*
%TD*%
%TO.C,S61*%
X95681250Y-115784200D03*
X95681250Y-125944200D03*
X95681250Y-120864200D03*
%TD*%
D13*
%TO.C,H8*%
X86106000Y-56896000D03*
%TD*%
%TO.C,H5*%
X35179000Y-124159000D03*
%TD*%
%TO.C,H7*%
X160444500Y-93980000D03*
%TD*%
%TO.C,H6*%
X23419500Y-106680000D03*
%TD*%
D14*
%TO.C,D1*%
X28144500Y-70717500D03*
X28144500Y-67742500D03*
%TD*%
%TO.C,D4*%
X56494500Y-70717500D03*
X56494500Y-67742500D03*
%TD*%
%TO.C,D5*%
X65944500Y-70959000D03*
X65944500Y-67984000D03*
%TD*%
%TO.C,D6*%
X75394500Y-70717500D03*
X75394500Y-67742500D03*
%TD*%
%TO.C,D7*%
X84844500Y-70717500D03*
X84844500Y-67742500D03*
%TD*%
%TO.C,D8*%
X94294500Y-70717500D03*
X94294500Y-67742500D03*
%TD*%
%TO.C,D9*%
X103744500Y-70959000D03*
X103744500Y-67984000D03*
%TD*%
%TO.C,D10*%
X113194500Y-70717500D03*
X113194500Y-67742500D03*
%TD*%
%TO.C,D11*%
X122644500Y-70717500D03*
X122644500Y-67742500D03*
%TD*%
%TO.C,D12*%
X132094500Y-70717500D03*
X132094500Y-67742500D03*
%TD*%
%TO.C,D14*%
X154538250Y-70717500D03*
X154538250Y-67742500D03*
%TD*%
%TO.C,D3*%
X47044500Y-70717500D03*
X47044500Y-67742500D03*
%TD*%
%TO.C,D13*%
X141544500Y-70717500D03*
X141544500Y-67742500D03*
%TD*%
%TO.C,D15*%
X30507000Y-83925500D03*
X30507000Y-80950500D03*
%TD*%
%TO.C,D16*%
X42319500Y-83925500D03*
X42319500Y-80950500D03*
%TD*%
%TO.C,D17*%
X51769500Y-83925500D03*
X51769500Y-80950500D03*
%TD*%
%TO.C,D18*%
X61219500Y-83925500D03*
X61219500Y-80950500D03*
%TD*%
%TO.C,D19*%
X70669500Y-83925500D03*
X70669500Y-80950500D03*
%TD*%
%TO.C,D20*%
X80119500Y-84259000D03*
X80119500Y-81284000D03*
%TD*%
%TO.C,D21*%
X89569500Y-83925500D03*
X89569500Y-80950500D03*
%TD*%
%TO.C,D23*%
X108469500Y-84259000D03*
X108469500Y-81284000D03*
%TD*%
%TO.C,D24*%
X117919500Y-83925500D03*
X117919500Y-80950500D03*
%TD*%
%TO.C,D25*%
X127369500Y-83925500D03*
X127369500Y-80950500D03*
%TD*%
%TO.C,D26*%
X136819500Y-83925500D03*
X136819500Y-80950500D03*
%TD*%
%TO.C,D28*%
X158082000Y-83925500D03*
X158082000Y-80950500D03*
%TD*%
%TO.C,D27*%
X146269500Y-83925500D03*
X146269500Y-80950500D03*
%TD*%
%TO.C,D22*%
X99019500Y-84259000D03*
X99019500Y-81284000D03*
%TD*%
%TO.C,D30*%
X44682000Y-97351000D03*
X44682000Y-94376000D03*
%TD*%
%TO.C,D31*%
X54132000Y-97351000D03*
X54132000Y-94376000D03*
%TD*%
%TO.C,D32*%
X63582000Y-97351000D03*
X63582000Y-94376000D03*
%TD*%
%TO.C,D33*%
X73032000Y-97351000D03*
X73032000Y-94376000D03*
%TD*%
%TO.C,D34*%
X82482000Y-97351000D03*
X82482000Y-94376000D03*
%TD*%
%TO.C,D35*%
X91932000Y-97351000D03*
X91932000Y-94376000D03*
%TD*%
%TO.C,D36*%
X101382000Y-97559000D03*
X101382000Y-94584000D03*
%TD*%
%TO.C,D37*%
X110832000Y-97351000D03*
X110832000Y-94376000D03*
%TD*%
%TO.C,D38*%
X120282000Y-97209000D03*
X120282000Y-94234000D03*
%TD*%
%TO.C,D39*%
X129732000Y-97387500D03*
X129732000Y-94412500D03*
%TD*%
%TO.C,D40*%
X139182000Y-97209000D03*
X139182000Y-94234000D03*
%TD*%
%TO.C,D41*%
X154538250Y-97351000D03*
X154538250Y-94376000D03*
%TD*%
%TO.C,D29*%
X34444500Y-97351000D03*
X34444500Y-94376000D03*
%TD*%
%TO.C,D42*%
X34050750Y-110559000D03*
X34050750Y-107584000D03*
%TD*%
%TO.C,D43*%
X47044500Y-110509000D03*
X47044500Y-107534000D03*
%TD*%
%TO.C,D44*%
X56494500Y-110559000D03*
X56494500Y-107584000D03*
%TD*%
%TO.C,D45*%
X65944500Y-110509000D03*
X65944500Y-107534000D03*
%TD*%
%TO.C,D46*%
X75394500Y-110559000D03*
X75394500Y-107584000D03*
%TD*%
%TO.C,D47*%
X84844500Y-110509000D03*
X84844500Y-107534000D03*
%TD*%
%TO.C,D48*%
X94294500Y-110509000D03*
X94294500Y-107534000D03*
%TD*%
%TO.C,D49*%
X103744500Y-110509000D03*
X103744500Y-107534000D03*
%TD*%
%TO.C,D50*%
X113194500Y-110509000D03*
X113194500Y-107534000D03*
%TD*%
%TO.C,D52*%
X132094500Y-110509000D03*
X132094500Y-107534000D03*
%TD*%
%TO.C,D53*%
X141544500Y-110559000D03*
X141544500Y-107584000D03*
%TD*%
%TO.C,D54*%
X150994500Y-110509000D03*
X150994500Y-107534000D03*
%TD*%
%TO.C,D56*%
X44661000Y-123767000D03*
X44661000Y-120792000D03*
%TD*%
%TO.C,D57*%
X58857000Y-123809000D03*
X58857000Y-120834000D03*
%TD*%
%TO.C,D58*%
X87207000Y-123809000D03*
X87207000Y-120834000D03*
%TD*%
%TO.C,D59*%
X115557000Y-123809000D03*
X115557000Y-120834000D03*
%TD*%
%TO.C,D63*%
X160444500Y-123809000D03*
X160444500Y-120834000D03*
%TD*%
%TO.C,D61*%
X141544500Y-123809000D03*
X141544500Y-120834000D03*
%TD*%
%TO.C,D55*%
X30507000Y-123809000D03*
X30507000Y-120834000D03*
%TD*%
%TO.C,D62*%
X150994500Y-123809000D03*
X150994500Y-120834000D03*
%TD*%
%TO.C,D60*%
X129732000Y-123809000D03*
X129732000Y-120834000D03*
%TD*%
%TO.C,D51*%
X122644500Y-110509000D03*
X122644500Y-107534000D03*
%TD*%
%TO.C,D64*%
X160444500Y-110859000D03*
X160444500Y-107884000D03*
%TD*%
%TO.C,D2*%
X37594500Y-70717500D03*
X37594500Y-67742500D03*
%TD*%
D15*
%TO.C,D69*%
X98298000Y-123915500D03*
X98298000Y-120940500D03*
%TD*%
%TO.C,D68*%
X76962000Y-123788500D03*
X76962000Y-120813500D03*
%TD*%
M02*
