M48
; DRILL file {KiCad (6.0.4-0)} date Wednesday, April 27, 2022 at 09:58:37 AM
; FORMAT={-:-/ absolute / metric / decimal}
; #@! TF.CreationDate,2022-04-27T09:58:37-07:00
; #@! TF.GenerationSoftware,Kicad,Pcbnew,(6.0.4-0)
; #@! TF.FileFunction,Plated,1,2,PTH
FMAT,2
METRIC
; #@! TA.AperFunction,Plated,PTH,ViaDrill
T1C0.400
; #@! TA.AperFunction,Plated,PTH,ComponentDrill
T2C1.000
; #@! TA.AperFunction,Plated,PTH,ComponentDrill
T3C1.200
%
G90
G05
T1
X30.437Y-66.309
X32.977Y-66.944
X33.866Y-83.962
X37.295Y-97.297
X40.724Y-68.087
X42.375Y-68.087
X48.852Y-110.505
X50.503Y-123.84
T2
X27.897Y-56.784
X30.437Y-56.784
X32.977Y-56.784
X35.517Y-56.784
X38.057Y-56.784
X45.042Y-56.784
X47.582Y-56.784
X50.122Y-56.784
X52.662Y-56.784
X55.202Y-56.784
X57.742Y-56.784
X60.282Y-56.784
X62.822Y-56.784
X65.362Y-56.784
X67.902Y-56.784
X70.442Y-56.784
X72.982Y-56.784
X75.522Y-56.784
X78.062Y-56.784
X90.127Y-57.165
X92.667Y-57.165
X95.207Y-57.165
X97.747Y-57.165
T3
X25.782Y-62.584
X25.782Y-67.664
X25.782Y-72.744
X28.144Y-75.884
X28.144Y-80.964
X28.144Y-86.044
X28.144Y-115.784
X28.144Y-120.864
X28.144Y-125.944
X30.507Y-89.184
X30.507Y-94.264
X30.507Y-99.344
X31.688Y-102.484
X31.688Y-107.564
X31.688Y-112.644
X35.232Y-62.584
X35.232Y-67.664
X35.232Y-72.744
X39.957Y-75.884
X39.957Y-80.964
X39.957Y-86.044
X42.319Y-89.184
X42.319Y-94.264
X42.319Y-99.344
X42.319Y-115.784
X42.319Y-120.864
X42.319Y-125.944
X44.682Y-62.584
X44.682Y-67.664
X44.682Y-72.744
X44.682Y-102.484
X44.682Y-107.564
X44.682Y-112.644
X49.407Y-75.884
X49.407Y-80.964
X49.407Y-86.044
X51.77Y-89.184
X51.77Y-94.264
X51.77Y-99.344
X54.132Y-62.584
X54.132Y-67.664
X54.132Y-72.744
X54.132Y-102.484
X54.132Y-107.564
X54.132Y-112.644
X56.494Y-115.784
X56.494Y-120.864
X56.494Y-125.944
X58.857Y-75.884
X58.857Y-80.964
X58.857Y-86.044
X61.219Y-89.184
X61.219Y-94.264
X61.219Y-99.344
X63.582Y-62.584
X63.582Y-67.664
X63.582Y-72.744
X63.582Y-102.484
X63.582Y-107.564
X63.582Y-112.644
X68.307Y-75.884
X68.307Y-80.964
X68.307Y-86.044
X70.669Y-89.184
X70.669Y-94.264
X70.669Y-99.344
X73.032Y-62.584
X73.032Y-67.664
X73.032Y-72.744
X73.032Y-102.484
X73.032Y-107.564
X73.032Y-112.644
X74.419Y-115.784
X74.419Y-120.864
X74.419Y-125.944
X77.757Y-75.884
X77.757Y-80.964
X77.757Y-86.044
X80.12Y-89.184
X80.12Y-94.264
X80.12Y-99.344
X82.482Y-62.584
X82.482Y-67.664
X82.482Y-72.744
X82.482Y-102.484
X82.482Y-107.564
X82.482Y-112.644
X84.844Y-115.784
X84.844Y-120.864
X84.844Y-125.944
X87.207Y-75.884
X87.207Y-80.964
X87.207Y-86.044
X89.569Y-89.184
X89.569Y-94.264
X89.569Y-99.344
X91.932Y-62.584
X91.932Y-67.664
X91.932Y-72.744
X91.932Y-102.484
X91.932Y-107.564
X91.932Y-112.644
X95.681Y-115.784
X95.681Y-120.864
X95.681Y-125.944
X96.657Y-75.884
X96.657Y-80.964
X96.657Y-86.044
X99.019Y-89.184
X99.019Y-94.264
X99.019Y-99.344
X101.382Y-62.584
X101.382Y-67.664
X101.382Y-72.744
X101.382Y-102.484
X101.382Y-107.564
X101.382Y-112.644
X106.107Y-75.884
X106.107Y-80.964
X106.107Y-86.044
X108.469Y-89.184
X108.469Y-94.264
X108.469Y-99.344
X110.832Y-62.584
X110.832Y-67.664
X110.832Y-72.744
X110.832Y-102.484
X110.832Y-107.564
X110.832Y-112.644
X113.194Y-115.784
X113.194Y-120.864
X113.194Y-125.944
X115.557Y-75.884
X115.557Y-80.964
X115.557Y-86.044
X117.919Y-89.184
X117.919Y-94.264
X117.919Y-99.344
X120.282Y-62.584
X120.282Y-67.664
X120.282Y-72.744
X120.282Y-102.484
X120.282Y-107.564
X120.282Y-112.644
X125.007Y-75.884
X125.007Y-80.964
X125.007Y-86.044
X127.369Y-89.184
X127.369Y-94.264
X127.369Y-99.344
X127.369Y-115.784
X127.369Y-120.864
X127.369Y-125.944
X129.732Y-62.584
X129.732Y-67.664
X129.732Y-72.744
X129.732Y-102.484
X129.732Y-107.564
X129.732Y-112.644
X134.457Y-75.884
X134.457Y-80.964
X134.457Y-86.044
X136.82Y-89.184
X136.82Y-94.264
X136.82Y-99.344
X139.182Y-62.584
X139.182Y-67.664
X139.182Y-72.744
X139.182Y-102.484
X139.182Y-107.564
X139.182Y-112.644
X139.182Y-115.784
X139.182Y-120.864
X139.182Y-125.944
X143.907Y-75.884
X143.907Y-80.964
X143.907Y-86.044
X148.632Y-102.484
X148.632Y-107.564
X148.632Y-112.644
X148.632Y-115.784
X148.632Y-120.864
X148.632Y-125.944
X152.176Y-62.584
X152.176Y-67.664
X152.176Y-72.744
X152.176Y-89.184
X152.176Y-94.264
X152.176Y-99.344
X155.719Y-75.884
X155.719Y-80.964
X155.719Y-86.044
X158.082Y-102.484
X158.082Y-107.564
X158.082Y-112.644
X158.082Y-115.784
X158.082Y-120.864
X158.082Y-125.944
T0
M30
