%TF.GenerationSoftware,KiCad,Pcbnew,(6.0.4-0)*%
%TF.CreationDate,2022-04-27T09:59:17-07:00*%
%TF.ProjectId,worst keyboard ever,776f7273-7420-46b6-9579-626f61726420,rev?*%
%TF.SameCoordinates,Original*%
%TF.FileFunction,Legend,Top*%
%TF.FilePolarity,Positive*%
%FSLAX46Y46*%
G04 Gerber Fmt 4.6, Leading zero omitted, Abs format (unit mm)*
G04 Created by KiCad (PCBNEW (6.0.4-0)) date 2022-04-27 09:59:17*
%MOMM*%
%LPD*%
G01*
G04 APERTURE LIST*
G04 Aperture macros list*
%AMRoundRect*
0 Rectangle with rounded corners*
0 $1 Rounding radius*
0 $2 $3 $4 $5 $6 $7 $8 $9 X,Y pos of 4 corners*
0 Add a 4 corners polygon primitive as box body*
4,1,4,$2,$3,$4,$5,$6,$7,$8,$9,$2,$3,0*
0 Add four circle primitives for the rounded corners*
1,1,$1+$1,$2,$3*
1,1,$1+$1,$4,$5*
1,1,$1+$1,$6,$7*
1,1,$1+$1,$8,$9*
0 Add four rect primitives between the rounded corners*
20,1,$1+$1,$2,$3,$4,$5,0*
20,1,$1+$1,$4,$5,$6,$7,0*
20,1,$1+$1,$6,$7,$8,$9,0*
20,1,$1+$1,$8,$9,$2,$3,0*%
G04 Aperture macros list end*
%ADD10C,0.150000*%
%ADD11C,0.200000*%
%ADD12C,0.127000*%
%ADD13C,0.120000*%
%ADD14C,1.800000*%
%ADD15R,1.700000X1.700000*%
%ADD16O,1.700000X1.700000*%
%ADD17C,2.200000*%
%ADD18RoundRect,0.249999X-0.325001X-0.450001X0.325001X-0.450001X0.325001X0.450001X-0.325001X0.450001X0*%
%ADD19RoundRect,0.249999X0.350001X0.450001X-0.350001X0.450001X-0.350001X-0.450001X0.350001X-0.450001X0*%
G04 APERTURE END LIST*
D10*
X24676500Y-124066142D02*
X24533642Y-124137571D01*
X24247928Y-124137571D01*
X24105071Y-124066142D01*
X24033642Y-123994714D01*
X23962214Y-123851857D01*
X23962214Y-123423285D01*
X24033642Y-123280428D01*
X24105071Y-123209000D01*
X24247928Y-123137571D01*
X24533642Y-123137571D01*
X24676500Y-123209000D01*
X25105071Y-123137571D02*
X25676500Y-123137571D01*
X25319357Y-122637571D02*
X25319357Y-123923285D01*
X25390785Y-124066142D01*
X25533642Y-124137571D01*
X25676500Y-124137571D01*
X26176500Y-124137571D02*
X26176500Y-123137571D01*
X26176500Y-123423285D02*
X26247928Y-123280428D01*
X26319357Y-123209000D01*
X26462214Y-123137571D01*
X26605071Y-123137571D01*
X27319357Y-124137571D02*
X27176500Y-124066142D01*
X27105071Y-123923285D01*
X27105071Y-122637571D01*
X38033642Y-123137571D02*
X38319357Y-124137571D01*
X38605071Y-123423285D01*
X38890785Y-124137571D01*
X39176499Y-123137571D01*
X39747928Y-124137571D02*
X39747928Y-123137571D01*
X39747928Y-122637571D02*
X39676499Y-122709000D01*
X39747928Y-122780428D01*
X39819357Y-122709000D01*
X39747928Y-122637571D01*
X39747928Y-122780428D01*
X40462214Y-123137571D02*
X40462214Y-124137571D01*
X40462214Y-123280428D02*
X40533642Y-123209000D01*
X40676500Y-123137571D01*
X40890785Y-123137571D01*
X41033642Y-123209000D01*
X41105071Y-123351857D01*
X41105071Y-124137571D01*
X53890785Y-124137571D02*
X53890785Y-123351857D01*
X53819357Y-123209000D01*
X53676499Y-123137571D01*
X53390785Y-123137571D01*
X53247928Y-123209000D01*
X53890785Y-124066142D02*
X53747928Y-124137571D01*
X53390785Y-124137571D01*
X53247928Y-124066142D01*
X53176499Y-123923285D01*
X53176499Y-123780428D01*
X53247928Y-123637571D01*
X53390785Y-123566142D01*
X53747928Y-123566142D01*
X53890785Y-123494714D01*
X54819357Y-124137571D02*
X54676499Y-124066142D01*
X54605071Y-123923285D01*
X54605071Y-122637571D01*
X55176499Y-123137571D02*
X55747928Y-123137571D01*
X55390785Y-122637571D02*
X55390785Y-123923285D01*
X55462214Y-124066142D01*
X55605071Y-124137571D01*
X55747928Y-124137571D01*
X71033642Y-124066142D02*
X71176499Y-124137571D01*
X71462214Y-124137571D01*
X71605071Y-124066142D01*
X71676499Y-123923285D01*
X71676499Y-123851857D01*
X71605071Y-123709000D01*
X71462214Y-123637571D01*
X71247928Y-123637571D01*
X71105071Y-123566142D01*
X71033642Y-123423285D01*
X71033642Y-123351857D01*
X71105071Y-123209000D01*
X71247928Y-123137571D01*
X71462214Y-123137571D01*
X71605071Y-123209000D01*
X72319357Y-123137571D02*
X72319357Y-124637571D01*
X72319357Y-123209000D02*
X72462214Y-123137571D01*
X72747928Y-123137571D01*
X72890785Y-123209000D01*
X72962214Y-123280428D01*
X73033642Y-123423285D01*
X73033642Y-123851857D01*
X72962214Y-123994714D01*
X72890785Y-124066142D01*
X72747928Y-124137571D01*
X72462214Y-124137571D01*
X72319357Y-124066142D01*
X74319357Y-124066142D02*
X74176499Y-124137571D01*
X73890785Y-124137571D01*
X73747928Y-124066142D01*
X73676499Y-123994714D01*
X73605071Y-123851857D01*
X73605071Y-123423285D01*
X73676499Y-123280428D01*
X73747928Y-123209000D01*
X73890785Y-123137571D01*
X74176499Y-123137571D01*
X74319357Y-123209000D01*
X80605071Y-124066142D02*
X80747928Y-124137571D01*
X81033642Y-124137571D01*
X81176499Y-124066142D01*
X81247928Y-123923285D01*
X81247928Y-123851857D01*
X81176499Y-123709000D01*
X81033642Y-123637571D01*
X80819357Y-123637571D01*
X80676499Y-123566142D01*
X80605071Y-123423285D01*
X80605071Y-123351857D01*
X80676499Y-123209000D01*
X80819357Y-123137571D01*
X81033642Y-123137571D01*
X81176499Y-123209000D01*
X81890785Y-123137571D02*
X81890785Y-124637571D01*
X81890785Y-123209000D02*
X82033642Y-123137571D01*
X82319357Y-123137571D01*
X82462214Y-123209000D01*
X82533642Y-123280428D01*
X82605071Y-123423285D01*
X82605071Y-123851857D01*
X82533642Y-123994714D01*
X82462214Y-124066142D01*
X82319357Y-124137571D01*
X82033642Y-124137571D01*
X81890785Y-124066142D01*
X83890785Y-124066142D02*
X83747928Y-124137571D01*
X83462214Y-124137571D01*
X83319357Y-124066142D01*
X83247928Y-123994714D01*
X83176499Y-123851857D01*
X83176499Y-123423285D01*
X83247928Y-123280428D01*
X83319357Y-123209000D01*
X83462214Y-123137571D01*
X83747928Y-123137571D01*
X83890785Y-123209000D01*
X91319357Y-124066142D02*
X91462214Y-124137571D01*
X91747928Y-124137571D01*
X91890785Y-124066142D01*
X91962214Y-123923285D01*
X91962214Y-123851857D01*
X91890785Y-123709000D01*
X91747928Y-123637571D01*
X91533642Y-123637571D01*
X91390785Y-123566142D01*
X91319357Y-123423285D01*
X91319357Y-123351857D01*
X91390785Y-123209000D01*
X91533642Y-123137571D01*
X91747928Y-123137571D01*
X91890785Y-123209000D01*
X92605071Y-123137571D02*
X92605071Y-124637571D01*
X92605071Y-123209000D02*
X92747928Y-123137571D01*
X93033642Y-123137571D01*
X93176499Y-123209000D01*
X93247928Y-123280428D01*
X93319357Y-123423285D01*
X93319357Y-123851857D01*
X93247928Y-123994714D01*
X93176499Y-124066142D01*
X93033642Y-124137571D01*
X92747928Y-124137571D01*
X92605071Y-124066142D01*
X94605071Y-124066142D02*
X94462214Y-124137571D01*
X94176499Y-124137571D01*
X94033642Y-124066142D01*
X93962214Y-123994714D01*
X93890785Y-123851857D01*
X93890785Y-123423285D01*
X93962214Y-123280428D01*
X94033642Y-123209000D01*
X94176499Y-123137571D01*
X94462214Y-123137571D01*
X94605071Y-123209000D01*
X110747928Y-124137571D02*
X110747928Y-123351857D01*
X110676500Y-123209000D01*
X110533642Y-123137571D01*
X110247928Y-123137571D01*
X110105071Y-123209000D01*
X110747928Y-124066142D02*
X110605071Y-124137571D01*
X110247928Y-124137571D01*
X110105071Y-124066142D01*
X110033642Y-123923285D01*
X110033642Y-123780428D01*
X110105071Y-123637571D01*
X110247928Y-123566142D01*
X110605071Y-123566142D01*
X110747928Y-123494714D01*
X111676500Y-124137571D02*
X111533642Y-124066142D01*
X111462214Y-123923285D01*
X111462214Y-122637571D01*
X112033642Y-123137571D02*
X112605071Y-123137571D01*
X112247928Y-122637571D02*
X112247928Y-123923285D01*
X112319357Y-124066142D01*
X112462214Y-124137571D01*
X112605071Y-124137571D01*
X124033642Y-124137571D02*
X124033642Y-123351857D01*
X123962214Y-123209000D01*
X123819357Y-123137571D01*
X123533642Y-123137571D01*
X123390785Y-123209000D01*
X124033642Y-124066142D02*
X123890785Y-124137571D01*
X123533642Y-124137571D01*
X123390785Y-124066142D01*
X123319357Y-123923285D01*
X123319357Y-123780428D01*
X123390785Y-123637571D01*
X123533642Y-123566142D01*
X123890785Y-123566142D01*
X124033642Y-123494714D01*
X124747928Y-123137571D02*
X124747928Y-124637571D01*
X124747928Y-123209000D02*
X124890785Y-123137571D01*
X125176500Y-123137571D01*
X125319357Y-123209000D01*
X125390785Y-123280428D01*
X125462214Y-123423285D01*
X125462214Y-123851857D01*
X125390785Y-123994714D01*
X125319357Y-124066142D01*
X125176500Y-124137571D01*
X124890785Y-124137571D01*
X124747928Y-124066142D01*
X126105071Y-123137571D02*
X126105071Y-124637571D01*
X126105071Y-123209000D02*
X126247928Y-123137571D01*
X126533642Y-123137571D01*
X126676500Y-123209000D01*
X126747928Y-123280428D01*
X126819357Y-123423285D01*
X126819357Y-123851857D01*
X126747928Y-123994714D01*
X126676500Y-124066142D01*
X126533642Y-124137571D01*
X126247928Y-124137571D01*
X126105071Y-124066142D01*
X135676500Y-124137571D02*
X135533642Y-124066142D01*
X135462214Y-123923285D01*
X135462214Y-122637571D01*
X136033642Y-123137571D02*
X136605071Y-123137571D01*
X136247928Y-124137571D02*
X136247928Y-122851857D01*
X136319357Y-122709000D01*
X136462214Y-122637571D01*
X136605071Y-122637571D01*
X136890785Y-123137571D02*
X137462214Y-123137571D01*
X137105071Y-122637571D02*
X137105071Y-123923285D01*
X137176500Y-124066142D01*
X137319357Y-124137571D01*
X137462214Y-124137571D01*
X145462214Y-124137571D02*
X145462214Y-122637571D01*
X145462214Y-124066142D02*
X145319357Y-124137571D01*
X145033642Y-124137571D01*
X144890785Y-124066142D01*
X144819357Y-123994714D01*
X144747928Y-123851857D01*
X144747928Y-123423285D01*
X144819357Y-123280428D01*
X144890785Y-123209000D01*
X145033642Y-123137571D01*
X145319357Y-123137571D01*
X145462214Y-123209000D01*
X146176500Y-123137571D02*
X146176500Y-124137571D01*
X146176500Y-123280428D02*
X146247928Y-123209000D01*
X146390785Y-123137571D01*
X146605071Y-123137571D01*
X146747928Y-123209000D01*
X146819357Y-123351857D01*
X146819357Y-124137571D01*
X154390785Y-124137571D02*
X154390785Y-123137571D01*
X154390785Y-123423285D02*
X154462214Y-123280428D01*
X154533642Y-123209000D01*
X154676500Y-123137571D01*
X154819357Y-123137571D01*
X155319357Y-124137571D02*
X155319357Y-122637571D01*
X155962214Y-124137571D02*
X155962214Y-123351857D01*
X155890785Y-123209000D01*
X155747928Y-123137571D01*
X155533642Y-123137571D01*
X155390785Y-123209000D01*
X155319357Y-123280428D01*
X156462214Y-123137571D02*
X157033642Y-123137571D01*
X156676500Y-122637571D02*
X156676500Y-123923285D01*
X156747928Y-124066142D01*
X156890785Y-124137571D01*
X157033642Y-124137571D01*
X92817952Y-59776380D02*
X92341761Y-59776380D01*
X92341761Y-58776380D01*
X93151285Y-59252571D02*
X93484619Y-59252571D01*
X93627476Y-59776380D02*
X93151285Y-59776380D01*
X93151285Y-58776380D01*
X93627476Y-58776380D01*
X94056047Y-59776380D02*
X94056047Y-58776380D01*
X94294142Y-58776380D01*
X94437000Y-58824000D01*
X94532238Y-58919238D01*
X94579857Y-59014476D01*
X94627476Y-59204952D01*
X94627476Y-59347809D01*
X94579857Y-59538285D01*
X94532238Y-59633523D01*
X94437000Y-59728761D01*
X94294142Y-59776380D01*
X94056047Y-59776380D01*
X95008428Y-59728761D02*
X95151285Y-59776380D01*
X95389380Y-59776380D01*
X95484619Y-59728761D01*
X95532238Y-59681142D01*
X95579857Y-59585904D01*
X95579857Y-59490666D01*
X95532238Y-59395428D01*
X95484619Y-59347809D01*
X95389380Y-59300190D01*
X95198904Y-59252571D01*
X95103666Y-59204952D01*
X95056047Y-59157333D01*
X95008428Y-59062095D01*
X95008428Y-58966857D01*
X95056047Y-58871619D01*
X95103666Y-58824000D01*
X95198904Y-58776380D01*
X95437000Y-58776380D01*
X95579857Y-58824000D01*
X132017785Y-82861500D02*
X131946357Y-82861500D01*
X131803500Y-82790071D01*
X131732071Y-82647214D01*
X131732071Y-81932928D01*
X131660642Y-81790071D01*
X131517785Y-81718642D01*
X131660642Y-81647214D01*
X131732071Y-81504357D01*
X131732071Y-80790071D01*
X131803500Y-80647214D01*
X131946357Y-80575785D01*
X132017785Y-80575785D01*
X140446357Y-82861500D02*
X140517785Y-82861500D01*
X140660642Y-82790071D01*
X140732071Y-82647214D01*
X140732071Y-81932928D01*
X140803500Y-81790071D01*
X140946357Y-81718642D01*
X140803500Y-81647214D01*
X140732071Y-81504357D01*
X140732071Y-80790071D01*
X140660642Y-80647214D01*
X140517785Y-80575785D01*
X140446357Y-80575785D01*
X153374928Y-82790071D02*
X153374928Y-80647214D01*
X23946357Y-83705071D02*
X24517785Y-83705071D01*
X24160642Y-83205071D02*
X24160642Y-84490785D01*
X24232071Y-84633642D01*
X24374928Y-84705071D01*
X24517785Y-84705071D01*
X25660642Y-84705071D02*
X25660642Y-83919357D01*
X25589214Y-83776500D01*
X25446357Y-83705071D01*
X25160642Y-83705071D01*
X25017785Y-83776500D01*
X25660642Y-84633642D02*
X25517785Y-84705071D01*
X25160642Y-84705071D01*
X25017785Y-84633642D01*
X24946357Y-84490785D01*
X24946357Y-84347928D01*
X25017785Y-84205071D01*
X25160642Y-84133642D01*
X25517785Y-84133642D01*
X25660642Y-84062214D01*
X26374928Y-84705071D02*
X26374928Y-83205071D01*
X26374928Y-83776500D02*
X26517785Y-83705071D01*
X26803500Y-83705071D01*
X26946357Y-83776500D01*
X27017785Y-83847928D01*
X27089214Y-83990785D01*
X27089214Y-84419357D01*
X27017785Y-84562214D01*
X26946357Y-84633642D01*
X26803500Y-84705071D01*
X26517785Y-84705071D01*
X26374928Y-84633642D01*
X37517785Y-83705071D02*
X37517785Y-85205071D01*
X37517785Y-84633642D02*
X37374928Y-84705071D01*
X37089214Y-84705071D01*
X36946357Y-84633642D01*
X36874928Y-84562214D01*
X36803499Y-84419357D01*
X36803499Y-83990785D01*
X36874928Y-83847928D01*
X36946357Y-83776500D01*
X37089214Y-83705071D01*
X37374928Y-83705071D01*
X37517785Y-83776500D01*
X46089214Y-83705071D02*
X46374928Y-84705071D01*
X46660642Y-83990785D01*
X46946357Y-84705071D01*
X47232071Y-83705071D01*
X56374928Y-84633642D02*
X56232071Y-84705071D01*
X55946357Y-84705071D01*
X55803499Y-84633642D01*
X55732071Y-84490785D01*
X55732071Y-83919357D01*
X55803499Y-83776500D01*
X55946357Y-83705071D01*
X56232071Y-83705071D01*
X56374928Y-83776500D01*
X56446357Y-83919357D01*
X56446357Y-84062214D01*
X55732071Y-84205071D01*
X65089214Y-84705071D02*
X65089214Y-83705071D01*
X65089214Y-83990785D02*
X65160642Y-83847928D01*
X65232071Y-83776500D01*
X65374928Y-83705071D01*
X65517785Y-83705071D01*
X74946357Y-83705071D02*
X75517785Y-83705071D01*
X75160642Y-83205071D02*
X75160642Y-84490785D01*
X75232071Y-84633642D01*
X75374928Y-84705071D01*
X75517785Y-84705071D01*
X83874928Y-83705071D02*
X84232071Y-84705071D01*
X84589214Y-83705071D02*
X84232071Y-84705071D01*
X84089214Y-85062214D01*
X84017785Y-85133642D01*
X83874928Y-85205071D01*
X94946357Y-83705071D02*
X94946357Y-84705071D01*
X94303499Y-83705071D02*
X94303499Y-84490785D01*
X94374928Y-84633642D01*
X94517785Y-84705071D01*
X94732071Y-84705071D01*
X94874928Y-84633642D01*
X94946357Y-84562214D01*
X103660642Y-84705071D02*
X103660642Y-83705071D01*
X103660642Y-83205071D02*
X103589214Y-83276500D01*
X103660642Y-83347928D01*
X103732071Y-83276500D01*
X103660642Y-83205071D01*
X103660642Y-83347928D01*
X112589214Y-84705071D02*
X112446357Y-84633642D01*
X112374928Y-84562214D01*
X112303500Y-84419357D01*
X112303500Y-83990785D01*
X112374928Y-83847928D01*
X112446357Y-83776500D01*
X112589214Y-83705071D01*
X112803500Y-83705071D01*
X112946357Y-83776500D01*
X113017785Y-83847928D01*
X113089214Y-83990785D01*
X113089214Y-84419357D01*
X113017785Y-84562214D01*
X112946357Y-84633642D01*
X112803500Y-84705071D01*
X112589214Y-84705071D01*
X122874928Y-83705071D02*
X122874928Y-85205071D01*
X122874928Y-83776500D02*
X123017785Y-83705071D01*
X123303500Y-83705071D01*
X123446357Y-83776500D01*
X123517785Y-83847928D01*
X123589214Y-83990785D01*
X123589214Y-84419357D01*
X123517785Y-84562214D01*
X123446357Y-84633642D01*
X123303500Y-84705071D01*
X123017785Y-84705071D01*
X122874928Y-84633642D01*
X131517785Y-85205071D02*
X131160642Y-85205071D01*
X131160642Y-83062214D01*
X131517785Y-83062214D01*
X141089214Y-85205071D02*
X141446357Y-85205071D01*
X141446357Y-83062214D01*
X141089214Y-83062214D01*
X153160642Y-83062214D02*
X154446357Y-84990785D01*
X108732500Y-107325071D02*
X107589642Y-107753642D01*
X108732500Y-108182214D01*
X117446785Y-107325071D02*
X118589642Y-107753642D01*
X117446785Y-108182214D01*
X126375357Y-108182214D02*
X126446785Y-108253642D01*
X126375357Y-108325071D01*
X126303928Y-108253642D01*
X126375357Y-108182214D01*
X126375357Y-108325071D01*
X126089642Y-106896500D02*
X126232500Y-106825071D01*
X126589642Y-106825071D01*
X126732500Y-106896500D01*
X126803928Y-107039357D01*
X126803928Y-107182214D01*
X126732500Y-107325071D01*
X126661071Y-107396500D01*
X126518214Y-107467928D01*
X126446785Y-107539357D01*
X126375357Y-107682214D01*
X126375357Y-107753642D01*
X27518214Y-110668642D02*
X27661071Y-110740071D01*
X27946785Y-110740071D01*
X28089642Y-110668642D01*
X28161071Y-110525785D01*
X28161071Y-110454357D01*
X28089642Y-110311500D01*
X27946785Y-110240071D01*
X27732500Y-110240071D01*
X27589642Y-110168642D01*
X27518214Y-110025785D01*
X27518214Y-109954357D01*
X27589642Y-109811500D01*
X27732500Y-109740071D01*
X27946785Y-109740071D01*
X28089642Y-109811500D01*
X28803928Y-110740071D02*
X28803928Y-109240071D01*
X29446785Y-110740071D02*
X29446785Y-109954357D01*
X29375357Y-109811500D01*
X29232500Y-109740071D01*
X29018214Y-109740071D01*
X28875357Y-109811500D01*
X28803928Y-109882928D01*
X29946785Y-109740071D02*
X30518214Y-109740071D01*
X30161071Y-110740071D02*
X30161071Y-109454357D01*
X30232500Y-109311500D01*
X30375357Y-109240071D01*
X30518214Y-109240071D01*
X30803928Y-109740071D02*
X31375357Y-109740071D01*
X31018214Y-109240071D02*
X31018214Y-110525785D01*
X31089642Y-110668642D01*
X31232500Y-110740071D01*
X31375357Y-110740071D01*
X42018214Y-109740071D02*
X42803928Y-109740071D01*
X42018214Y-110740071D01*
X42803928Y-110740071D01*
X51232499Y-110740071D02*
X52018214Y-109740071D01*
X51232499Y-109740071D02*
X52018214Y-110740071D01*
X61232499Y-110668642D02*
X61089642Y-110740071D01*
X60803928Y-110740071D01*
X60661071Y-110668642D01*
X60589642Y-110597214D01*
X60518214Y-110454357D01*
X60518214Y-110025785D01*
X60589642Y-109882928D01*
X60661071Y-109811500D01*
X60803928Y-109740071D01*
X61089642Y-109740071D01*
X61232499Y-109811500D01*
X69732499Y-109740071D02*
X70089642Y-110740071D01*
X70446785Y-109740071D01*
X80161071Y-110740071D02*
X80161071Y-109240071D01*
X80161071Y-109811500D02*
X80303928Y-109740071D01*
X80589642Y-109740071D01*
X80732499Y-109811500D01*
X80803928Y-109882928D01*
X80875357Y-110025785D01*
X80875357Y-110454357D01*
X80803928Y-110597214D01*
X80732499Y-110668642D01*
X80589642Y-110740071D01*
X80303928Y-110740071D01*
X80161071Y-110668642D01*
X89518214Y-109740071D02*
X89518214Y-110740071D01*
X89518214Y-109882928D02*
X89589642Y-109811500D01*
X89732499Y-109740071D01*
X89946785Y-109740071D01*
X90089642Y-109811500D01*
X90161071Y-109954357D01*
X90161071Y-110740071D01*
X98875357Y-110740071D02*
X98875357Y-109740071D01*
X98875357Y-109882928D02*
X98946785Y-109811500D01*
X99089642Y-109740071D01*
X99303928Y-109740071D01*
X99446785Y-109811500D01*
X99518214Y-109954357D01*
X99518214Y-110740071D01*
X99518214Y-109954357D02*
X99589642Y-109811500D01*
X99732499Y-109740071D01*
X99946785Y-109740071D01*
X100089642Y-109811500D01*
X100161071Y-109954357D01*
X100161071Y-110740071D01*
X108946785Y-110668642D02*
X108946785Y-110740071D01*
X108875357Y-110882928D01*
X108803928Y-110954357D01*
X117589642Y-110597214D02*
X117661071Y-110668642D01*
X117589642Y-110740071D01*
X117518214Y-110668642D01*
X117589642Y-110597214D01*
X117589642Y-110740071D01*
X127375357Y-109168642D02*
X126089642Y-111097214D01*
X134661071Y-110668642D02*
X134803928Y-110740071D01*
X135089642Y-110740071D01*
X135232500Y-110668642D01*
X135303928Y-110525785D01*
X135303928Y-110454357D01*
X135232500Y-110311500D01*
X135089642Y-110240071D01*
X134875357Y-110240071D01*
X134732500Y-110168642D01*
X134661071Y-110025785D01*
X134661071Y-109954357D01*
X134732500Y-109811500D01*
X134875357Y-109740071D01*
X135089642Y-109740071D01*
X135232500Y-109811500D01*
X135946785Y-110740071D02*
X135946785Y-109240071D01*
X136589642Y-110740071D02*
X136589642Y-109954357D01*
X136518214Y-109811500D01*
X136375357Y-109740071D01*
X136161071Y-109740071D01*
X136018214Y-109811500D01*
X135946785Y-109882928D01*
X137089642Y-109740071D02*
X137661071Y-109740071D01*
X137303928Y-110740071D02*
X137303928Y-109454357D01*
X137375357Y-109311500D01*
X137518214Y-109240071D01*
X137661071Y-109240071D01*
X137946785Y-109740071D02*
X138518214Y-109740071D01*
X138161071Y-109240071D02*
X138161071Y-110525785D01*
X138232500Y-110668642D01*
X138375357Y-110740071D01*
X138518214Y-110740071D01*
X145375357Y-109740071D02*
X145375357Y-110740071D01*
X144732500Y-109740071D02*
X144732500Y-110525785D01*
X144803928Y-110668642D01*
X144946785Y-110740071D01*
X145161071Y-110740071D01*
X145303928Y-110668642D01*
X145375357Y-110597214D01*
X146089642Y-109740071D02*
X146089642Y-111240071D01*
X146089642Y-109811500D02*
X146232500Y-109740071D01*
X146518214Y-109740071D01*
X146661071Y-109811500D01*
X146732500Y-109882928D01*
X146803928Y-110025785D01*
X146803928Y-110454357D01*
X146732500Y-110597214D01*
X146661071Y-110668642D01*
X146518214Y-110740071D01*
X146232500Y-110740071D01*
X146089642Y-110668642D01*
X154089642Y-109740071D02*
X154661071Y-109740071D01*
X154303928Y-110740071D02*
X154303928Y-109454357D01*
X154375357Y-109311500D01*
X154518214Y-109240071D01*
X154661071Y-109240071D01*
X155161071Y-109740071D02*
X155161071Y-110740071D01*
X155161071Y-109882928D02*
X155232500Y-109811500D01*
X155375357Y-109740071D01*
X155589642Y-109740071D01*
X155732500Y-109811500D01*
X155803928Y-109954357D01*
X155803928Y-110740071D01*
X32160357Y-68177214D02*
X32231785Y-68248642D01*
X32160357Y-68320071D01*
X32088928Y-68248642D01*
X32160357Y-68177214D01*
X32160357Y-68320071D01*
X32160357Y-67748642D02*
X32088928Y-66891500D01*
X32160357Y-66820071D01*
X32231785Y-66891500D01*
X32160357Y-67748642D01*
X32160357Y-66820071D01*
X41803214Y-67605785D02*
X41731785Y-67534357D01*
X41588928Y-67462928D01*
X41446071Y-67462928D01*
X41303214Y-67534357D01*
X41231785Y-67605785D01*
X41160357Y-67748642D01*
X41160357Y-67891500D01*
X41231785Y-68034357D01*
X41303214Y-68105785D01*
X41446071Y-68177214D01*
X41588928Y-68177214D01*
X41731785Y-68105785D01*
X41803214Y-68034357D01*
X41803214Y-67462928D02*
X41803214Y-68034357D01*
X41874642Y-68105785D01*
X41946071Y-68105785D01*
X42088928Y-68034357D01*
X42160357Y-67891500D01*
X42160357Y-67534357D01*
X42017499Y-67320071D01*
X41803214Y-67177214D01*
X41517499Y-67105785D01*
X41231785Y-67177214D01*
X41017499Y-67320071D01*
X40874642Y-67534357D01*
X40803214Y-67820071D01*
X40874642Y-68105785D01*
X41017499Y-68320071D01*
X41231785Y-68462928D01*
X41517499Y-68534357D01*
X41803214Y-68462928D01*
X42017499Y-68320071D01*
X50731785Y-67320071D02*
X51803214Y-67320071D01*
X51160357Y-66677214D02*
X50731785Y-68605785D01*
X51660357Y-67962928D02*
X50588928Y-67962928D01*
X51231785Y-68605785D02*
X51660357Y-66677214D01*
X60231785Y-68248642D02*
X60446071Y-68320071D01*
X60803214Y-68320071D01*
X60946071Y-68248642D01*
X61017499Y-68177214D01*
X61088928Y-68034357D01*
X61088928Y-67891500D01*
X61017499Y-67748642D01*
X60946071Y-67677214D01*
X60803214Y-67605785D01*
X60517499Y-67534357D01*
X60374642Y-67462928D01*
X60303214Y-67391500D01*
X60231785Y-67248642D01*
X60231785Y-67105785D01*
X60303214Y-66962928D01*
X60374642Y-66891500D01*
X60517499Y-66820071D01*
X60874642Y-66820071D01*
X61088928Y-66891500D01*
X60660357Y-66605785D02*
X60660357Y-68534357D01*
X69660357Y-68320071D02*
X70803214Y-66820071D01*
X69874642Y-66820071D02*
X70017499Y-66891500D01*
X70088928Y-67034357D01*
X70017499Y-67177214D01*
X69874642Y-67248642D01*
X69731785Y-67177214D01*
X69660357Y-67034357D01*
X69731785Y-66891500D01*
X69874642Y-66820071D01*
X70731785Y-68248642D02*
X70803214Y-68105785D01*
X70731785Y-67962928D01*
X70588928Y-67891500D01*
X70446071Y-67962928D01*
X70374642Y-68105785D01*
X70446071Y-68248642D01*
X70588928Y-68320071D01*
X70731785Y-68248642D01*
X79231785Y-66962928D02*
X79517499Y-66748642D01*
X79803214Y-66962928D01*
X89517499Y-68320071D02*
X89446071Y-68320071D01*
X89303214Y-68248642D01*
X89088928Y-68034357D01*
X88731785Y-67605785D01*
X88588928Y-67391500D01*
X88517499Y-67177214D01*
X88517499Y-67034357D01*
X88588928Y-66891500D01*
X88731785Y-66820071D01*
X88803214Y-66820071D01*
X88946071Y-66891500D01*
X89017499Y-67034357D01*
X89017499Y-67105785D01*
X88946071Y-67248642D01*
X88874642Y-67320071D01*
X88446071Y-67605785D01*
X88374642Y-67677214D01*
X88303214Y-67820071D01*
X88303214Y-68034357D01*
X88374642Y-68177214D01*
X88446071Y-68248642D01*
X88588928Y-68320071D01*
X88803214Y-68320071D01*
X88946071Y-68248642D01*
X89017499Y-68177214D01*
X89231785Y-67891500D01*
X89303214Y-67677214D01*
X89303214Y-67534357D01*
X98374642Y-66820071D02*
X98374642Y-67177214D01*
X98017500Y-67034357D02*
X98374642Y-67177214D01*
X98731785Y-67034357D01*
X98160357Y-67462928D02*
X98374642Y-67177214D01*
X98588928Y-67462928D01*
X107731785Y-68891500D02*
X107660357Y-68820071D01*
X107517500Y-68605785D01*
X107446071Y-68462928D01*
X107374642Y-68248642D01*
X107303214Y-67891500D01*
X107303214Y-67605785D01*
X107374642Y-67248642D01*
X107446071Y-67034357D01*
X107517500Y-66891500D01*
X107660357Y-66677214D01*
X107731785Y-66605785D01*
X117303214Y-68891500D02*
X117374642Y-68820071D01*
X117517500Y-68605785D01*
X117588928Y-68462928D01*
X117660357Y-68248642D01*
X117731785Y-67891500D01*
X117731785Y-67605785D01*
X117660357Y-67248642D01*
X117588928Y-67034357D01*
X117517500Y-66891500D01*
X117374642Y-66677214D01*
X117303214Y-66605785D01*
X126088928Y-68462928D02*
X127231785Y-68462928D01*
X136731785Y-67748642D02*
X137874642Y-67748642D01*
X137303214Y-68320071D02*
X137303214Y-67177214D01*
X22446071Y-70663642D02*
X22303214Y-70735071D01*
X22017500Y-70735071D01*
X21874642Y-70663642D01*
X21803214Y-70520785D01*
X21803214Y-69949357D01*
X21874642Y-69806500D01*
X22017500Y-69735071D01*
X22303214Y-69735071D01*
X22446071Y-69806500D01*
X22517500Y-69949357D01*
X22517500Y-70092214D01*
X21803214Y-70235071D01*
X23088928Y-70663642D02*
X23231785Y-70735071D01*
X23517500Y-70735071D01*
X23660357Y-70663642D01*
X23731785Y-70520785D01*
X23731785Y-70449357D01*
X23660357Y-70306500D01*
X23517500Y-70235071D01*
X23303214Y-70235071D01*
X23160357Y-70163642D01*
X23088928Y-70020785D01*
X23088928Y-69949357D01*
X23160357Y-69806500D01*
X23303214Y-69735071D01*
X23517500Y-69735071D01*
X23660357Y-69806500D01*
X25017500Y-70663642D02*
X24874642Y-70735071D01*
X24588928Y-70735071D01*
X24446071Y-70663642D01*
X24374642Y-70592214D01*
X24303214Y-70449357D01*
X24303214Y-70020785D01*
X24374642Y-69877928D01*
X24446071Y-69806500D01*
X24588928Y-69735071D01*
X24874642Y-69735071D01*
X25017500Y-69806500D01*
X33303214Y-70735071D02*
X32446071Y-70735071D01*
X32874642Y-70735071D02*
X32874642Y-69235071D01*
X32731785Y-69449357D01*
X32588928Y-69592214D01*
X32446071Y-69663642D01*
X41874642Y-69377928D02*
X41946071Y-69306500D01*
X42088928Y-69235071D01*
X42446071Y-69235071D01*
X42588928Y-69306500D01*
X42660357Y-69377928D01*
X42731785Y-69520785D01*
X42731785Y-69663642D01*
X42660357Y-69877928D01*
X41803214Y-70735071D01*
X42731785Y-70735071D01*
X51231785Y-69235071D02*
X52160357Y-69235071D01*
X51660357Y-69806500D01*
X51874642Y-69806500D01*
X52017499Y-69877928D01*
X52088928Y-69949357D01*
X52160357Y-70092214D01*
X52160357Y-70449357D01*
X52088928Y-70592214D01*
X52017499Y-70663642D01*
X51874642Y-70735071D01*
X51446071Y-70735071D01*
X51303214Y-70663642D01*
X51231785Y-70592214D01*
X61446071Y-69735071D02*
X61446071Y-70735071D01*
X61088928Y-69163642D02*
X60731785Y-70235071D01*
X61660357Y-70235071D01*
X70946071Y-69235071D02*
X70231785Y-69235071D01*
X70160357Y-69949357D01*
X70231785Y-69877928D01*
X70374642Y-69806500D01*
X70731785Y-69806500D01*
X70874642Y-69877928D01*
X70946071Y-69949357D01*
X71017499Y-70092214D01*
X71017499Y-70449357D01*
X70946071Y-70592214D01*
X70874642Y-70663642D01*
X70731785Y-70735071D01*
X70374642Y-70735071D01*
X70231785Y-70663642D01*
X70160357Y-70592214D01*
X80303214Y-69235071D02*
X80017499Y-69235071D01*
X79874642Y-69306500D01*
X79803214Y-69377928D01*
X79660357Y-69592214D01*
X79588928Y-69877928D01*
X79588928Y-70449357D01*
X79660357Y-70592214D01*
X79731785Y-70663642D01*
X79874642Y-70735071D01*
X80160357Y-70735071D01*
X80303214Y-70663642D01*
X80374642Y-70592214D01*
X80446071Y-70449357D01*
X80446071Y-70092214D01*
X80374642Y-69949357D01*
X80303214Y-69877928D01*
X80160357Y-69806500D01*
X79874642Y-69806500D01*
X79731785Y-69877928D01*
X79660357Y-69949357D01*
X79588928Y-70092214D01*
X88946071Y-69235071D02*
X89946071Y-69235071D01*
X89303214Y-70735071D01*
X98731785Y-69877928D02*
X98588928Y-69806500D01*
X98517500Y-69735071D01*
X98446071Y-69592214D01*
X98446071Y-69520785D01*
X98517500Y-69377928D01*
X98588928Y-69306500D01*
X98731785Y-69235071D01*
X99017500Y-69235071D01*
X99160357Y-69306500D01*
X99231785Y-69377928D01*
X99303214Y-69520785D01*
X99303214Y-69592214D01*
X99231785Y-69735071D01*
X99160357Y-69806500D01*
X99017500Y-69877928D01*
X98731785Y-69877928D01*
X98588928Y-69949357D01*
X98517500Y-70020785D01*
X98446071Y-70163642D01*
X98446071Y-70449357D01*
X98517500Y-70592214D01*
X98588928Y-70663642D01*
X98731785Y-70735071D01*
X99017500Y-70735071D01*
X99160357Y-70663642D01*
X99231785Y-70592214D01*
X99303214Y-70449357D01*
X99303214Y-70163642D01*
X99231785Y-70020785D01*
X99160357Y-69949357D01*
X99017500Y-69877928D01*
X108017500Y-70735071D02*
X108303214Y-70735071D01*
X108446071Y-70663642D01*
X108517500Y-70592214D01*
X108660357Y-70377928D01*
X108731785Y-70092214D01*
X108731785Y-69520785D01*
X108660357Y-69377928D01*
X108588928Y-69306500D01*
X108446071Y-69235071D01*
X108160357Y-69235071D01*
X108017500Y-69306500D01*
X107946071Y-69377928D01*
X107874642Y-69520785D01*
X107874642Y-69877928D01*
X107946071Y-70020785D01*
X108017500Y-70092214D01*
X108160357Y-70163642D01*
X108446071Y-70163642D01*
X108588928Y-70092214D01*
X108660357Y-70020785D01*
X108731785Y-69877928D01*
X117660357Y-69235071D02*
X117803214Y-69235071D01*
X117946071Y-69306500D01*
X118017500Y-69377928D01*
X118088928Y-69520785D01*
X118160357Y-69806500D01*
X118160357Y-70163642D01*
X118088928Y-70449357D01*
X118017500Y-70592214D01*
X117946071Y-70663642D01*
X117803214Y-70735071D01*
X117660357Y-70735071D01*
X117517500Y-70663642D01*
X117446071Y-70592214D01*
X117374642Y-70449357D01*
X117303214Y-70163642D01*
X117303214Y-69806500D01*
X117374642Y-69520785D01*
X117446071Y-69377928D01*
X117517500Y-69306500D01*
X117660357Y-69235071D01*
X125660357Y-70163642D02*
X126803214Y-70163642D01*
X136660357Y-69949357D02*
X137803214Y-69949357D01*
X137803214Y-70377928D02*
X136660357Y-70377928D01*
X147660357Y-70735071D02*
X147660357Y-69235071D01*
X147660357Y-69806500D02*
X147803214Y-69735071D01*
X148088928Y-69735071D01*
X148231785Y-69806500D01*
X148303214Y-69877928D01*
X148374642Y-70020785D01*
X148374642Y-70449357D01*
X148303214Y-70592214D01*
X148231785Y-70663642D01*
X148088928Y-70735071D01*
X147803214Y-70735071D01*
X147660357Y-70663642D01*
X149017500Y-70735071D02*
X149017500Y-69235071D01*
X149160357Y-70163642D02*
X149588928Y-70735071D01*
X149588928Y-69735071D02*
X149017500Y-70306500D01*
X150160357Y-70663642D02*
X150303214Y-70735071D01*
X150588928Y-70735071D01*
X150731785Y-70663642D01*
X150803214Y-70520785D01*
X150803214Y-70449357D01*
X150731785Y-70306500D01*
X150588928Y-70235071D01*
X150374642Y-70235071D01*
X150231785Y-70163642D01*
X150160357Y-70020785D01*
X150160357Y-69949357D01*
X150231785Y-69806500D01*
X150374642Y-69735071D01*
X150588928Y-69735071D01*
X150731785Y-69806500D01*
X151446071Y-69735071D02*
X151446071Y-71235071D01*
X151446071Y-69806500D02*
X151588928Y-69735071D01*
X151874642Y-69735071D01*
X152017500Y-69806500D01*
X152088928Y-69877928D01*
X152160357Y-70020785D01*
X152160357Y-70449357D01*
X152088928Y-70592214D01*
X152017500Y-70663642D01*
X151874642Y-70735071D01*
X151588928Y-70735071D01*
X151446071Y-70663642D01*
X139776523Y-55966380D02*
X139776523Y-54966380D01*
X140347952Y-55966380D01*
X140347952Y-54966380D01*
X140824142Y-54966380D02*
X140824142Y-55775904D01*
X140871761Y-55871142D01*
X140919380Y-55918761D01*
X141014619Y-55966380D01*
X141205095Y-55966380D01*
X141300333Y-55918761D01*
X141347952Y-55871142D01*
X141395571Y-55775904D01*
X141395571Y-54966380D01*
X141871761Y-55966380D02*
X141871761Y-54966380D01*
X142205095Y-55680666D01*
X142538428Y-54966380D01*
X142538428Y-55966380D01*
X144252714Y-55966380D02*
X143776523Y-55966380D01*
X143776523Y-54966380D01*
X144776523Y-54966380D02*
X144967000Y-54966380D01*
X145062238Y-55014000D01*
X145157476Y-55109238D01*
X145205095Y-55299714D01*
X145205095Y-55633047D01*
X145157476Y-55823523D01*
X145062238Y-55918761D01*
X144967000Y-55966380D01*
X144776523Y-55966380D01*
X144681285Y-55918761D01*
X144586047Y-55823523D01*
X144538428Y-55633047D01*
X144538428Y-55299714D01*
X144586047Y-55109238D01*
X144681285Y-55014000D01*
X144776523Y-54966380D01*
X146205095Y-55871142D02*
X146157476Y-55918761D01*
X146014619Y-55966380D01*
X145919380Y-55966380D01*
X145776523Y-55918761D01*
X145681285Y-55823523D01*
X145633666Y-55728285D01*
X145586047Y-55537809D01*
X145586047Y-55394952D01*
X145633666Y-55204476D01*
X145681285Y-55109238D01*
X145776523Y-55014000D01*
X145919380Y-54966380D01*
X146014619Y-54966380D01*
X146157476Y-55014000D01*
X146205095Y-55061619D01*
X146633666Y-55966380D02*
X146633666Y-54966380D01*
X147205095Y-55966380D02*
X146776523Y-55394952D01*
X147205095Y-54966380D02*
X146633666Y-55537809D01*
D11*
X61196342Y-116346219D02*
X61458247Y-117446219D01*
X61667771Y-116660504D01*
X61877295Y-117446219D01*
X62139200Y-116346219D01*
X62767771Y-116346219D02*
X62977295Y-116346219D01*
X63082057Y-116398600D01*
X63186819Y-116503361D01*
X63239200Y-116712885D01*
X63239200Y-117079552D01*
X63186819Y-117289076D01*
X63082057Y-117393838D01*
X62977295Y-117446219D01*
X62767771Y-117446219D01*
X62663009Y-117393838D01*
X62558247Y-117289076D01*
X62505866Y-117079552D01*
X62505866Y-116712885D01*
X62558247Y-116503361D01*
X62663009Y-116398600D01*
X62767771Y-116346219D01*
X64339200Y-117446219D02*
X63972533Y-116922409D01*
X63710628Y-117446219D02*
X63710628Y-116346219D01*
X64129676Y-116346219D01*
X64234438Y-116398600D01*
X64286819Y-116450980D01*
X64339200Y-116555742D01*
X64339200Y-116712885D01*
X64286819Y-116817647D01*
X64234438Y-116870028D01*
X64129676Y-116922409D01*
X63710628Y-116922409D01*
X64758247Y-117393838D02*
X64915390Y-117446219D01*
X65177295Y-117446219D01*
X65282057Y-117393838D01*
X65334438Y-117341457D01*
X65386819Y-117236695D01*
X65386819Y-117131933D01*
X65334438Y-117027171D01*
X65282057Y-116974790D01*
X65177295Y-116922409D01*
X64967771Y-116870028D01*
X64863009Y-116817647D01*
X64810628Y-116765266D01*
X64758247Y-116660504D01*
X64758247Y-116555742D01*
X64810628Y-116450980D01*
X64863009Y-116398600D01*
X64967771Y-116346219D01*
X65229676Y-116346219D01*
X65386819Y-116398600D01*
X65701104Y-116346219D02*
X66329676Y-116346219D01*
X66015390Y-117446219D02*
X66015390Y-116346219D01*
X66696342Y-117341457D02*
X66748723Y-117393838D01*
X66696342Y-117446219D01*
X66643961Y-117393838D01*
X66696342Y-117341457D01*
X66696342Y-117446219D01*
X61301104Y-119217219D02*
X61301104Y-118117219D01*
X61929676Y-119217219D02*
X61458247Y-118588647D01*
X61929676Y-118117219D02*
X61301104Y-118745790D01*
X62401104Y-118641028D02*
X62767771Y-118641028D01*
X62924914Y-119217219D02*
X62401104Y-119217219D01*
X62401104Y-118117219D01*
X62924914Y-118117219D01*
X63605866Y-118693409D02*
X63605866Y-119217219D01*
X63239200Y-118117219D02*
X63605866Y-118693409D01*
X63972533Y-118117219D01*
X64705866Y-118641028D02*
X64863009Y-118693409D01*
X64915390Y-118745790D01*
X64967771Y-118850552D01*
X64967771Y-119007695D01*
X64915390Y-119112457D01*
X64863009Y-119164838D01*
X64758247Y-119217219D01*
X64339200Y-119217219D01*
X64339200Y-118117219D01*
X64705866Y-118117219D01*
X64810628Y-118169600D01*
X64863009Y-118221980D01*
X64915390Y-118326742D01*
X64915390Y-118431504D01*
X64863009Y-118536266D01*
X64810628Y-118588647D01*
X64705866Y-118641028D01*
X64339200Y-118641028D01*
X65648723Y-118117219D02*
X65858247Y-118117219D01*
X65963009Y-118169600D01*
X66067771Y-118274361D01*
X66120152Y-118483885D01*
X66120152Y-118850552D01*
X66067771Y-119060076D01*
X65963009Y-119164838D01*
X65858247Y-119217219D01*
X65648723Y-119217219D01*
X65543961Y-119164838D01*
X65439200Y-119060076D01*
X65386819Y-118850552D01*
X65386819Y-118483885D01*
X65439200Y-118274361D01*
X65543961Y-118169600D01*
X65648723Y-118117219D01*
X66539200Y-118902933D02*
X67063009Y-118902933D01*
X66434438Y-119217219D02*
X66801104Y-118117219D01*
X67167771Y-119217219D01*
X68163009Y-119217219D02*
X67796342Y-118693409D01*
X67534438Y-119217219D02*
X67534438Y-118117219D01*
X67953485Y-118117219D01*
X68058247Y-118169600D01*
X68110628Y-118221980D01*
X68163009Y-118326742D01*
X68163009Y-118483885D01*
X68110628Y-118588647D01*
X68058247Y-118641028D01*
X67953485Y-118693409D01*
X67534438Y-118693409D01*
X68634438Y-119217219D02*
X68634438Y-118117219D01*
X68896342Y-118117219D01*
X69053485Y-118169600D01*
X69158247Y-118274361D01*
X69210628Y-118379123D01*
X69263009Y-118588647D01*
X69263009Y-118745790D01*
X69210628Y-118955314D01*
X69158247Y-119060076D01*
X69053485Y-119164838D01*
X68896342Y-119217219D01*
X68634438Y-119217219D01*
X69734438Y-119112457D02*
X69786819Y-119164838D01*
X69734438Y-119217219D01*
X69682057Y-119164838D01*
X69734438Y-119112457D01*
X69734438Y-119217219D01*
X61301104Y-120412028D02*
X61667771Y-120412028D01*
X61824914Y-120988219D02*
X61301104Y-120988219D01*
X61301104Y-119888219D01*
X61824914Y-119888219D01*
X62139200Y-119888219D02*
X62505866Y-120988219D01*
X62872533Y-119888219D01*
X63239200Y-120412028D02*
X63605866Y-120412028D01*
X63763009Y-120988219D02*
X63239200Y-120988219D01*
X63239200Y-119888219D01*
X63763009Y-119888219D01*
X64863009Y-120988219D02*
X64496342Y-120464409D01*
X64234438Y-120988219D02*
X64234438Y-119888219D01*
X64653485Y-119888219D01*
X64758247Y-119940600D01*
X64810628Y-119992980D01*
X64863009Y-120097742D01*
X64863009Y-120254885D01*
X64810628Y-120359647D01*
X64758247Y-120412028D01*
X64653485Y-120464409D01*
X64234438Y-120464409D01*
X65334438Y-120883457D02*
X65386819Y-120935838D01*
X65334438Y-120988219D01*
X65282057Y-120935838D01*
X65334438Y-120883457D01*
X65334438Y-120988219D01*
D10*
X58837714Y-59681142D02*
X58790095Y-59728761D01*
X58647238Y-59776380D01*
X58552000Y-59776380D01*
X58409142Y-59728761D01*
X58313904Y-59633523D01*
X58266285Y-59538285D01*
X58218666Y-59347809D01*
X58218666Y-59204952D01*
X58266285Y-59014476D01*
X58313904Y-58919238D01*
X58409142Y-58824000D01*
X58552000Y-58776380D01*
X58647238Y-58776380D01*
X58790095Y-58824000D01*
X58837714Y-58871619D01*
X59456761Y-58776380D02*
X59647238Y-58776380D01*
X59742476Y-58824000D01*
X59837714Y-58919238D01*
X59885333Y-59109714D01*
X59885333Y-59443047D01*
X59837714Y-59633523D01*
X59742476Y-59728761D01*
X59647238Y-59776380D01*
X59456761Y-59776380D01*
X59361523Y-59728761D01*
X59266285Y-59633523D01*
X59218666Y-59443047D01*
X59218666Y-59109714D01*
X59266285Y-58919238D01*
X59361523Y-58824000D01*
X59456761Y-58776380D01*
X60790095Y-59776380D02*
X60313904Y-59776380D01*
X60313904Y-58776380D01*
X61123428Y-58776380D02*
X61123428Y-59585904D01*
X61171047Y-59681142D01*
X61218666Y-59728761D01*
X61313904Y-59776380D01*
X61504380Y-59776380D01*
X61599619Y-59728761D01*
X61647238Y-59681142D01*
X61694857Y-59585904D01*
X61694857Y-58776380D01*
X62171047Y-59776380D02*
X62171047Y-58776380D01*
X62504380Y-59490666D01*
X62837714Y-58776380D01*
X62837714Y-59776380D01*
X63313904Y-59776380D02*
X63313904Y-58776380D01*
X63885333Y-59776380D01*
X63885333Y-58776380D01*
X64313904Y-59728761D02*
X64456761Y-59776380D01*
X64694857Y-59776380D01*
X64790095Y-59728761D01*
X64837714Y-59681142D01*
X64885333Y-59585904D01*
X64885333Y-59490666D01*
X64837714Y-59395428D01*
X64790095Y-59347809D01*
X64694857Y-59300190D01*
X64504380Y-59252571D01*
X64409142Y-59204952D01*
X64361523Y-59157333D01*
X64313904Y-59062095D01*
X64313904Y-58966857D01*
X64361523Y-58871619D01*
X64409142Y-58824000D01*
X64504380Y-58776380D01*
X64742476Y-58776380D01*
X64885333Y-58824000D01*
X118472238Y-55871142D02*
X118424619Y-55918761D01*
X118281761Y-55966380D01*
X118186523Y-55966380D01*
X118043666Y-55918761D01*
X117948428Y-55823523D01*
X117900809Y-55728285D01*
X117853190Y-55537809D01*
X117853190Y-55394952D01*
X117900809Y-55204476D01*
X117948428Y-55109238D01*
X118043666Y-55014000D01*
X118186523Y-54966380D01*
X118281761Y-54966380D01*
X118424619Y-55014000D01*
X118472238Y-55061619D01*
X118853190Y-55680666D02*
X119329380Y-55680666D01*
X118757952Y-55966380D02*
X119091285Y-54966380D01*
X119424619Y-55966380D01*
X119757952Y-55966380D02*
X119757952Y-54966380D01*
X120138904Y-54966380D01*
X120234142Y-55014000D01*
X120281761Y-55061619D01*
X120329380Y-55156857D01*
X120329380Y-55299714D01*
X120281761Y-55394952D01*
X120234142Y-55442571D01*
X120138904Y-55490190D01*
X119757952Y-55490190D01*
X120710333Y-55918761D02*
X120853190Y-55966380D01*
X121091285Y-55966380D01*
X121186523Y-55918761D01*
X121234142Y-55871142D01*
X121281761Y-55775904D01*
X121281761Y-55680666D01*
X121234142Y-55585428D01*
X121186523Y-55537809D01*
X121091285Y-55490190D01*
X120900809Y-55442571D01*
X120805571Y-55394952D01*
X120757952Y-55347333D01*
X120710333Y-55252095D01*
X120710333Y-55156857D01*
X120757952Y-55061619D01*
X120805571Y-55014000D01*
X120900809Y-54966380D01*
X121138904Y-54966380D01*
X121281761Y-55014000D01*
X122948428Y-55966380D02*
X122472238Y-55966380D01*
X122472238Y-54966380D01*
X123472238Y-54966380D02*
X123662714Y-54966380D01*
X123757952Y-55014000D01*
X123853190Y-55109238D01*
X123900809Y-55299714D01*
X123900809Y-55633047D01*
X123853190Y-55823523D01*
X123757952Y-55918761D01*
X123662714Y-55966380D01*
X123472238Y-55966380D01*
X123377000Y-55918761D01*
X123281761Y-55823523D01*
X123234142Y-55633047D01*
X123234142Y-55299714D01*
X123281761Y-55109238D01*
X123377000Y-55014000D01*
X123472238Y-54966380D01*
X124900809Y-55871142D02*
X124853190Y-55918761D01*
X124710333Y-55966380D01*
X124615095Y-55966380D01*
X124472238Y-55918761D01*
X124377000Y-55823523D01*
X124329380Y-55728285D01*
X124281761Y-55537809D01*
X124281761Y-55394952D01*
X124329380Y-55204476D01*
X124377000Y-55109238D01*
X124472238Y-55014000D01*
X124615095Y-54966380D01*
X124710333Y-54966380D01*
X124853190Y-55014000D01*
X124900809Y-55061619D01*
X125329380Y-55966380D02*
X125329380Y-54966380D01*
X125900809Y-55966380D02*
X125472238Y-55394952D01*
X125900809Y-54966380D02*
X125329380Y-55537809D01*
X124605357Y-95482214D02*
X124676785Y-95553642D01*
X124605357Y-95625071D01*
X124533928Y-95553642D01*
X124605357Y-95482214D01*
X124605357Y-95625071D01*
X124605357Y-94696500D02*
X124676785Y-94767928D01*
X124605357Y-94839357D01*
X124533928Y-94767928D01*
X124605357Y-94696500D01*
X124605357Y-94839357D01*
X133748214Y-94196500D02*
X133748214Y-94125071D01*
X133819642Y-93982214D01*
X133891071Y-93910785D01*
X133176785Y-94196500D02*
X133176785Y-94125071D01*
X133248214Y-93982214D01*
X133319642Y-93910785D01*
X26962500Y-97968642D02*
X26819642Y-98040071D01*
X26533928Y-98040071D01*
X26391071Y-97968642D01*
X26319642Y-97897214D01*
X26248214Y-97754357D01*
X26248214Y-97325785D01*
X26319642Y-97182928D01*
X26391071Y-97111500D01*
X26533928Y-97040071D01*
X26819642Y-97040071D01*
X26962500Y-97111500D01*
X28248214Y-98040071D02*
X28248214Y-97254357D01*
X28176785Y-97111500D01*
X28033928Y-97040071D01*
X27748214Y-97040071D01*
X27605357Y-97111500D01*
X28248214Y-97968642D02*
X28105357Y-98040071D01*
X27748214Y-98040071D01*
X27605357Y-97968642D01*
X27533928Y-97825785D01*
X27533928Y-97682928D01*
X27605357Y-97540071D01*
X27748214Y-97468642D01*
X28105357Y-97468642D01*
X28248214Y-97397214D01*
X28962500Y-97040071D02*
X28962500Y-98540071D01*
X28962500Y-97111500D02*
X29105357Y-97040071D01*
X29391071Y-97040071D01*
X29533928Y-97111500D01*
X29605357Y-97182928D01*
X29676785Y-97325785D01*
X29676785Y-97754357D01*
X29605357Y-97897214D01*
X29533928Y-97968642D01*
X29391071Y-98040071D01*
X29105357Y-98040071D01*
X28962500Y-97968642D01*
X40105357Y-98040071D02*
X40105357Y-97254357D01*
X40033928Y-97111500D01*
X39891071Y-97040071D01*
X39605357Y-97040071D01*
X39462499Y-97111500D01*
X40105357Y-97968642D02*
X39962499Y-98040071D01*
X39605357Y-98040071D01*
X39462499Y-97968642D01*
X39391071Y-97825785D01*
X39391071Y-97682928D01*
X39462499Y-97540071D01*
X39605357Y-97468642D01*
X39962499Y-97468642D01*
X40105357Y-97397214D01*
X48748214Y-97968642D02*
X48891071Y-98040071D01*
X49176785Y-98040071D01*
X49319642Y-97968642D01*
X49391071Y-97825785D01*
X49391071Y-97754357D01*
X49319642Y-97611500D01*
X49176785Y-97540071D01*
X48962499Y-97540071D01*
X48819642Y-97468642D01*
X48748214Y-97325785D01*
X48748214Y-97254357D01*
X48819642Y-97111500D01*
X48962499Y-97040071D01*
X49176785Y-97040071D01*
X49319642Y-97111500D01*
X58676785Y-98040071D02*
X58676785Y-96540071D01*
X58676785Y-97968642D02*
X58533928Y-98040071D01*
X58248214Y-98040071D01*
X58105357Y-97968642D01*
X58033928Y-97897214D01*
X57962499Y-97754357D01*
X57962499Y-97325785D01*
X58033928Y-97182928D01*
X58105357Y-97111500D01*
X58248214Y-97040071D01*
X58533928Y-97040071D01*
X58676785Y-97111500D01*
X67176785Y-97040071D02*
X67748214Y-97040071D01*
X67391071Y-98040071D02*
X67391071Y-96754357D01*
X67462499Y-96611500D01*
X67605357Y-96540071D01*
X67748214Y-96540071D01*
X78033928Y-97040071D02*
X78033928Y-98254357D01*
X77962499Y-98397214D01*
X77891071Y-98468642D01*
X77748214Y-98540071D01*
X77533928Y-98540071D01*
X77391071Y-98468642D01*
X78033928Y-97968642D02*
X77891071Y-98040071D01*
X77605357Y-98040071D01*
X77462499Y-97968642D01*
X77391071Y-97897214D01*
X77319642Y-97754357D01*
X77319642Y-97325785D01*
X77391071Y-97182928D01*
X77462499Y-97111500D01*
X77605357Y-97040071D01*
X77891071Y-97040071D01*
X78033928Y-97111500D01*
X86748214Y-98040071D02*
X86748214Y-96540071D01*
X87391071Y-98040071D02*
X87391071Y-97254357D01*
X87319642Y-97111500D01*
X87176785Y-97040071D01*
X86962499Y-97040071D01*
X86819642Y-97111500D01*
X86748214Y-97182928D01*
X96105357Y-97040071D02*
X96105357Y-98325785D01*
X96033928Y-98468642D01*
X95891071Y-98540071D01*
X95819642Y-98540071D01*
X96105357Y-96540071D02*
X96033928Y-96611500D01*
X96105357Y-96682928D01*
X96176785Y-96611500D01*
X96105357Y-96540071D01*
X96105357Y-96682928D01*
X105962500Y-98040071D02*
X105962500Y-96540071D01*
X106105357Y-97468642D02*
X106533928Y-98040071D01*
X106533928Y-97040071D02*
X105962500Y-97611500D01*
X115391071Y-98040071D02*
X115248214Y-97968642D01*
X115176785Y-97825785D01*
X115176785Y-96540071D01*
X125176785Y-97968642D02*
X125176785Y-98040071D01*
X125105357Y-98182928D01*
X125033928Y-98254357D01*
X125105357Y-97111500D02*
X125176785Y-97182928D01*
X125105357Y-97254357D01*
X125033928Y-97182928D01*
X125105357Y-97111500D01*
X125105357Y-97254357D01*
X133748214Y-96611500D02*
X133748214Y-96540071D01*
X133819642Y-96397214D01*
X133891071Y-96325785D01*
X148819642Y-97968642D02*
X148676785Y-98040071D01*
X148391071Y-98040071D01*
X148248214Y-97968642D01*
X148176785Y-97825785D01*
X148176785Y-97254357D01*
X148248214Y-97111500D01*
X148391071Y-97040071D01*
X148676785Y-97040071D01*
X148819642Y-97111500D01*
X148891071Y-97254357D01*
X148891071Y-97397214D01*
X148176785Y-97540071D01*
X149533928Y-97040071D02*
X149533928Y-98040071D01*
X149533928Y-97182928D02*
X149605357Y-97111500D01*
X149748214Y-97040071D01*
X149962500Y-97040071D01*
X150105357Y-97111500D01*
X150176785Y-97254357D01*
X150176785Y-98040071D01*
X150676785Y-97040071D02*
X151248214Y-97040071D01*
X150891071Y-96540071D02*
X150891071Y-97825785D01*
X150962500Y-97968642D01*
X151105357Y-98040071D01*
X151248214Y-98040071D01*
X31715095Y-59776380D02*
X31381761Y-59300190D01*
X31143666Y-59776380D02*
X31143666Y-58776380D01*
X31524619Y-58776380D01*
X31619857Y-58824000D01*
X31667476Y-58871619D01*
X31715095Y-58966857D01*
X31715095Y-59109714D01*
X31667476Y-59204952D01*
X31619857Y-59252571D01*
X31524619Y-59300190D01*
X31143666Y-59300190D01*
X32334142Y-58776380D02*
X32524619Y-58776380D01*
X32619857Y-58824000D01*
X32715095Y-58919238D01*
X32762714Y-59109714D01*
X32762714Y-59443047D01*
X32715095Y-59633523D01*
X32619857Y-59728761D01*
X32524619Y-59776380D01*
X32334142Y-59776380D01*
X32238904Y-59728761D01*
X32143666Y-59633523D01*
X32096047Y-59443047D01*
X32096047Y-59109714D01*
X32143666Y-58919238D01*
X32238904Y-58824000D01*
X32334142Y-58776380D01*
X33096047Y-58776380D02*
X33334142Y-59776380D01*
X33524619Y-59062095D01*
X33715095Y-59776380D01*
X33953190Y-58776380D01*
X34286523Y-59728761D02*
X34429380Y-59776380D01*
X34667476Y-59776380D01*
X34762714Y-59728761D01*
X34810333Y-59681142D01*
X34857952Y-59585904D01*
X34857952Y-59490666D01*
X34810333Y-59395428D01*
X34762714Y-59347809D01*
X34667476Y-59300190D01*
X34477000Y-59252571D01*
X34381761Y-59204952D01*
X34334142Y-59157333D01*
X34286523Y-59062095D01*
X34286523Y-58966857D01*
X34334142Y-58871619D01*
X34381761Y-58824000D01*
X34477000Y-58776380D01*
X34715095Y-58776380D01*
X34857952Y-58824000D01*
X127743428Y-55918761D02*
X127886285Y-55966380D01*
X128124380Y-55966380D01*
X128219619Y-55918761D01*
X128267238Y-55871142D01*
X128314857Y-55775904D01*
X128314857Y-55680666D01*
X128267238Y-55585428D01*
X128219619Y-55537809D01*
X128124380Y-55490190D01*
X127933904Y-55442571D01*
X127838666Y-55394952D01*
X127791047Y-55347333D01*
X127743428Y-55252095D01*
X127743428Y-55156857D01*
X127791047Y-55061619D01*
X127838666Y-55014000D01*
X127933904Y-54966380D01*
X128172000Y-54966380D01*
X128314857Y-55014000D01*
X129314857Y-55871142D02*
X129267238Y-55918761D01*
X129124380Y-55966380D01*
X129029142Y-55966380D01*
X128886285Y-55918761D01*
X128791047Y-55823523D01*
X128743428Y-55728285D01*
X128695809Y-55537809D01*
X128695809Y-55394952D01*
X128743428Y-55204476D01*
X128791047Y-55109238D01*
X128886285Y-55014000D01*
X129029142Y-54966380D01*
X129124380Y-54966380D01*
X129267238Y-55014000D01*
X129314857Y-55061619D01*
X130314857Y-55966380D02*
X129981523Y-55490190D01*
X129743428Y-55966380D02*
X129743428Y-54966380D01*
X130124380Y-54966380D01*
X130219619Y-55014000D01*
X130267238Y-55061619D01*
X130314857Y-55156857D01*
X130314857Y-55299714D01*
X130267238Y-55394952D01*
X130219619Y-55442571D01*
X130124380Y-55490190D01*
X129743428Y-55490190D01*
X130933904Y-54966380D02*
X131124380Y-54966380D01*
X131219619Y-55014000D01*
X131314857Y-55109238D01*
X131362476Y-55299714D01*
X131362476Y-55633047D01*
X131314857Y-55823523D01*
X131219619Y-55918761D01*
X131124380Y-55966380D01*
X130933904Y-55966380D01*
X130838666Y-55918761D01*
X130743428Y-55823523D01*
X130695809Y-55633047D01*
X130695809Y-55299714D01*
X130743428Y-55109238D01*
X130838666Y-55014000D01*
X130933904Y-54966380D01*
X132267238Y-55966380D02*
X131791047Y-55966380D01*
X131791047Y-54966380D01*
X133076761Y-55966380D02*
X132600571Y-55966380D01*
X132600571Y-54966380D01*
X134648190Y-55966380D02*
X134172000Y-55966380D01*
X134172000Y-54966380D01*
X135172000Y-54966380D02*
X135362476Y-54966380D01*
X135457714Y-55014000D01*
X135552952Y-55109238D01*
X135600571Y-55299714D01*
X135600571Y-55633047D01*
X135552952Y-55823523D01*
X135457714Y-55918761D01*
X135362476Y-55966380D01*
X135172000Y-55966380D01*
X135076761Y-55918761D01*
X134981523Y-55823523D01*
X134933904Y-55633047D01*
X134933904Y-55299714D01*
X134981523Y-55109238D01*
X135076761Y-55014000D01*
X135172000Y-54966380D01*
X136600571Y-55871142D02*
X136552952Y-55918761D01*
X136410095Y-55966380D01*
X136314857Y-55966380D01*
X136172000Y-55918761D01*
X136076761Y-55823523D01*
X136029142Y-55728285D01*
X135981523Y-55537809D01*
X135981523Y-55394952D01*
X136029142Y-55204476D01*
X136076761Y-55109238D01*
X136172000Y-55014000D01*
X136314857Y-54966380D01*
X136410095Y-54966380D01*
X136552952Y-55014000D01*
X136600571Y-55061619D01*
X137029142Y-55966380D02*
X137029142Y-54966380D01*
X137600571Y-55966380D02*
X137172000Y-55394952D01*
X137600571Y-54966380D02*
X137029142Y-55537809D01*
%TO.C,S4*%
X51820095Y-65833761D02*
X51962952Y-65881380D01*
X52201047Y-65881380D01*
X52296285Y-65833761D01*
X52343904Y-65786142D01*
X52391523Y-65690904D01*
X52391523Y-65595666D01*
X52343904Y-65500428D01*
X52296285Y-65452809D01*
X52201047Y-65405190D01*
X52010571Y-65357571D01*
X51915333Y-65309952D01*
X51867714Y-65262333D01*
X51820095Y-65167095D01*
X51820095Y-65071857D01*
X51867714Y-64976619D01*
X51915333Y-64929000D01*
X52010571Y-64881380D01*
X52248666Y-64881380D01*
X52391523Y-64929000D01*
X53248666Y-65214714D02*
X53248666Y-65881380D01*
X53010571Y-64833761D02*
X52772476Y-65548047D01*
X53391523Y-65548047D01*
%TO.C,S5*%
X61270095Y-65833761D02*
X61412952Y-65881380D01*
X61651047Y-65881380D01*
X61746285Y-65833761D01*
X61793904Y-65786142D01*
X61841523Y-65690904D01*
X61841523Y-65595666D01*
X61793904Y-65500428D01*
X61746285Y-65452809D01*
X61651047Y-65405190D01*
X61460571Y-65357571D01*
X61365333Y-65309952D01*
X61317714Y-65262333D01*
X61270095Y-65167095D01*
X61270095Y-65071857D01*
X61317714Y-64976619D01*
X61365333Y-64929000D01*
X61460571Y-64881380D01*
X61698666Y-64881380D01*
X61841523Y-64929000D01*
X62746285Y-64881380D02*
X62270095Y-64881380D01*
X62222476Y-65357571D01*
X62270095Y-65309952D01*
X62365333Y-65262333D01*
X62603428Y-65262333D01*
X62698666Y-65309952D01*
X62746285Y-65357571D01*
X62793904Y-65452809D01*
X62793904Y-65690904D01*
X62746285Y-65786142D01*
X62698666Y-65833761D01*
X62603428Y-65881380D01*
X62365333Y-65881380D01*
X62270095Y-65833761D01*
X62222476Y-65786142D01*
%TO.C,S6*%
X70720095Y-65833761D02*
X70862952Y-65881380D01*
X71101047Y-65881380D01*
X71196285Y-65833761D01*
X71243904Y-65786142D01*
X71291523Y-65690904D01*
X71291523Y-65595666D01*
X71243904Y-65500428D01*
X71196285Y-65452809D01*
X71101047Y-65405190D01*
X70910571Y-65357571D01*
X70815333Y-65309952D01*
X70767714Y-65262333D01*
X70720095Y-65167095D01*
X70720095Y-65071857D01*
X70767714Y-64976619D01*
X70815333Y-64929000D01*
X70910571Y-64881380D01*
X71148666Y-64881380D01*
X71291523Y-64929000D01*
X72148666Y-64881380D02*
X71958190Y-64881380D01*
X71862952Y-64929000D01*
X71815333Y-64976619D01*
X71720095Y-65119476D01*
X71672476Y-65309952D01*
X71672476Y-65690904D01*
X71720095Y-65786142D01*
X71767714Y-65833761D01*
X71862952Y-65881380D01*
X72053428Y-65881380D01*
X72148666Y-65833761D01*
X72196285Y-65786142D01*
X72243904Y-65690904D01*
X72243904Y-65452809D01*
X72196285Y-65357571D01*
X72148666Y-65309952D01*
X72053428Y-65262333D01*
X71862952Y-65262333D01*
X71767714Y-65309952D01*
X71720095Y-65357571D01*
X71672476Y-65452809D01*
%TO.C,S7*%
X80170095Y-65833761D02*
X80312952Y-65881380D01*
X80551047Y-65881380D01*
X80646285Y-65833761D01*
X80693904Y-65786142D01*
X80741523Y-65690904D01*
X80741523Y-65595666D01*
X80693904Y-65500428D01*
X80646285Y-65452809D01*
X80551047Y-65405190D01*
X80360571Y-65357571D01*
X80265333Y-65309952D01*
X80217714Y-65262333D01*
X80170095Y-65167095D01*
X80170095Y-65071857D01*
X80217714Y-64976619D01*
X80265333Y-64929000D01*
X80360571Y-64881380D01*
X80598666Y-64881380D01*
X80741523Y-64929000D01*
X81074857Y-64881380D02*
X81741523Y-64881380D01*
X81312952Y-65881380D01*
%TO.C,S8*%
X89620095Y-65833761D02*
X89762952Y-65881380D01*
X90001047Y-65881380D01*
X90096285Y-65833761D01*
X90143904Y-65786142D01*
X90191523Y-65690904D01*
X90191523Y-65595666D01*
X90143904Y-65500428D01*
X90096285Y-65452809D01*
X90001047Y-65405190D01*
X89810571Y-65357571D01*
X89715333Y-65309952D01*
X89667714Y-65262333D01*
X89620095Y-65167095D01*
X89620095Y-65071857D01*
X89667714Y-64976619D01*
X89715333Y-64929000D01*
X89810571Y-64881380D01*
X90048666Y-64881380D01*
X90191523Y-64929000D01*
X90762952Y-65309952D02*
X90667714Y-65262333D01*
X90620095Y-65214714D01*
X90572476Y-65119476D01*
X90572476Y-65071857D01*
X90620095Y-64976619D01*
X90667714Y-64929000D01*
X90762952Y-64881380D01*
X90953428Y-64881380D01*
X91048666Y-64929000D01*
X91096285Y-64976619D01*
X91143904Y-65071857D01*
X91143904Y-65119476D01*
X91096285Y-65214714D01*
X91048666Y-65262333D01*
X90953428Y-65309952D01*
X90762952Y-65309952D01*
X90667714Y-65357571D01*
X90620095Y-65405190D01*
X90572476Y-65500428D01*
X90572476Y-65690904D01*
X90620095Y-65786142D01*
X90667714Y-65833761D01*
X90762952Y-65881380D01*
X90953428Y-65881380D01*
X91048666Y-65833761D01*
X91096285Y-65786142D01*
X91143904Y-65690904D01*
X91143904Y-65500428D01*
X91096285Y-65405190D01*
X91048666Y-65357571D01*
X90953428Y-65309952D01*
%TO.C,S9*%
X99070095Y-65833761D02*
X99212952Y-65881380D01*
X99451047Y-65881380D01*
X99546285Y-65833761D01*
X99593904Y-65786142D01*
X99641523Y-65690904D01*
X99641523Y-65595666D01*
X99593904Y-65500428D01*
X99546285Y-65452809D01*
X99451047Y-65405190D01*
X99260571Y-65357571D01*
X99165333Y-65309952D01*
X99117714Y-65262333D01*
X99070095Y-65167095D01*
X99070095Y-65071857D01*
X99117714Y-64976619D01*
X99165333Y-64929000D01*
X99260571Y-64881380D01*
X99498666Y-64881380D01*
X99641523Y-64929000D01*
X100117714Y-65881380D02*
X100308190Y-65881380D01*
X100403428Y-65833761D01*
X100451047Y-65786142D01*
X100546285Y-65643285D01*
X100593904Y-65452809D01*
X100593904Y-65071857D01*
X100546285Y-64976619D01*
X100498666Y-64929000D01*
X100403428Y-64881380D01*
X100212952Y-64881380D01*
X100117714Y-64929000D01*
X100070095Y-64976619D01*
X100022476Y-65071857D01*
X100022476Y-65309952D01*
X100070095Y-65405190D01*
X100117714Y-65452809D01*
X100212952Y-65500428D01*
X100403428Y-65500428D01*
X100498666Y-65452809D01*
X100546285Y-65405190D01*
X100593904Y-65309952D01*
%TO.C,S10*%
X108043904Y-65833761D02*
X108186761Y-65881380D01*
X108424857Y-65881380D01*
X108520095Y-65833761D01*
X108567714Y-65786142D01*
X108615333Y-65690904D01*
X108615333Y-65595666D01*
X108567714Y-65500428D01*
X108520095Y-65452809D01*
X108424857Y-65405190D01*
X108234380Y-65357571D01*
X108139142Y-65309952D01*
X108091523Y-65262333D01*
X108043904Y-65167095D01*
X108043904Y-65071857D01*
X108091523Y-64976619D01*
X108139142Y-64929000D01*
X108234380Y-64881380D01*
X108472476Y-64881380D01*
X108615333Y-64929000D01*
X109567714Y-65881380D02*
X108996285Y-65881380D01*
X109282000Y-65881380D02*
X109282000Y-64881380D01*
X109186761Y-65024238D01*
X109091523Y-65119476D01*
X108996285Y-65167095D01*
X110186761Y-64881380D02*
X110282000Y-64881380D01*
X110377238Y-64929000D01*
X110424857Y-64976619D01*
X110472476Y-65071857D01*
X110520095Y-65262333D01*
X110520095Y-65500428D01*
X110472476Y-65690904D01*
X110424857Y-65786142D01*
X110377238Y-65833761D01*
X110282000Y-65881380D01*
X110186761Y-65881380D01*
X110091523Y-65833761D01*
X110043904Y-65786142D01*
X109996285Y-65690904D01*
X109948666Y-65500428D01*
X109948666Y-65262333D01*
X109996285Y-65071857D01*
X110043904Y-64976619D01*
X110091523Y-64929000D01*
X110186761Y-64881380D01*
%TO.C,S11*%
X117493904Y-65833761D02*
X117636761Y-65881380D01*
X117874857Y-65881380D01*
X117970095Y-65833761D01*
X118017714Y-65786142D01*
X118065333Y-65690904D01*
X118065333Y-65595666D01*
X118017714Y-65500428D01*
X117970095Y-65452809D01*
X117874857Y-65405190D01*
X117684380Y-65357571D01*
X117589142Y-65309952D01*
X117541523Y-65262333D01*
X117493904Y-65167095D01*
X117493904Y-65071857D01*
X117541523Y-64976619D01*
X117589142Y-64929000D01*
X117684380Y-64881380D01*
X117922476Y-64881380D01*
X118065333Y-64929000D01*
X119017714Y-65881380D02*
X118446285Y-65881380D01*
X118732000Y-65881380D02*
X118732000Y-64881380D01*
X118636761Y-65024238D01*
X118541523Y-65119476D01*
X118446285Y-65167095D01*
X119970095Y-65881380D02*
X119398666Y-65881380D01*
X119684380Y-65881380D02*
X119684380Y-64881380D01*
X119589142Y-65024238D01*
X119493904Y-65119476D01*
X119398666Y-65167095D01*
%TO.C,S12*%
X126943904Y-65833761D02*
X127086761Y-65881380D01*
X127324857Y-65881380D01*
X127420095Y-65833761D01*
X127467714Y-65786142D01*
X127515333Y-65690904D01*
X127515333Y-65595666D01*
X127467714Y-65500428D01*
X127420095Y-65452809D01*
X127324857Y-65405190D01*
X127134380Y-65357571D01*
X127039142Y-65309952D01*
X126991523Y-65262333D01*
X126943904Y-65167095D01*
X126943904Y-65071857D01*
X126991523Y-64976619D01*
X127039142Y-64929000D01*
X127134380Y-64881380D01*
X127372476Y-64881380D01*
X127515333Y-64929000D01*
X128467714Y-65881380D02*
X127896285Y-65881380D01*
X128182000Y-65881380D02*
X128182000Y-64881380D01*
X128086761Y-65024238D01*
X127991523Y-65119476D01*
X127896285Y-65167095D01*
X128848666Y-64976619D02*
X128896285Y-64929000D01*
X128991523Y-64881380D01*
X129229619Y-64881380D01*
X129324857Y-64929000D01*
X129372476Y-64976619D01*
X129420095Y-65071857D01*
X129420095Y-65167095D01*
X129372476Y-65309952D01*
X128801047Y-65881380D01*
X129420095Y-65881380D01*
%TO.C,S13*%
X136393904Y-65833761D02*
X136536761Y-65881380D01*
X136774857Y-65881380D01*
X136870095Y-65833761D01*
X136917714Y-65786142D01*
X136965333Y-65690904D01*
X136965333Y-65595666D01*
X136917714Y-65500428D01*
X136870095Y-65452809D01*
X136774857Y-65405190D01*
X136584380Y-65357571D01*
X136489142Y-65309952D01*
X136441523Y-65262333D01*
X136393904Y-65167095D01*
X136393904Y-65071857D01*
X136441523Y-64976619D01*
X136489142Y-64929000D01*
X136584380Y-64881380D01*
X136822476Y-64881380D01*
X136965333Y-64929000D01*
X137917714Y-65881380D02*
X137346285Y-65881380D01*
X137632000Y-65881380D02*
X137632000Y-64881380D01*
X137536761Y-65024238D01*
X137441523Y-65119476D01*
X137346285Y-65167095D01*
X138251047Y-64881380D02*
X138870095Y-64881380D01*
X138536761Y-65262333D01*
X138679619Y-65262333D01*
X138774857Y-65309952D01*
X138822476Y-65357571D01*
X138870095Y-65452809D01*
X138870095Y-65690904D01*
X138822476Y-65786142D01*
X138774857Y-65833761D01*
X138679619Y-65881380D01*
X138393904Y-65881380D01*
X138298666Y-65833761D01*
X138251047Y-65786142D01*
%TO.C,S14*%
X149387654Y-65833761D02*
X149530511Y-65881380D01*
X149768607Y-65881380D01*
X149863845Y-65833761D01*
X149911464Y-65786142D01*
X149959083Y-65690904D01*
X149959083Y-65595666D01*
X149911464Y-65500428D01*
X149863845Y-65452809D01*
X149768607Y-65405190D01*
X149578130Y-65357571D01*
X149482892Y-65309952D01*
X149435273Y-65262333D01*
X149387654Y-65167095D01*
X149387654Y-65071857D01*
X149435273Y-64976619D01*
X149482892Y-64929000D01*
X149578130Y-64881380D01*
X149816226Y-64881380D01*
X149959083Y-64929000D01*
X150911464Y-65881380D02*
X150340035Y-65881380D01*
X150625750Y-65881380D02*
X150625750Y-64881380D01*
X150530511Y-65024238D01*
X150435273Y-65119476D01*
X150340035Y-65167095D01*
X151768607Y-65214714D02*
X151768607Y-65881380D01*
X151530511Y-64833761D02*
X151292416Y-65548047D01*
X151911464Y-65548047D01*
%TO.C,S16*%
X37168904Y-79133761D02*
X37311761Y-79181380D01*
X37549857Y-79181380D01*
X37645095Y-79133761D01*
X37692714Y-79086142D01*
X37740333Y-78990904D01*
X37740333Y-78895666D01*
X37692714Y-78800428D01*
X37645095Y-78752809D01*
X37549857Y-78705190D01*
X37359380Y-78657571D01*
X37264142Y-78609952D01*
X37216523Y-78562333D01*
X37168904Y-78467095D01*
X37168904Y-78371857D01*
X37216523Y-78276619D01*
X37264142Y-78229000D01*
X37359380Y-78181380D01*
X37597476Y-78181380D01*
X37740333Y-78229000D01*
X38692714Y-79181380D02*
X38121285Y-79181380D01*
X38407000Y-79181380D02*
X38407000Y-78181380D01*
X38311761Y-78324238D01*
X38216523Y-78419476D01*
X38121285Y-78467095D01*
X39549857Y-78181380D02*
X39359380Y-78181380D01*
X39264142Y-78229000D01*
X39216523Y-78276619D01*
X39121285Y-78419476D01*
X39073666Y-78609952D01*
X39073666Y-78990904D01*
X39121285Y-79086142D01*
X39168904Y-79133761D01*
X39264142Y-79181380D01*
X39454619Y-79181380D01*
X39549857Y-79133761D01*
X39597476Y-79086142D01*
X39645095Y-78990904D01*
X39645095Y-78752809D01*
X39597476Y-78657571D01*
X39549857Y-78609952D01*
X39454619Y-78562333D01*
X39264142Y-78562333D01*
X39168904Y-78609952D01*
X39121285Y-78657571D01*
X39073666Y-78752809D01*
%TO.C,S17*%
X46618904Y-79133761D02*
X46761761Y-79181380D01*
X46999857Y-79181380D01*
X47095095Y-79133761D01*
X47142714Y-79086142D01*
X47190333Y-78990904D01*
X47190333Y-78895666D01*
X47142714Y-78800428D01*
X47095095Y-78752809D01*
X46999857Y-78705190D01*
X46809380Y-78657571D01*
X46714142Y-78609952D01*
X46666523Y-78562333D01*
X46618904Y-78467095D01*
X46618904Y-78371857D01*
X46666523Y-78276619D01*
X46714142Y-78229000D01*
X46809380Y-78181380D01*
X47047476Y-78181380D01*
X47190333Y-78229000D01*
X48142714Y-79181380D02*
X47571285Y-79181380D01*
X47857000Y-79181380D02*
X47857000Y-78181380D01*
X47761761Y-78324238D01*
X47666523Y-78419476D01*
X47571285Y-78467095D01*
X48476047Y-78181380D02*
X49142714Y-78181380D01*
X48714142Y-79181380D01*
%TO.C,S18*%
X56068904Y-79133761D02*
X56211761Y-79181380D01*
X56449857Y-79181380D01*
X56545095Y-79133761D01*
X56592714Y-79086142D01*
X56640333Y-78990904D01*
X56640333Y-78895666D01*
X56592714Y-78800428D01*
X56545095Y-78752809D01*
X56449857Y-78705190D01*
X56259380Y-78657571D01*
X56164142Y-78609952D01*
X56116523Y-78562333D01*
X56068904Y-78467095D01*
X56068904Y-78371857D01*
X56116523Y-78276619D01*
X56164142Y-78229000D01*
X56259380Y-78181380D01*
X56497476Y-78181380D01*
X56640333Y-78229000D01*
X57592714Y-79181380D02*
X57021285Y-79181380D01*
X57307000Y-79181380D02*
X57307000Y-78181380D01*
X57211761Y-78324238D01*
X57116523Y-78419476D01*
X57021285Y-78467095D01*
X58164142Y-78609952D02*
X58068904Y-78562333D01*
X58021285Y-78514714D01*
X57973666Y-78419476D01*
X57973666Y-78371857D01*
X58021285Y-78276619D01*
X58068904Y-78229000D01*
X58164142Y-78181380D01*
X58354619Y-78181380D01*
X58449857Y-78229000D01*
X58497476Y-78276619D01*
X58545095Y-78371857D01*
X58545095Y-78419476D01*
X58497476Y-78514714D01*
X58449857Y-78562333D01*
X58354619Y-78609952D01*
X58164142Y-78609952D01*
X58068904Y-78657571D01*
X58021285Y-78705190D01*
X57973666Y-78800428D01*
X57973666Y-78990904D01*
X58021285Y-79086142D01*
X58068904Y-79133761D01*
X58164142Y-79181380D01*
X58354619Y-79181380D01*
X58449857Y-79133761D01*
X58497476Y-79086142D01*
X58545095Y-78990904D01*
X58545095Y-78800428D01*
X58497476Y-78705190D01*
X58449857Y-78657571D01*
X58354619Y-78609952D01*
%TO.C,S19*%
X65518904Y-79133761D02*
X65661761Y-79181380D01*
X65899857Y-79181380D01*
X65995095Y-79133761D01*
X66042714Y-79086142D01*
X66090333Y-78990904D01*
X66090333Y-78895666D01*
X66042714Y-78800428D01*
X65995095Y-78752809D01*
X65899857Y-78705190D01*
X65709380Y-78657571D01*
X65614142Y-78609952D01*
X65566523Y-78562333D01*
X65518904Y-78467095D01*
X65518904Y-78371857D01*
X65566523Y-78276619D01*
X65614142Y-78229000D01*
X65709380Y-78181380D01*
X65947476Y-78181380D01*
X66090333Y-78229000D01*
X67042714Y-79181380D02*
X66471285Y-79181380D01*
X66757000Y-79181380D02*
X66757000Y-78181380D01*
X66661761Y-78324238D01*
X66566523Y-78419476D01*
X66471285Y-78467095D01*
X67518904Y-79181380D02*
X67709380Y-79181380D01*
X67804619Y-79133761D01*
X67852238Y-79086142D01*
X67947476Y-78943285D01*
X67995095Y-78752809D01*
X67995095Y-78371857D01*
X67947476Y-78276619D01*
X67899857Y-78229000D01*
X67804619Y-78181380D01*
X67614142Y-78181380D01*
X67518904Y-78229000D01*
X67471285Y-78276619D01*
X67423666Y-78371857D01*
X67423666Y-78609952D01*
X67471285Y-78705190D01*
X67518904Y-78752809D01*
X67614142Y-78800428D01*
X67804619Y-78800428D01*
X67899857Y-78752809D01*
X67947476Y-78705190D01*
X67995095Y-78609952D01*
%TO.C,S20*%
X74968904Y-79133761D02*
X75111761Y-79181380D01*
X75349857Y-79181380D01*
X75445095Y-79133761D01*
X75492714Y-79086142D01*
X75540333Y-78990904D01*
X75540333Y-78895666D01*
X75492714Y-78800428D01*
X75445095Y-78752809D01*
X75349857Y-78705190D01*
X75159380Y-78657571D01*
X75064142Y-78609952D01*
X75016523Y-78562333D01*
X74968904Y-78467095D01*
X74968904Y-78371857D01*
X75016523Y-78276619D01*
X75064142Y-78229000D01*
X75159380Y-78181380D01*
X75397476Y-78181380D01*
X75540333Y-78229000D01*
X75921285Y-78276619D02*
X75968904Y-78229000D01*
X76064142Y-78181380D01*
X76302238Y-78181380D01*
X76397476Y-78229000D01*
X76445095Y-78276619D01*
X76492714Y-78371857D01*
X76492714Y-78467095D01*
X76445095Y-78609952D01*
X75873666Y-79181380D01*
X76492714Y-79181380D01*
X77111761Y-78181380D02*
X77207000Y-78181380D01*
X77302238Y-78229000D01*
X77349857Y-78276619D01*
X77397476Y-78371857D01*
X77445095Y-78562333D01*
X77445095Y-78800428D01*
X77397476Y-78990904D01*
X77349857Y-79086142D01*
X77302238Y-79133761D01*
X77207000Y-79181380D01*
X77111761Y-79181380D01*
X77016523Y-79133761D01*
X76968904Y-79086142D01*
X76921285Y-78990904D01*
X76873666Y-78800428D01*
X76873666Y-78562333D01*
X76921285Y-78371857D01*
X76968904Y-78276619D01*
X77016523Y-78229000D01*
X77111761Y-78181380D01*
%TO.C,S21*%
X84418904Y-79133761D02*
X84561761Y-79181380D01*
X84799857Y-79181380D01*
X84895095Y-79133761D01*
X84942714Y-79086142D01*
X84990333Y-78990904D01*
X84990333Y-78895666D01*
X84942714Y-78800428D01*
X84895095Y-78752809D01*
X84799857Y-78705190D01*
X84609380Y-78657571D01*
X84514142Y-78609952D01*
X84466523Y-78562333D01*
X84418904Y-78467095D01*
X84418904Y-78371857D01*
X84466523Y-78276619D01*
X84514142Y-78229000D01*
X84609380Y-78181380D01*
X84847476Y-78181380D01*
X84990333Y-78229000D01*
X85371285Y-78276619D02*
X85418904Y-78229000D01*
X85514142Y-78181380D01*
X85752238Y-78181380D01*
X85847476Y-78229000D01*
X85895095Y-78276619D01*
X85942714Y-78371857D01*
X85942714Y-78467095D01*
X85895095Y-78609952D01*
X85323666Y-79181380D01*
X85942714Y-79181380D01*
X86895095Y-79181380D02*
X86323666Y-79181380D01*
X86609380Y-79181380D02*
X86609380Y-78181380D01*
X86514142Y-78324238D01*
X86418904Y-78419476D01*
X86323666Y-78467095D01*
%TO.C,S22*%
X93868904Y-79133761D02*
X94011761Y-79181380D01*
X94249857Y-79181380D01*
X94345095Y-79133761D01*
X94392714Y-79086142D01*
X94440333Y-78990904D01*
X94440333Y-78895666D01*
X94392714Y-78800428D01*
X94345095Y-78752809D01*
X94249857Y-78705190D01*
X94059380Y-78657571D01*
X93964142Y-78609952D01*
X93916523Y-78562333D01*
X93868904Y-78467095D01*
X93868904Y-78371857D01*
X93916523Y-78276619D01*
X93964142Y-78229000D01*
X94059380Y-78181380D01*
X94297476Y-78181380D01*
X94440333Y-78229000D01*
X94821285Y-78276619D02*
X94868904Y-78229000D01*
X94964142Y-78181380D01*
X95202238Y-78181380D01*
X95297476Y-78229000D01*
X95345095Y-78276619D01*
X95392714Y-78371857D01*
X95392714Y-78467095D01*
X95345095Y-78609952D01*
X94773666Y-79181380D01*
X95392714Y-79181380D01*
X95773666Y-78276619D02*
X95821285Y-78229000D01*
X95916523Y-78181380D01*
X96154619Y-78181380D01*
X96249857Y-78229000D01*
X96297476Y-78276619D01*
X96345095Y-78371857D01*
X96345095Y-78467095D01*
X96297476Y-78609952D01*
X95726047Y-79181380D01*
X96345095Y-79181380D01*
%TO.C,S23*%
X103318904Y-79133761D02*
X103461761Y-79181380D01*
X103699857Y-79181380D01*
X103795095Y-79133761D01*
X103842714Y-79086142D01*
X103890333Y-78990904D01*
X103890333Y-78895666D01*
X103842714Y-78800428D01*
X103795095Y-78752809D01*
X103699857Y-78705190D01*
X103509380Y-78657571D01*
X103414142Y-78609952D01*
X103366523Y-78562333D01*
X103318904Y-78467095D01*
X103318904Y-78371857D01*
X103366523Y-78276619D01*
X103414142Y-78229000D01*
X103509380Y-78181380D01*
X103747476Y-78181380D01*
X103890333Y-78229000D01*
X104271285Y-78276619D02*
X104318904Y-78229000D01*
X104414142Y-78181380D01*
X104652238Y-78181380D01*
X104747476Y-78229000D01*
X104795095Y-78276619D01*
X104842714Y-78371857D01*
X104842714Y-78467095D01*
X104795095Y-78609952D01*
X104223666Y-79181380D01*
X104842714Y-79181380D01*
X105176047Y-78181380D02*
X105795095Y-78181380D01*
X105461761Y-78562333D01*
X105604619Y-78562333D01*
X105699857Y-78609952D01*
X105747476Y-78657571D01*
X105795095Y-78752809D01*
X105795095Y-78990904D01*
X105747476Y-79086142D01*
X105699857Y-79133761D01*
X105604619Y-79181380D01*
X105318904Y-79181380D01*
X105223666Y-79133761D01*
X105176047Y-79086142D01*
%TO.C,S24*%
X112768904Y-79133761D02*
X112911761Y-79181380D01*
X113149857Y-79181380D01*
X113245095Y-79133761D01*
X113292714Y-79086142D01*
X113340333Y-78990904D01*
X113340333Y-78895666D01*
X113292714Y-78800428D01*
X113245095Y-78752809D01*
X113149857Y-78705190D01*
X112959380Y-78657571D01*
X112864142Y-78609952D01*
X112816523Y-78562333D01*
X112768904Y-78467095D01*
X112768904Y-78371857D01*
X112816523Y-78276619D01*
X112864142Y-78229000D01*
X112959380Y-78181380D01*
X113197476Y-78181380D01*
X113340333Y-78229000D01*
X113721285Y-78276619D02*
X113768904Y-78229000D01*
X113864142Y-78181380D01*
X114102238Y-78181380D01*
X114197476Y-78229000D01*
X114245095Y-78276619D01*
X114292714Y-78371857D01*
X114292714Y-78467095D01*
X114245095Y-78609952D01*
X113673666Y-79181380D01*
X114292714Y-79181380D01*
X115149857Y-78514714D02*
X115149857Y-79181380D01*
X114911761Y-78133761D02*
X114673666Y-78848047D01*
X115292714Y-78848047D01*
%TO.C,S25*%
X122218904Y-79133761D02*
X122361761Y-79181380D01*
X122599857Y-79181380D01*
X122695095Y-79133761D01*
X122742714Y-79086142D01*
X122790333Y-78990904D01*
X122790333Y-78895666D01*
X122742714Y-78800428D01*
X122695095Y-78752809D01*
X122599857Y-78705190D01*
X122409380Y-78657571D01*
X122314142Y-78609952D01*
X122266523Y-78562333D01*
X122218904Y-78467095D01*
X122218904Y-78371857D01*
X122266523Y-78276619D01*
X122314142Y-78229000D01*
X122409380Y-78181380D01*
X122647476Y-78181380D01*
X122790333Y-78229000D01*
X123171285Y-78276619D02*
X123218904Y-78229000D01*
X123314142Y-78181380D01*
X123552238Y-78181380D01*
X123647476Y-78229000D01*
X123695095Y-78276619D01*
X123742714Y-78371857D01*
X123742714Y-78467095D01*
X123695095Y-78609952D01*
X123123666Y-79181380D01*
X123742714Y-79181380D01*
X124647476Y-78181380D02*
X124171285Y-78181380D01*
X124123666Y-78657571D01*
X124171285Y-78609952D01*
X124266523Y-78562333D01*
X124504619Y-78562333D01*
X124599857Y-78609952D01*
X124647476Y-78657571D01*
X124695095Y-78752809D01*
X124695095Y-78990904D01*
X124647476Y-79086142D01*
X124599857Y-79133761D01*
X124504619Y-79181380D01*
X124266523Y-79181380D01*
X124171285Y-79133761D01*
X124123666Y-79086142D01*
%TO.C,S26*%
X131668904Y-79133761D02*
X131811761Y-79181380D01*
X132049857Y-79181380D01*
X132145095Y-79133761D01*
X132192714Y-79086142D01*
X132240333Y-78990904D01*
X132240333Y-78895666D01*
X132192714Y-78800428D01*
X132145095Y-78752809D01*
X132049857Y-78705190D01*
X131859380Y-78657571D01*
X131764142Y-78609952D01*
X131716523Y-78562333D01*
X131668904Y-78467095D01*
X131668904Y-78371857D01*
X131716523Y-78276619D01*
X131764142Y-78229000D01*
X131859380Y-78181380D01*
X132097476Y-78181380D01*
X132240333Y-78229000D01*
X132621285Y-78276619D02*
X132668904Y-78229000D01*
X132764142Y-78181380D01*
X133002238Y-78181380D01*
X133097476Y-78229000D01*
X133145095Y-78276619D01*
X133192714Y-78371857D01*
X133192714Y-78467095D01*
X133145095Y-78609952D01*
X132573666Y-79181380D01*
X133192714Y-79181380D01*
X134049857Y-78181380D02*
X133859380Y-78181380D01*
X133764142Y-78229000D01*
X133716523Y-78276619D01*
X133621285Y-78419476D01*
X133573666Y-78609952D01*
X133573666Y-78990904D01*
X133621285Y-79086142D01*
X133668904Y-79133761D01*
X133764142Y-79181380D01*
X133954619Y-79181380D01*
X134049857Y-79133761D01*
X134097476Y-79086142D01*
X134145095Y-78990904D01*
X134145095Y-78752809D01*
X134097476Y-78657571D01*
X134049857Y-78609952D01*
X133954619Y-78562333D01*
X133764142Y-78562333D01*
X133668904Y-78609952D01*
X133621285Y-78657571D01*
X133573666Y-78752809D01*
%TO.C,S27*%
X141118904Y-79133761D02*
X141261761Y-79181380D01*
X141499857Y-79181380D01*
X141595095Y-79133761D01*
X141642714Y-79086142D01*
X141690333Y-78990904D01*
X141690333Y-78895666D01*
X141642714Y-78800428D01*
X141595095Y-78752809D01*
X141499857Y-78705190D01*
X141309380Y-78657571D01*
X141214142Y-78609952D01*
X141166523Y-78562333D01*
X141118904Y-78467095D01*
X141118904Y-78371857D01*
X141166523Y-78276619D01*
X141214142Y-78229000D01*
X141309380Y-78181380D01*
X141547476Y-78181380D01*
X141690333Y-78229000D01*
X142071285Y-78276619D02*
X142118904Y-78229000D01*
X142214142Y-78181380D01*
X142452238Y-78181380D01*
X142547476Y-78229000D01*
X142595095Y-78276619D01*
X142642714Y-78371857D01*
X142642714Y-78467095D01*
X142595095Y-78609952D01*
X142023666Y-79181380D01*
X142642714Y-79181380D01*
X142976047Y-78181380D02*
X143642714Y-78181380D01*
X143214142Y-79181380D01*
%TO.C,S28*%
X152931404Y-79133761D02*
X153074261Y-79181380D01*
X153312357Y-79181380D01*
X153407595Y-79133761D01*
X153455214Y-79086142D01*
X153502833Y-78990904D01*
X153502833Y-78895666D01*
X153455214Y-78800428D01*
X153407595Y-78752809D01*
X153312357Y-78705190D01*
X153121880Y-78657571D01*
X153026642Y-78609952D01*
X152979023Y-78562333D01*
X152931404Y-78467095D01*
X152931404Y-78371857D01*
X152979023Y-78276619D01*
X153026642Y-78229000D01*
X153121880Y-78181380D01*
X153359976Y-78181380D01*
X153502833Y-78229000D01*
X153883785Y-78276619D02*
X153931404Y-78229000D01*
X154026642Y-78181380D01*
X154264738Y-78181380D01*
X154359976Y-78229000D01*
X154407595Y-78276619D01*
X154455214Y-78371857D01*
X154455214Y-78467095D01*
X154407595Y-78609952D01*
X153836166Y-79181380D01*
X154455214Y-79181380D01*
X155026642Y-78609952D02*
X154931404Y-78562333D01*
X154883785Y-78514714D01*
X154836166Y-78419476D01*
X154836166Y-78371857D01*
X154883785Y-78276619D01*
X154931404Y-78229000D01*
X155026642Y-78181380D01*
X155217119Y-78181380D01*
X155312357Y-78229000D01*
X155359976Y-78276619D01*
X155407595Y-78371857D01*
X155407595Y-78419476D01*
X155359976Y-78514714D01*
X155312357Y-78562333D01*
X155217119Y-78609952D01*
X155026642Y-78609952D01*
X154931404Y-78657571D01*
X154883785Y-78705190D01*
X154836166Y-78800428D01*
X154836166Y-78990904D01*
X154883785Y-79086142D01*
X154931404Y-79133761D01*
X155026642Y-79181380D01*
X155217119Y-79181380D01*
X155312357Y-79133761D01*
X155359976Y-79086142D01*
X155407595Y-78990904D01*
X155407595Y-78800428D01*
X155359976Y-78705190D01*
X155312357Y-78657571D01*
X155217119Y-78609952D01*
%TO.C,S29*%
X27718904Y-92433761D02*
X27861761Y-92481380D01*
X28099857Y-92481380D01*
X28195095Y-92433761D01*
X28242714Y-92386142D01*
X28290333Y-92290904D01*
X28290333Y-92195666D01*
X28242714Y-92100428D01*
X28195095Y-92052809D01*
X28099857Y-92005190D01*
X27909380Y-91957571D01*
X27814142Y-91909952D01*
X27766523Y-91862333D01*
X27718904Y-91767095D01*
X27718904Y-91671857D01*
X27766523Y-91576619D01*
X27814142Y-91529000D01*
X27909380Y-91481380D01*
X28147476Y-91481380D01*
X28290333Y-91529000D01*
X28671285Y-91576619D02*
X28718904Y-91529000D01*
X28814142Y-91481380D01*
X29052238Y-91481380D01*
X29147476Y-91529000D01*
X29195095Y-91576619D01*
X29242714Y-91671857D01*
X29242714Y-91767095D01*
X29195095Y-91909952D01*
X28623666Y-92481380D01*
X29242714Y-92481380D01*
X29718904Y-92481380D02*
X29909380Y-92481380D01*
X30004619Y-92433761D01*
X30052238Y-92386142D01*
X30147476Y-92243285D01*
X30195095Y-92052809D01*
X30195095Y-91671857D01*
X30147476Y-91576619D01*
X30099857Y-91529000D01*
X30004619Y-91481380D01*
X29814142Y-91481380D01*
X29718904Y-91529000D01*
X29671285Y-91576619D01*
X29623666Y-91671857D01*
X29623666Y-91909952D01*
X29671285Y-92005190D01*
X29718904Y-92052809D01*
X29814142Y-92100428D01*
X30004619Y-92100428D01*
X30099857Y-92052809D01*
X30147476Y-92005190D01*
X30195095Y-91909952D01*
%TO.C,S30*%
X39531404Y-92433761D02*
X39674261Y-92481380D01*
X39912357Y-92481380D01*
X40007595Y-92433761D01*
X40055214Y-92386142D01*
X40102833Y-92290904D01*
X40102833Y-92195666D01*
X40055214Y-92100428D01*
X40007595Y-92052809D01*
X39912357Y-92005190D01*
X39721880Y-91957571D01*
X39626642Y-91909952D01*
X39579023Y-91862333D01*
X39531404Y-91767095D01*
X39531404Y-91671857D01*
X39579023Y-91576619D01*
X39626642Y-91529000D01*
X39721880Y-91481380D01*
X39959976Y-91481380D01*
X40102833Y-91529000D01*
X40436166Y-91481380D02*
X41055214Y-91481380D01*
X40721880Y-91862333D01*
X40864738Y-91862333D01*
X40959976Y-91909952D01*
X41007595Y-91957571D01*
X41055214Y-92052809D01*
X41055214Y-92290904D01*
X41007595Y-92386142D01*
X40959976Y-92433761D01*
X40864738Y-92481380D01*
X40579023Y-92481380D01*
X40483785Y-92433761D01*
X40436166Y-92386142D01*
X41674261Y-91481380D02*
X41769500Y-91481380D01*
X41864738Y-91529000D01*
X41912357Y-91576619D01*
X41959976Y-91671857D01*
X42007595Y-91862333D01*
X42007595Y-92100428D01*
X41959976Y-92290904D01*
X41912357Y-92386142D01*
X41864738Y-92433761D01*
X41769500Y-92481380D01*
X41674261Y-92481380D01*
X41579023Y-92433761D01*
X41531404Y-92386142D01*
X41483785Y-92290904D01*
X41436166Y-92100428D01*
X41436166Y-91862333D01*
X41483785Y-91671857D01*
X41531404Y-91576619D01*
X41579023Y-91529000D01*
X41674261Y-91481380D01*
%TO.C,S31*%
X48981404Y-92433761D02*
X49124261Y-92481380D01*
X49362357Y-92481380D01*
X49457595Y-92433761D01*
X49505214Y-92386142D01*
X49552833Y-92290904D01*
X49552833Y-92195666D01*
X49505214Y-92100428D01*
X49457595Y-92052809D01*
X49362357Y-92005190D01*
X49171880Y-91957571D01*
X49076642Y-91909952D01*
X49029023Y-91862333D01*
X48981404Y-91767095D01*
X48981404Y-91671857D01*
X49029023Y-91576619D01*
X49076642Y-91529000D01*
X49171880Y-91481380D01*
X49409976Y-91481380D01*
X49552833Y-91529000D01*
X49886166Y-91481380D02*
X50505214Y-91481380D01*
X50171880Y-91862333D01*
X50314738Y-91862333D01*
X50409976Y-91909952D01*
X50457595Y-91957571D01*
X50505214Y-92052809D01*
X50505214Y-92290904D01*
X50457595Y-92386142D01*
X50409976Y-92433761D01*
X50314738Y-92481380D01*
X50029023Y-92481380D01*
X49933785Y-92433761D01*
X49886166Y-92386142D01*
X51457595Y-92481380D02*
X50886166Y-92481380D01*
X51171880Y-92481380D02*
X51171880Y-91481380D01*
X51076642Y-91624238D01*
X50981404Y-91719476D01*
X50886166Y-91767095D01*
%TO.C,S32*%
X58431404Y-92433761D02*
X58574261Y-92481380D01*
X58812357Y-92481380D01*
X58907595Y-92433761D01*
X58955214Y-92386142D01*
X59002833Y-92290904D01*
X59002833Y-92195666D01*
X58955214Y-92100428D01*
X58907595Y-92052809D01*
X58812357Y-92005190D01*
X58621880Y-91957571D01*
X58526642Y-91909952D01*
X58479023Y-91862333D01*
X58431404Y-91767095D01*
X58431404Y-91671857D01*
X58479023Y-91576619D01*
X58526642Y-91529000D01*
X58621880Y-91481380D01*
X58859976Y-91481380D01*
X59002833Y-91529000D01*
X59336166Y-91481380D02*
X59955214Y-91481380D01*
X59621880Y-91862333D01*
X59764738Y-91862333D01*
X59859976Y-91909952D01*
X59907595Y-91957571D01*
X59955214Y-92052809D01*
X59955214Y-92290904D01*
X59907595Y-92386142D01*
X59859976Y-92433761D01*
X59764738Y-92481380D01*
X59479023Y-92481380D01*
X59383785Y-92433761D01*
X59336166Y-92386142D01*
X60336166Y-91576619D02*
X60383785Y-91529000D01*
X60479023Y-91481380D01*
X60717119Y-91481380D01*
X60812357Y-91529000D01*
X60859976Y-91576619D01*
X60907595Y-91671857D01*
X60907595Y-91767095D01*
X60859976Y-91909952D01*
X60288547Y-92481380D01*
X60907595Y-92481380D01*
%TO.C,S33*%
X67881404Y-92433761D02*
X68024261Y-92481380D01*
X68262357Y-92481380D01*
X68357595Y-92433761D01*
X68405214Y-92386142D01*
X68452833Y-92290904D01*
X68452833Y-92195666D01*
X68405214Y-92100428D01*
X68357595Y-92052809D01*
X68262357Y-92005190D01*
X68071880Y-91957571D01*
X67976642Y-91909952D01*
X67929023Y-91862333D01*
X67881404Y-91767095D01*
X67881404Y-91671857D01*
X67929023Y-91576619D01*
X67976642Y-91529000D01*
X68071880Y-91481380D01*
X68309976Y-91481380D01*
X68452833Y-91529000D01*
X68786166Y-91481380D02*
X69405214Y-91481380D01*
X69071880Y-91862333D01*
X69214738Y-91862333D01*
X69309976Y-91909952D01*
X69357595Y-91957571D01*
X69405214Y-92052809D01*
X69405214Y-92290904D01*
X69357595Y-92386142D01*
X69309976Y-92433761D01*
X69214738Y-92481380D01*
X68929023Y-92481380D01*
X68833785Y-92433761D01*
X68786166Y-92386142D01*
X69738547Y-91481380D02*
X70357595Y-91481380D01*
X70024261Y-91862333D01*
X70167119Y-91862333D01*
X70262357Y-91909952D01*
X70309976Y-91957571D01*
X70357595Y-92052809D01*
X70357595Y-92290904D01*
X70309976Y-92386142D01*
X70262357Y-92433761D01*
X70167119Y-92481380D01*
X69881404Y-92481380D01*
X69786166Y-92433761D01*
X69738547Y-92386142D01*
%TO.C,S34*%
X77331404Y-92433761D02*
X77474261Y-92481380D01*
X77712357Y-92481380D01*
X77807595Y-92433761D01*
X77855214Y-92386142D01*
X77902833Y-92290904D01*
X77902833Y-92195666D01*
X77855214Y-92100428D01*
X77807595Y-92052809D01*
X77712357Y-92005190D01*
X77521880Y-91957571D01*
X77426642Y-91909952D01*
X77379023Y-91862333D01*
X77331404Y-91767095D01*
X77331404Y-91671857D01*
X77379023Y-91576619D01*
X77426642Y-91529000D01*
X77521880Y-91481380D01*
X77759976Y-91481380D01*
X77902833Y-91529000D01*
X78236166Y-91481380D02*
X78855214Y-91481380D01*
X78521880Y-91862333D01*
X78664738Y-91862333D01*
X78759976Y-91909952D01*
X78807595Y-91957571D01*
X78855214Y-92052809D01*
X78855214Y-92290904D01*
X78807595Y-92386142D01*
X78759976Y-92433761D01*
X78664738Y-92481380D01*
X78379023Y-92481380D01*
X78283785Y-92433761D01*
X78236166Y-92386142D01*
X79712357Y-91814714D02*
X79712357Y-92481380D01*
X79474261Y-91433761D02*
X79236166Y-92148047D01*
X79855214Y-92148047D01*
%TO.C,S35*%
X86781404Y-92433761D02*
X86924261Y-92481380D01*
X87162357Y-92481380D01*
X87257595Y-92433761D01*
X87305214Y-92386142D01*
X87352833Y-92290904D01*
X87352833Y-92195666D01*
X87305214Y-92100428D01*
X87257595Y-92052809D01*
X87162357Y-92005190D01*
X86971880Y-91957571D01*
X86876642Y-91909952D01*
X86829023Y-91862333D01*
X86781404Y-91767095D01*
X86781404Y-91671857D01*
X86829023Y-91576619D01*
X86876642Y-91529000D01*
X86971880Y-91481380D01*
X87209976Y-91481380D01*
X87352833Y-91529000D01*
X87686166Y-91481380D02*
X88305214Y-91481380D01*
X87971880Y-91862333D01*
X88114738Y-91862333D01*
X88209976Y-91909952D01*
X88257595Y-91957571D01*
X88305214Y-92052809D01*
X88305214Y-92290904D01*
X88257595Y-92386142D01*
X88209976Y-92433761D01*
X88114738Y-92481380D01*
X87829023Y-92481380D01*
X87733785Y-92433761D01*
X87686166Y-92386142D01*
X89209976Y-91481380D02*
X88733785Y-91481380D01*
X88686166Y-91957571D01*
X88733785Y-91909952D01*
X88829023Y-91862333D01*
X89067119Y-91862333D01*
X89162357Y-91909952D01*
X89209976Y-91957571D01*
X89257595Y-92052809D01*
X89257595Y-92290904D01*
X89209976Y-92386142D01*
X89162357Y-92433761D01*
X89067119Y-92481380D01*
X88829023Y-92481380D01*
X88733785Y-92433761D01*
X88686166Y-92386142D01*
%TO.C,S36*%
X96231404Y-92433761D02*
X96374261Y-92481380D01*
X96612357Y-92481380D01*
X96707595Y-92433761D01*
X96755214Y-92386142D01*
X96802833Y-92290904D01*
X96802833Y-92195666D01*
X96755214Y-92100428D01*
X96707595Y-92052809D01*
X96612357Y-92005190D01*
X96421880Y-91957571D01*
X96326642Y-91909952D01*
X96279023Y-91862333D01*
X96231404Y-91767095D01*
X96231404Y-91671857D01*
X96279023Y-91576619D01*
X96326642Y-91529000D01*
X96421880Y-91481380D01*
X96659976Y-91481380D01*
X96802833Y-91529000D01*
X97136166Y-91481380D02*
X97755214Y-91481380D01*
X97421880Y-91862333D01*
X97564738Y-91862333D01*
X97659976Y-91909952D01*
X97707595Y-91957571D01*
X97755214Y-92052809D01*
X97755214Y-92290904D01*
X97707595Y-92386142D01*
X97659976Y-92433761D01*
X97564738Y-92481380D01*
X97279023Y-92481380D01*
X97183785Y-92433761D01*
X97136166Y-92386142D01*
X98612357Y-91481380D02*
X98421880Y-91481380D01*
X98326642Y-91529000D01*
X98279023Y-91576619D01*
X98183785Y-91719476D01*
X98136166Y-91909952D01*
X98136166Y-92290904D01*
X98183785Y-92386142D01*
X98231404Y-92433761D01*
X98326642Y-92481380D01*
X98517119Y-92481380D01*
X98612357Y-92433761D01*
X98659976Y-92386142D01*
X98707595Y-92290904D01*
X98707595Y-92052809D01*
X98659976Y-91957571D01*
X98612357Y-91909952D01*
X98517119Y-91862333D01*
X98326642Y-91862333D01*
X98231404Y-91909952D01*
X98183785Y-91957571D01*
X98136166Y-92052809D01*
%TO.C,S37*%
X105681404Y-92433761D02*
X105824261Y-92481380D01*
X106062357Y-92481380D01*
X106157595Y-92433761D01*
X106205214Y-92386142D01*
X106252833Y-92290904D01*
X106252833Y-92195666D01*
X106205214Y-92100428D01*
X106157595Y-92052809D01*
X106062357Y-92005190D01*
X105871880Y-91957571D01*
X105776642Y-91909952D01*
X105729023Y-91862333D01*
X105681404Y-91767095D01*
X105681404Y-91671857D01*
X105729023Y-91576619D01*
X105776642Y-91529000D01*
X105871880Y-91481380D01*
X106109976Y-91481380D01*
X106252833Y-91529000D01*
X106586166Y-91481380D02*
X107205214Y-91481380D01*
X106871880Y-91862333D01*
X107014738Y-91862333D01*
X107109976Y-91909952D01*
X107157595Y-91957571D01*
X107205214Y-92052809D01*
X107205214Y-92290904D01*
X107157595Y-92386142D01*
X107109976Y-92433761D01*
X107014738Y-92481380D01*
X106729023Y-92481380D01*
X106633785Y-92433761D01*
X106586166Y-92386142D01*
X107538547Y-91481380D02*
X108205214Y-91481380D01*
X107776642Y-92481380D01*
%TO.C,S38*%
X115131404Y-92433761D02*
X115274261Y-92481380D01*
X115512357Y-92481380D01*
X115607595Y-92433761D01*
X115655214Y-92386142D01*
X115702833Y-92290904D01*
X115702833Y-92195666D01*
X115655214Y-92100428D01*
X115607595Y-92052809D01*
X115512357Y-92005190D01*
X115321880Y-91957571D01*
X115226642Y-91909952D01*
X115179023Y-91862333D01*
X115131404Y-91767095D01*
X115131404Y-91671857D01*
X115179023Y-91576619D01*
X115226642Y-91529000D01*
X115321880Y-91481380D01*
X115559976Y-91481380D01*
X115702833Y-91529000D01*
X116036166Y-91481380D02*
X116655214Y-91481380D01*
X116321880Y-91862333D01*
X116464738Y-91862333D01*
X116559976Y-91909952D01*
X116607595Y-91957571D01*
X116655214Y-92052809D01*
X116655214Y-92290904D01*
X116607595Y-92386142D01*
X116559976Y-92433761D01*
X116464738Y-92481380D01*
X116179023Y-92481380D01*
X116083785Y-92433761D01*
X116036166Y-92386142D01*
X117226642Y-91909952D02*
X117131404Y-91862333D01*
X117083785Y-91814714D01*
X117036166Y-91719476D01*
X117036166Y-91671857D01*
X117083785Y-91576619D01*
X117131404Y-91529000D01*
X117226642Y-91481380D01*
X117417119Y-91481380D01*
X117512357Y-91529000D01*
X117559976Y-91576619D01*
X117607595Y-91671857D01*
X117607595Y-91719476D01*
X117559976Y-91814714D01*
X117512357Y-91862333D01*
X117417119Y-91909952D01*
X117226642Y-91909952D01*
X117131404Y-91957571D01*
X117083785Y-92005190D01*
X117036166Y-92100428D01*
X117036166Y-92290904D01*
X117083785Y-92386142D01*
X117131404Y-92433761D01*
X117226642Y-92481380D01*
X117417119Y-92481380D01*
X117512357Y-92433761D01*
X117559976Y-92386142D01*
X117607595Y-92290904D01*
X117607595Y-92100428D01*
X117559976Y-92005190D01*
X117512357Y-91957571D01*
X117417119Y-91909952D01*
%TO.C,S39*%
X124581404Y-92433761D02*
X124724261Y-92481380D01*
X124962357Y-92481380D01*
X125057595Y-92433761D01*
X125105214Y-92386142D01*
X125152833Y-92290904D01*
X125152833Y-92195666D01*
X125105214Y-92100428D01*
X125057595Y-92052809D01*
X124962357Y-92005190D01*
X124771880Y-91957571D01*
X124676642Y-91909952D01*
X124629023Y-91862333D01*
X124581404Y-91767095D01*
X124581404Y-91671857D01*
X124629023Y-91576619D01*
X124676642Y-91529000D01*
X124771880Y-91481380D01*
X125009976Y-91481380D01*
X125152833Y-91529000D01*
X125486166Y-91481380D02*
X126105214Y-91481380D01*
X125771880Y-91862333D01*
X125914738Y-91862333D01*
X126009976Y-91909952D01*
X126057595Y-91957571D01*
X126105214Y-92052809D01*
X126105214Y-92290904D01*
X126057595Y-92386142D01*
X126009976Y-92433761D01*
X125914738Y-92481380D01*
X125629023Y-92481380D01*
X125533785Y-92433761D01*
X125486166Y-92386142D01*
X126581404Y-92481380D02*
X126771880Y-92481380D01*
X126867119Y-92433761D01*
X126914738Y-92386142D01*
X127009976Y-92243285D01*
X127057595Y-92052809D01*
X127057595Y-91671857D01*
X127009976Y-91576619D01*
X126962357Y-91529000D01*
X126867119Y-91481380D01*
X126676642Y-91481380D01*
X126581404Y-91529000D01*
X126533785Y-91576619D01*
X126486166Y-91671857D01*
X126486166Y-91909952D01*
X126533785Y-92005190D01*
X126581404Y-92052809D01*
X126676642Y-92100428D01*
X126867119Y-92100428D01*
X126962357Y-92052809D01*
X127009976Y-92005190D01*
X127057595Y-91909952D01*
%TO.C,S40*%
X134031404Y-92433761D02*
X134174261Y-92481380D01*
X134412357Y-92481380D01*
X134507595Y-92433761D01*
X134555214Y-92386142D01*
X134602833Y-92290904D01*
X134602833Y-92195666D01*
X134555214Y-92100428D01*
X134507595Y-92052809D01*
X134412357Y-92005190D01*
X134221880Y-91957571D01*
X134126642Y-91909952D01*
X134079023Y-91862333D01*
X134031404Y-91767095D01*
X134031404Y-91671857D01*
X134079023Y-91576619D01*
X134126642Y-91529000D01*
X134221880Y-91481380D01*
X134459976Y-91481380D01*
X134602833Y-91529000D01*
X135459976Y-91814714D02*
X135459976Y-92481380D01*
X135221880Y-91433761D02*
X134983785Y-92148047D01*
X135602833Y-92148047D01*
X136174261Y-91481380D02*
X136269500Y-91481380D01*
X136364738Y-91529000D01*
X136412357Y-91576619D01*
X136459976Y-91671857D01*
X136507595Y-91862333D01*
X136507595Y-92100428D01*
X136459976Y-92290904D01*
X136412357Y-92386142D01*
X136364738Y-92433761D01*
X136269500Y-92481380D01*
X136174261Y-92481380D01*
X136079023Y-92433761D01*
X136031404Y-92386142D01*
X135983785Y-92290904D01*
X135936166Y-92100428D01*
X135936166Y-91862333D01*
X135983785Y-91671857D01*
X136031404Y-91576619D01*
X136079023Y-91529000D01*
X136174261Y-91481380D01*
%TO.C,S41*%
X149387654Y-92433761D02*
X149530511Y-92481380D01*
X149768607Y-92481380D01*
X149863845Y-92433761D01*
X149911464Y-92386142D01*
X149959083Y-92290904D01*
X149959083Y-92195666D01*
X149911464Y-92100428D01*
X149863845Y-92052809D01*
X149768607Y-92005190D01*
X149578130Y-91957571D01*
X149482892Y-91909952D01*
X149435273Y-91862333D01*
X149387654Y-91767095D01*
X149387654Y-91671857D01*
X149435273Y-91576619D01*
X149482892Y-91529000D01*
X149578130Y-91481380D01*
X149816226Y-91481380D01*
X149959083Y-91529000D01*
X150816226Y-91814714D02*
X150816226Y-92481380D01*
X150578130Y-91433761D02*
X150340035Y-92148047D01*
X150959083Y-92148047D01*
X151863845Y-92481380D02*
X151292416Y-92481380D01*
X151578130Y-92481380D02*
X151578130Y-91481380D01*
X151482892Y-91624238D01*
X151387654Y-91719476D01*
X151292416Y-91767095D01*
%TO.C,S42*%
X28900154Y-105733761D02*
X29043011Y-105781380D01*
X29281107Y-105781380D01*
X29376345Y-105733761D01*
X29423964Y-105686142D01*
X29471583Y-105590904D01*
X29471583Y-105495666D01*
X29423964Y-105400428D01*
X29376345Y-105352809D01*
X29281107Y-105305190D01*
X29090630Y-105257571D01*
X28995392Y-105209952D01*
X28947773Y-105162333D01*
X28900154Y-105067095D01*
X28900154Y-104971857D01*
X28947773Y-104876619D01*
X28995392Y-104829000D01*
X29090630Y-104781380D01*
X29328726Y-104781380D01*
X29471583Y-104829000D01*
X30328726Y-105114714D02*
X30328726Y-105781380D01*
X30090630Y-104733761D02*
X29852535Y-105448047D01*
X30471583Y-105448047D01*
X30804916Y-104876619D02*
X30852535Y-104829000D01*
X30947773Y-104781380D01*
X31185869Y-104781380D01*
X31281107Y-104829000D01*
X31328726Y-104876619D01*
X31376345Y-104971857D01*
X31376345Y-105067095D01*
X31328726Y-105209952D01*
X30757297Y-105781380D01*
X31376345Y-105781380D01*
%TO.C,S44*%
X51343904Y-105733761D02*
X51486761Y-105781380D01*
X51724857Y-105781380D01*
X51820095Y-105733761D01*
X51867714Y-105686142D01*
X51915333Y-105590904D01*
X51915333Y-105495666D01*
X51867714Y-105400428D01*
X51820095Y-105352809D01*
X51724857Y-105305190D01*
X51534380Y-105257571D01*
X51439142Y-105209952D01*
X51391523Y-105162333D01*
X51343904Y-105067095D01*
X51343904Y-104971857D01*
X51391523Y-104876619D01*
X51439142Y-104829000D01*
X51534380Y-104781380D01*
X51772476Y-104781380D01*
X51915333Y-104829000D01*
X52772476Y-105114714D02*
X52772476Y-105781380D01*
X52534380Y-104733761D02*
X52296285Y-105448047D01*
X52915333Y-105448047D01*
X53724857Y-105114714D02*
X53724857Y-105781380D01*
X53486761Y-104733761D02*
X53248666Y-105448047D01*
X53867714Y-105448047D01*
%TO.C,S45*%
X60793904Y-105733761D02*
X60936761Y-105781380D01*
X61174857Y-105781380D01*
X61270095Y-105733761D01*
X61317714Y-105686142D01*
X61365333Y-105590904D01*
X61365333Y-105495666D01*
X61317714Y-105400428D01*
X61270095Y-105352809D01*
X61174857Y-105305190D01*
X60984380Y-105257571D01*
X60889142Y-105209952D01*
X60841523Y-105162333D01*
X60793904Y-105067095D01*
X60793904Y-104971857D01*
X60841523Y-104876619D01*
X60889142Y-104829000D01*
X60984380Y-104781380D01*
X61222476Y-104781380D01*
X61365333Y-104829000D01*
X62222476Y-105114714D02*
X62222476Y-105781380D01*
X61984380Y-104733761D02*
X61746285Y-105448047D01*
X62365333Y-105448047D01*
X63222476Y-104781380D02*
X62746285Y-104781380D01*
X62698666Y-105257571D01*
X62746285Y-105209952D01*
X62841523Y-105162333D01*
X63079619Y-105162333D01*
X63174857Y-105209952D01*
X63222476Y-105257571D01*
X63270095Y-105352809D01*
X63270095Y-105590904D01*
X63222476Y-105686142D01*
X63174857Y-105733761D01*
X63079619Y-105781380D01*
X62841523Y-105781380D01*
X62746285Y-105733761D01*
X62698666Y-105686142D01*
%TO.C,S46*%
X70243904Y-105733761D02*
X70386761Y-105781380D01*
X70624857Y-105781380D01*
X70720095Y-105733761D01*
X70767714Y-105686142D01*
X70815333Y-105590904D01*
X70815333Y-105495666D01*
X70767714Y-105400428D01*
X70720095Y-105352809D01*
X70624857Y-105305190D01*
X70434380Y-105257571D01*
X70339142Y-105209952D01*
X70291523Y-105162333D01*
X70243904Y-105067095D01*
X70243904Y-104971857D01*
X70291523Y-104876619D01*
X70339142Y-104829000D01*
X70434380Y-104781380D01*
X70672476Y-104781380D01*
X70815333Y-104829000D01*
X71672476Y-105114714D02*
X71672476Y-105781380D01*
X71434380Y-104733761D02*
X71196285Y-105448047D01*
X71815333Y-105448047D01*
X72624857Y-104781380D02*
X72434380Y-104781380D01*
X72339142Y-104829000D01*
X72291523Y-104876619D01*
X72196285Y-105019476D01*
X72148666Y-105209952D01*
X72148666Y-105590904D01*
X72196285Y-105686142D01*
X72243904Y-105733761D01*
X72339142Y-105781380D01*
X72529619Y-105781380D01*
X72624857Y-105733761D01*
X72672476Y-105686142D01*
X72720095Y-105590904D01*
X72720095Y-105352809D01*
X72672476Y-105257571D01*
X72624857Y-105209952D01*
X72529619Y-105162333D01*
X72339142Y-105162333D01*
X72243904Y-105209952D01*
X72196285Y-105257571D01*
X72148666Y-105352809D01*
%TO.C,S47*%
X79693904Y-105733761D02*
X79836761Y-105781380D01*
X80074857Y-105781380D01*
X80170095Y-105733761D01*
X80217714Y-105686142D01*
X80265333Y-105590904D01*
X80265333Y-105495666D01*
X80217714Y-105400428D01*
X80170095Y-105352809D01*
X80074857Y-105305190D01*
X79884380Y-105257571D01*
X79789142Y-105209952D01*
X79741523Y-105162333D01*
X79693904Y-105067095D01*
X79693904Y-104971857D01*
X79741523Y-104876619D01*
X79789142Y-104829000D01*
X79884380Y-104781380D01*
X80122476Y-104781380D01*
X80265333Y-104829000D01*
X81122476Y-105114714D02*
X81122476Y-105781380D01*
X80884380Y-104733761D02*
X80646285Y-105448047D01*
X81265333Y-105448047D01*
X81551047Y-104781380D02*
X82217714Y-104781380D01*
X81789142Y-105781380D01*
%TO.C,S48*%
X89143904Y-105733761D02*
X89286761Y-105781380D01*
X89524857Y-105781380D01*
X89620095Y-105733761D01*
X89667714Y-105686142D01*
X89715333Y-105590904D01*
X89715333Y-105495666D01*
X89667714Y-105400428D01*
X89620095Y-105352809D01*
X89524857Y-105305190D01*
X89334380Y-105257571D01*
X89239142Y-105209952D01*
X89191523Y-105162333D01*
X89143904Y-105067095D01*
X89143904Y-104971857D01*
X89191523Y-104876619D01*
X89239142Y-104829000D01*
X89334380Y-104781380D01*
X89572476Y-104781380D01*
X89715333Y-104829000D01*
X90572476Y-105114714D02*
X90572476Y-105781380D01*
X90334380Y-104733761D02*
X90096285Y-105448047D01*
X90715333Y-105448047D01*
X91239142Y-105209952D02*
X91143904Y-105162333D01*
X91096285Y-105114714D01*
X91048666Y-105019476D01*
X91048666Y-104971857D01*
X91096285Y-104876619D01*
X91143904Y-104829000D01*
X91239142Y-104781380D01*
X91429619Y-104781380D01*
X91524857Y-104829000D01*
X91572476Y-104876619D01*
X91620095Y-104971857D01*
X91620095Y-105019476D01*
X91572476Y-105114714D01*
X91524857Y-105162333D01*
X91429619Y-105209952D01*
X91239142Y-105209952D01*
X91143904Y-105257571D01*
X91096285Y-105305190D01*
X91048666Y-105400428D01*
X91048666Y-105590904D01*
X91096285Y-105686142D01*
X91143904Y-105733761D01*
X91239142Y-105781380D01*
X91429619Y-105781380D01*
X91524857Y-105733761D01*
X91572476Y-105686142D01*
X91620095Y-105590904D01*
X91620095Y-105400428D01*
X91572476Y-105305190D01*
X91524857Y-105257571D01*
X91429619Y-105209952D01*
%TO.C,S49*%
X98593904Y-105733761D02*
X98736761Y-105781380D01*
X98974857Y-105781380D01*
X99070095Y-105733761D01*
X99117714Y-105686142D01*
X99165333Y-105590904D01*
X99165333Y-105495666D01*
X99117714Y-105400428D01*
X99070095Y-105352809D01*
X98974857Y-105305190D01*
X98784380Y-105257571D01*
X98689142Y-105209952D01*
X98641523Y-105162333D01*
X98593904Y-105067095D01*
X98593904Y-104971857D01*
X98641523Y-104876619D01*
X98689142Y-104829000D01*
X98784380Y-104781380D01*
X99022476Y-104781380D01*
X99165333Y-104829000D01*
X100022476Y-105114714D02*
X100022476Y-105781380D01*
X99784380Y-104733761D02*
X99546285Y-105448047D01*
X100165333Y-105448047D01*
X100593904Y-105781380D02*
X100784380Y-105781380D01*
X100879619Y-105733761D01*
X100927238Y-105686142D01*
X101022476Y-105543285D01*
X101070095Y-105352809D01*
X101070095Y-104971857D01*
X101022476Y-104876619D01*
X100974857Y-104829000D01*
X100879619Y-104781380D01*
X100689142Y-104781380D01*
X100593904Y-104829000D01*
X100546285Y-104876619D01*
X100498666Y-104971857D01*
X100498666Y-105209952D01*
X100546285Y-105305190D01*
X100593904Y-105352809D01*
X100689142Y-105400428D01*
X100879619Y-105400428D01*
X100974857Y-105352809D01*
X101022476Y-105305190D01*
X101070095Y-105209952D01*
%TO.C,S50*%
X108043904Y-105733761D02*
X108186761Y-105781380D01*
X108424857Y-105781380D01*
X108520095Y-105733761D01*
X108567714Y-105686142D01*
X108615333Y-105590904D01*
X108615333Y-105495666D01*
X108567714Y-105400428D01*
X108520095Y-105352809D01*
X108424857Y-105305190D01*
X108234380Y-105257571D01*
X108139142Y-105209952D01*
X108091523Y-105162333D01*
X108043904Y-105067095D01*
X108043904Y-104971857D01*
X108091523Y-104876619D01*
X108139142Y-104829000D01*
X108234380Y-104781380D01*
X108472476Y-104781380D01*
X108615333Y-104829000D01*
X109520095Y-104781380D02*
X109043904Y-104781380D01*
X108996285Y-105257571D01*
X109043904Y-105209952D01*
X109139142Y-105162333D01*
X109377238Y-105162333D01*
X109472476Y-105209952D01*
X109520095Y-105257571D01*
X109567714Y-105352809D01*
X109567714Y-105590904D01*
X109520095Y-105686142D01*
X109472476Y-105733761D01*
X109377238Y-105781380D01*
X109139142Y-105781380D01*
X109043904Y-105733761D01*
X108996285Y-105686142D01*
X110186761Y-104781380D02*
X110282000Y-104781380D01*
X110377238Y-104829000D01*
X110424857Y-104876619D01*
X110472476Y-104971857D01*
X110520095Y-105162333D01*
X110520095Y-105400428D01*
X110472476Y-105590904D01*
X110424857Y-105686142D01*
X110377238Y-105733761D01*
X110282000Y-105781380D01*
X110186761Y-105781380D01*
X110091523Y-105733761D01*
X110043904Y-105686142D01*
X109996285Y-105590904D01*
X109948666Y-105400428D01*
X109948666Y-105162333D01*
X109996285Y-104971857D01*
X110043904Y-104876619D01*
X110091523Y-104829000D01*
X110186761Y-104781380D01*
%TO.C,S51*%
X117493904Y-105733761D02*
X117636761Y-105781380D01*
X117874857Y-105781380D01*
X117970095Y-105733761D01*
X118017714Y-105686142D01*
X118065333Y-105590904D01*
X118065333Y-105495666D01*
X118017714Y-105400428D01*
X117970095Y-105352809D01*
X117874857Y-105305190D01*
X117684380Y-105257571D01*
X117589142Y-105209952D01*
X117541523Y-105162333D01*
X117493904Y-105067095D01*
X117493904Y-104971857D01*
X117541523Y-104876619D01*
X117589142Y-104829000D01*
X117684380Y-104781380D01*
X117922476Y-104781380D01*
X118065333Y-104829000D01*
X118970095Y-104781380D02*
X118493904Y-104781380D01*
X118446285Y-105257571D01*
X118493904Y-105209952D01*
X118589142Y-105162333D01*
X118827238Y-105162333D01*
X118922476Y-105209952D01*
X118970095Y-105257571D01*
X119017714Y-105352809D01*
X119017714Y-105590904D01*
X118970095Y-105686142D01*
X118922476Y-105733761D01*
X118827238Y-105781380D01*
X118589142Y-105781380D01*
X118493904Y-105733761D01*
X118446285Y-105686142D01*
X119970095Y-105781380D02*
X119398666Y-105781380D01*
X119684380Y-105781380D02*
X119684380Y-104781380D01*
X119589142Y-104924238D01*
X119493904Y-105019476D01*
X119398666Y-105067095D01*
%TO.C,S52*%
X126943904Y-105733761D02*
X127086761Y-105781380D01*
X127324857Y-105781380D01*
X127420095Y-105733761D01*
X127467714Y-105686142D01*
X127515333Y-105590904D01*
X127515333Y-105495666D01*
X127467714Y-105400428D01*
X127420095Y-105352809D01*
X127324857Y-105305190D01*
X127134380Y-105257571D01*
X127039142Y-105209952D01*
X126991523Y-105162333D01*
X126943904Y-105067095D01*
X126943904Y-104971857D01*
X126991523Y-104876619D01*
X127039142Y-104829000D01*
X127134380Y-104781380D01*
X127372476Y-104781380D01*
X127515333Y-104829000D01*
X128420095Y-104781380D02*
X127943904Y-104781380D01*
X127896285Y-105257571D01*
X127943904Y-105209952D01*
X128039142Y-105162333D01*
X128277238Y-105162333D01*
X128372476Y-105209952D01*
X128420095Y-105257571D01*
X128467714Y-105352809D01*
X128467714Y-105590904D01*
X128420095Y-105686142D01*
X128372476Y-105733761D01*
X128277238Y-105781380D01*
X128039142Y-105781380D01*
X127943904Y-105733761D01*
X127896285Y-105686142D01*
X128848666Y-104876619D02*
X128896285Y-104829000D01*
X128991523Y-104781380D01*
X129229619Y-104781380D01*
X129324857Y-104829000D01*
X129372476Y-104876619D01*
X129420095Y-104971857D01*
X129420095Y-105067095D01*
X129372476Y-105209952D01*
X128801047Y-105781380D01*
X129420095Y-105781380D01*
%TO.C,S53*%
X136393904Y-105733761D02*
X136536761Y-105781380D01*
X136774857Y-105781380D01*
X136870095Y-105733761D01*
X136917714Y-105686142D01*
X136965333Y-105590904D01*
X136965333Y-105495666D01*
X136917714Y-105400428D01*
X136870095Y-105352809D01*
X136774857Y-105305190D01*
X136584380Y-105257571D01*
X136489142Y-105209952D01*
X136441523Y-105162333D01*
X136393904Y-105067095D01*
X136393904Y-104971857D01*
X136441523Y-104876619D01*
X136489142Y-104829000D01*
X136584380Y-104781380D01*
X136822476Y-104781380D01*
X136965333Y-104829000D01*
X137870095Y-104781380D02*
X137393904Y-104781380D01*
X137346285Y-105257571D01*
X137393904Y-105209952D01*
X137489142Y-105162333D01*
X137727238Y-105162333D01*
X137822476Y-105209952D01*
X137870095Y-105257571D01*
X137917714Y-105352809D01*
X137917714Y-105590904D01*
X137870095Y-105686142D01*
X137822476Y-105733761D01*
X137727238Y-105781380D01*
X137489142Y-105781380D01*
X137393904Y-105733761D01*
X137346285Y-105686142D01*
X138251047Y-104781380D02*
X138870095Y-104781380D01*
X138536761Y-105162333D01*
X138679619Y-105162333D01*
X138774857Y-105209952D01*
X138822476Y-105257571D01*
X138870095Y-105352809D01*
X138870095Y-105590904D01*
X138822476Y-105686142D01*
X138774857Y-105733761D01*
X138679619Y-105781380D01*
X138393904Y-105781380D01*
X138298666Y-105733761D01*
X138251047Y-105686142D01*
%TO.C,S55*%
X155293904Y-105733761D02*
X155436761Y-105781380D01*
X155674857Y-105781380D01*
X155770095Y-105733761D01*
X155817714Y-105686142D01*
X155865333Y-105590904D01*
X155865333Y-105495666D01*
X155817714Y-105400428D01*
X155770095Y-105352809D01*
X155674857Y-105305190D01*
X155484380Y-105257571D01*
X155389142Y-105209952D01*
X155341523Y-105162333D01*
X155293904Y-105067095D01*
X155293904Y-104971857D01*
X155341523Y-104876619D01*
X155389142Y-104829000D01*
X155484380Y-104781380D01*
X155722476Y-104781380D01*
X155865333Y-104829000D01*
X156770095Y-104781380D02*
X156293904Y-104781380D01*
X156246285Y-105257571D01*
X156293904Y-105209952D01*
X156389142Y-105162333D01*
X156627238Y-105162333D01*
X156722476Y-105209952D01*
X156770095Y-105257571D01*
X156817714Y-105352809D01*
X156817714Y-105590904D01*
X156770095Y-105686142D01*
X156722476Y-105733761D01*
X156627238Y-105781380D01*
X156389142Y-105781380D01*
X156293904Y-105733761D01*
X156246285Y-105686142D01*
X157722476Y-104781380D02*
X157246285Y-104781380D01*
X157198666Y-105257571D01*
X157246285Y-105209952D01*
X157341523Y-105162333D01*
X157579619Y-105162333D01*
X157674857Y-105209952D01*
X157722476Y-105257571D01*
X157770095Y-105352809D01*
X157770095Y-105590904D01*
X157722476Y-105686142D01*
X157674857Y-105733761D01*
X157579619Y-105781380D01*
X157341523Y-105781380D01*
X157246285Y-105733761D01*
X157198666Y-105686142D01*
%TO.C,S56*%
X25356404Y-119033761D02*
X25499261Y-119081380D01*
X25737357Y-119081380D01*
X25832595Y-119033761D01*
X25880214Y-118986142D01*
X25927833Y-118890904D01*
X25927833Y-118795666D01*
X25880214Y-118700428D01*
X25832595Y-118652809D01*
X25737357Y-118605190D01*
X25546880Y-118557571D01*
X25451642Y-118509952D01*
X25404023Y-118462333D01*
X25356404Y-118367095D01*
X25356404Y-118271857D01*
X25404023Y-118176619D01*
X25451642Y-118129000D01*
X25546880Y-118081380D01*
X25784976Y-118081380D01*
X25927833Y-118129000D01*
X26832595Y-118081380D02*
X26356404Y-118081380D01*
X26308785Y-118557571D01*
X26356404Y-118509952D01*
X26451642Y-118462333D01*
X26689738Y-118462333D01*
X26784976Y-118509952D01*
X26832595Y-118557571D01*
X26880214Y-118652809D01*
X26880214Y-118890904D01*
X26832595Y-118986142D01*
X26784976Y-119033761D01*
X26689738Y-119081380D01*
X26451642Y-119081380D01*
X26356404Y-119033761D01*
X26308785Y-118986142D01*
X27737357Y-118081380D02*
X27546880Y-118081380D01*
X27451642Y-118129000D01*
X27404023Y-118176619D01*
X27308785Y-118319476D01*
X27261166Y-118509952D01*
X27261166Y-118890904D01*
X27308785Y-118986142D01*
X27356404Y-119033761D01*
X27451642Y-119081380D01*
X27642119Y-119081380D01*
X27737357Y-119033761D01*
X27784976Y-118986142D01*
X27832595Y-118890904D01*
X27832595Y-118652809D01*
X27784976Y-118557571D01*
X27737357Y-118509952D01*
X27642119Y-118462333D01*
X27451642Y-118462333D01*
X27356404Y-118509952D01*
X27308785Y-118557571D01*
X27261166Y-118652809D01*
%TO.C,S57*%
X39531404Y-119033761D02*
X39674261Y-119081380D01*
X39912357Y-119081380D01*
X40007595Y-119033761D01*
X40055214Y-118986142D01*
X40102833Y-118890904D01*
X40102833Y-118795666D01*
X40055214Y-118700428D01*
X40007595Y-118652809D01*
X39912357Y-118605190D01*
X39721880Y-118557571D01*
X39626642Y-118509952D01*
X39579023Y-118462333D01*
X39531404Y-118367095D01*
X39531404Y-118271857D01*
X39579023Y-118176619D01*
X39626642Y-118129000D01*
X39721880Y-118081380D01*
X39959976Y-118081380D01*
X40102833Y-118129000D01*
X41007595Y-118081380D02*
X40531404Y-118081380D01*
X40483785Y-118557571D01*
X40531404Y-118509952D01*
X40626642Y-118462333D01*
X40864738Y-118462333D01*
X40959976Y-118509952D01*
X41007595Y-118557571D01*
X41055214Y-118652809D01*
X41055214Y-118890904D01*
X41007595Y-118986142D01*
X40959976Y-119033761D01*
X40864738Y-119081380D01*
X40626642Y-119081380D01*
X40531404Y-119033761D01*
X40483785Y-118986142D01*
X41388547Y-118081380D02*
X42055214Y-118081380D01*
X41626642Y-119081380D01*
%TO.C,S62*%
X110406404Y-119033761D02*
X110549261Y-119081380D01*
X110787357Y-119081380D01*
X110882595Y-119033761D01*
X110930214Y-118986142D01*
X110977833Y-118890904D01*
X110977833Y-118795666D01*
X110930214Y-118700428D01*
X110882595Y-118652809D01*
X110787357Y-118605190D01*
X110596880Y-118557571D01*
X110501642Y-118509952D01*
X110454023Y-118462333D01*
X110406404Y-118367095D01*
X110406404Y-118271857D01*
X110454023Y-118176619D01*
X110501642Y-118129000D01*
X110596880Y-118081380D01*
X110834976Y-118081380D01*
X110977833Y-118129000D01*
X111834976Y-118081380D02*
X111644500Y-118081380D01*
X111549261Y-118129000D01*
X111501642Y-118176619D01*
X111406404Y-118319476D01*
X111358785Y-118509952D01*
X111358785Y-118890904D01*
X111406404Y-118986142D01*
X111454023Y-119033761D01*
X111549261Y-119081380D01*
X111739738Y-119081380D01*
X111834976Y-119033761D01*
X111882595Y-118986142D01*
X111930214Y-118890904D01*
X111930214Y-118652809D01*
X111882595Y-118557571D01*
X111834976Y-118509952D01*
X111739738Y-118462333D01*
X111549261Y-118462333D01*
X111454023Y-118509952D01*
X111406404Y-118557571D01*
X111358785Y-118652809D01*
X112311166Y-118176619D02*
X112358785Y-118129000D01*
X112454023Y-118081380D01*
X112692119Y-118081380D01*
X112787357Y-118129000D01*
X112834976Y-118176619D01*
X112882595Y-118271857D01*
X112882595Y-118367095D01*
X112834976Y-118509952D01*
X112263547Y-119081380D01*
X112882595Y-119081380D01*
%TO.C,S63*%
X124581404Y-119033761D02*
X124724261Y-119081380D01*
X124962357Y-119081380D01*
X125057595Y-119033761D01*
X125105214Y-118986142D01*
X125152833Y-118890904D01*
X125152833Y-118795666D01*
X125105214Y-118700428D01*
X125057595Y-118652809D01*
X124962357Y-118605190D01*
X124771880Y-118557571D01*
X124676642Y-118509952D01*
X124629023Y-118462333D01*
X124581404Y-118367095D01*
X124581404Y-118271857D01*
X124629023Y-118176619D01*
X124676642Y-118129000D01*
X124771880Y-118081380D01*
X125009976Y-118081380D01*
X125152833Y-118129000D01*
X126009976Y-118081380D02*
X125819500Y-118081380D01*
X125724261Y-118129000D01*
X125676642Y-118176619D01*
X125581404Y-118319476D01*
X125533785Y-118509952D01*
X125533785Y-118890904D01*
X125581404Y-118986142D01*
X125629023Y-119033761D01*
X125724261Y-119081380D01*
X125914738Y-119081380D01*
X126009976Y-119033761D01*
X126057595Y-118986142D01*
X126105214Y-118890904D01*
X126105214Y-118652809D01*
X126057595Y-118557571D01*
X126009976Y-118509952D01*
X125914738Y-118462333D01*
X125724261Y-118462333D01*
X125629023Y-118509952D01*
X125581404Y-118557571D01*
X125533785Y-118652809D01*
X126438547Y-118081380D02*
X127057595Y-118081380D01*
X126724261Y-118462333D01*
X126867119Y-118462333D01*
X126962357Y-118509952D01*
X127009976Y-118557571D01*
X127057595Y-118652809D01*
X127057595Y-118890904D01*
X127009976Y-118986142D01*
X126962357Y-119033761D01*
X126867119Y-119081380D01*
X126581404Y-119081380D01*
X126486166Y-119033761D01*
X126438547Y-118986142D01*
%TO.C,S64*%
X136393904Y-119033761D02*
X136536761Y-119081380D01*
X136774857Y-119081380D01*
X136870095Y-119033761D01*
X136917714Y-118986142D01*
X136965333Y-118890904D01*
X136965333Y-118795666D01*
X136917714Y-118700428D01*
X136870095Y-118652809D01*
X136774857Y-118605190D01*
X136584380Y-118557571D01*
X136489142Y-118509952D01*
X136441523Y-118462333D01*
X136393904Y-118367095D01*
X136393904Y-118271857D01*
X136441523Y-118176619D01*
X136489142Y-118129000D01*
X136584380Y-118081380D01*
X136822476Y-118081380D01*
X136965333Y-118129000D01*
X137822476Y-118081380D02*
X137632000Y-118081380D01*
X137536761Y-118129000D01*
X137489142Y-118176619D01*
X137393904Y-118319476D01*
X137346285Y-118509952D01*
X137346285Y-118890904D01*
X137393904Y-118986142D01*
X137441523Y-119033761D01*
X137536761Y-119081380D01*
X137727238Y-119081380D01*
X137822476Y-119033761D01*
X137870095Y-118986142D01*
X137917714Y-118890904D01*
X137917714Y-118652809D01*
X137870095Y-118557571D01*
X137822476Y-118509952D01*
X137727238Y-118462333D01*
X137536761Y-118462333D01*
X137441523Y-118509952D01*
X137393904Y-118557571D01*
X137346285Y-118652809D01*
X138774857Y-118414714D02*
X138774857Y-119081380D01*
X138536761Y-118033761D02*
X138298666Y-118748047D01*
X138917714Y-118748047D01*
%TO.C,S65*%
X145843904Y-119033761D02*
X145986761Y-119081380D01*
X146224857Y-119081380D01*
X146320095Y-119033761D01*
X146367714Y-118986142D01*
X146415333Y-118890904D01*
X146415333Y-118795666D01*
X146367714Y-118700428D01*
X146320095Y-118652809D01*
X146224857Y-118605190D01*
X146034380Y-118557571D01*
X145939142Y-118509952D01*
X145891523Y-118462333D01*
X145843904Y-118367095D01*
X145843904Y-118271857D01*
X145891523Y-118176619D01*
X145939142Y-118129000D01*
X146034380Y-118081380D01*
X146272476Y-118081380D01*
X146415333Y-118129000D01*
X147272476Y-118081380D02*
X147082000Y-118081380D01*
X146986761Y-118129000D01*
X146939142Y-118176619D01*
X146843904Y-118319476D01*
X146796285Y-118509952D01*
X146796285Y-118890904D01*
X146843904Y-118986142D01*
X146891523Y-119033761D01*
X146986761Y-119081380D01*
X147177238Y-119081380D01*
X147272476Y-119033761D01*
X147320095Y-118986142D01*
X147367714Y-118890904D01*
X147367714Y-118652809D01*
X147320095Y-118557571D01*
X147272476Y-118509952D01*
X147177238Y-118462333D01*
X146986761Y-118462333D01*
X146891523Y-118509952D01*
X146843904Y-118557571D01*
X146796285Y-118652809D01*
X148272476Y-118081380D02*
X147796285Y-118081380D01*
X147748666Y-118557571D01*
X147796285Y-118509952D01*
X147891523Y-118462333D01*
X148129619Y-118462333D01*
X148224857Y-118509952D01*
X148272476Y-118557571D01*
X148320095Y-118652809D01*
X148320095Y-118890904D01*
X148272476Y-118986142D01*
X148224857Y-119033761D01*
X148129619Y-119081380D01*
X147891523Y-119081380D01*
X147796285Y-119033761D01*
X147748666Y-118986142D01*
%TO.C,S66*%
X155293904Y-119033761D02*
X155436761Y-119081380D01*
X155674857Y-119081380D01*
X155770095Y-119033761D01*
X155817714Y-118986142D01*
X155865333Y-118890904D01*
X155865333Y-118795666D01*
X155817714Y-118700428D01*
X155770095Y-118652809D01*
X155674857Y-118605190D01*
X155484380Y-118557571D01*
X155389142Y-118509952D01*
X155341523Y-118462333D01*
X155293904Y-118367095D01*
X155293904Y-118271857D01*
X155341523Y-118176619D01*
X155389142Y-118129000D01*
X155484380Y-118081380D01*
X155722476Y-118081380D01*
X155865333Y-118129000D01*
X156722476Y-118081380D02*
X156532000Y-118081380D01*
X156436761Y-118129000D01*
X156389142Y-118176619D01*
X156293904Y-118319476D01*
X156246285Y-118509952D01*
X156246285Y-118890904D01*
X156293904Y-118986142D01*
X156341523Y-119033761D01*
X156436761Y-119081380D01*
X156627238Y-119081380D01*
X156722476Y-119033761D01*
X156770095Y-118986142D01*
X156817714Y-118890904D01*
X156817714Y-118652809D01*
X156770095Y-118557571D01*
X156722476Y-118509952D01*
X156627238Y-118462333D01*
X156436761Y-118462333D01*
X156341523Y-118509952D01*
X156293904Y-118557571D01*
X156246285Y-118652809D01*
X157674857Y-118081380D02*
X157484380Y-118081380D01*
X157389142Y-118129000D01*
X157341523Y-118176619D01*
X157246285Y-118319476D01*
X157198666Y-118509952D01*
X157198666Y-118890904D01*
X157246285Y-118986142D01*
X157293904Y-119033761D01*
X157389142Y-119081380D01*
X157579619Y-119081380D01*
X157674857Y-119033761D01*
X157722476Y-118986142D01*
X157770095Y-118890904D01*
X157770095Y-118652809D01*
X157722476Y-118557571D01*
X157674857Y-118509952D01*
X157579619Y-118462333D01*
X157389142Y-118462333D01*
X157293904Y-118509952D01*
X157246285Y-118557571D01*
X157198666Y-118652809D01*
%TO.C,S60*%
X82056404Y-119033761D02*
X82199261Y-119081380D01*
X82437357Y-119081380D01*
X82532595Y-119033761D01*
X82580214Y-118986142D01*
X82627833Y-118890904D01*
X82627833Y-118795666D01*
X82580214Y-118700428D01*
X82532595Y-118652809D01*
X82437357Y-118605190D01*
X82246880Y-118557571D01*
X82151642Y-118509952D01*
X82104023Y-118462333D01*
X82056404Y-118367095D01*
X82056404Y-118271857D01*
X82104023Y-118176619D01*
X82151642Y-118129000D01*
X82246880Y-118081380D01*
X82484976Y-118081380D01*
X82627833Y-118129000D01*
X83484976Y-118081380D02*
X83294500Y-118081380D01*
X83199261Y-118129000D01*
X83151642Y-118176619D01*
X83056404Y-118319476D01*
X83008785Y-118509952D01*
X83008785Y-118890904D01*
X83056404Y-118986142D01*
X83104023Y-119033761D01*
X83199261Y-119081380D01*
X83389738Y-119081380D01*
X83484976Y-119033761D01*
X83532595Y-118986142D01*
X83580214Y-118890904D01*
X83580214Y-118652809D01*
X83532595Y-118557571D01*
X83484976Y-118509952D01*
X83389738Y-118462333D01*
X83199261Y-118462333D01*
X83104023Y-118509952D01*
X83056404Y-118557571D01*
X83008785Y-118652809D01*
X84199261Y-118081380D02*
X84294500Y-118081380D01*
X84389738Y-118129000D01*
X84437357Y-118176619D01*
X84484976Y-118271857D01*
X84532595Y-118462333D01*
X84532595Y-118700428D01*
X84484976Y-118890904D01*
X84437357Y-118986142D01*
X84389738Y-119033761D01*
X84294500Y-119081380D01*
X84199261Y-119081380D01*
X84104023Y-119033761D01*
X84056404Y-118986142D01*
X84008785Y-118890904D01*
X83961166Y-118700428D01*
X83961166Y-118462333D01*
X84008785Y-118271857D01*
X84056404Y-118176619D01*
X84104023Y-118129000D01*
X84199261Y-118081380D01*
%TO.C,S15*%
X25356404Y-79133761D02*
X25499261Y-79181380D01*
X25737357Y-79181380D01*
X25832595Y-79133761D01*
X25880214Y-79086142D01*
X25927833Y-78990904D01*
X25927833Y-78895666D01*
X25880214Y-78800428D01*
X25832595Y-78752809D01*
X25737357Y-78705190D01*
X25546880Y-78657571D01*
X25451642Y-78609952D01*
X25404023Y-78562333D01*
X25356404Y-78467095D01*
X25356404Y-78371857D01*
X25404023Y-78276619D01*
X25451642Y-78229000D01*
X25546880Y-78181380D01*
X25784976Y-78181380D01*
X25927833Y-78229000D01*
X26880214Y-79181380D02*
X26308785Y-79181380D01*
X26594500Y-79181380D02*
X26594500Y-78181380D01*
X26499261Y-78324238D01*
X26404023Y-78419476D01*
X26308785Y-78467095D01*
X27784976Y-78181380D02*
X27308785Y-78181380D01*
X27261166Y-78657571D01*
X27308785Y-78609952D01*
X27404023Y-78562333D01*
X27642119Y-78562333D01*
X27737357Y-78609952D01*
X27784976Y-78657571D01*
X27832595Y-78752809D01*
X27832595Y-78990904D01*
X27784976Y-79086142D01*
X27737357Y-79133761D01*
X27642119Y-79181380D01*
X27404023Y-79181380D01*
X27308785Y-79133761D01*
X27261166Y-79086142D01*
%TO.C,S43*%
X41893904Y-105733761D02*
X42036761Y-105781380D01*
X42274857Y-105781380D01*
X42370095Y-105733761D01*
X42417714Y-105686142D01*
X42465333Y-105590904D01*
X42465333Y-105495666D01*
X42417714Y-105400428D01*
X42370095Y-105352809D01*
X42274857Y-105305190D01*
X42084380Y-105257571D01*
X41989142Y-105209952D01*
X41941523Y-105162333D01*
X41893904Y-105067095D01*
X41893904Y-104971857D01*
X41941523Y-104876619D01*
X41989142Y-104829000D01*
X42084380Y-104781380D01*
X42322476Y-104781380D01*
X42465333Y-104829000D01*
X43322476Y-105114714D02*
X43322476Y-105781380D01*
X43084380Y-104733761D02*
X42846285Y-105448047D01*
X43465333Y-105448047D01*
X43751047Y-104781380D02*
X44370095Y-104781380D01*
X44036761Y-105162333D01*
X44179619Y-105162333D01*
X44274857Y-105209952D01*
X44322476Y-105257571D01*
X44370095Y-105352809D01*
X44370095Y-105590904D01*
X44322476Y-105686142D01*
X44274857Y-105733761D01*
X44179619Y-105781380D01*
X43893904Y-105781380D01*
X43798666Y-105733761D01*
X43751047Y-105686142D01*
%TO.C,S54*%
X145843904Y-105733761D02*
X145986761Y-105781380D01*
X146224857Y-105781380D01*
X146320095Y-105733761D01*
X146367714Y-105686142D01*
X146415333Y-105590904D01*
X146415333Y-105495666D01*
X146367714Y-105400428D01*
X146320095Y-105352809D01*
X146224857Y-105305190D01*
X146034380Y-105257571D01*
X145939142Y-105209952D01*
X145891523Y-105162333D01*
X145843904Y-105067095D01*
X145843904Y-104971857D01*
X145891523Y-104876619D01*
X145939142Y-104829000D01*
X146034380Y-104781380D01*
X146272476Y-104781380D01*
X146415333Y-104829000D01*
X147320095Y-104781380D02*
X146843904Y-104781380D01*
X146796285Y-105257571D01*
X146843904Y-105209952D01*
X146939142Y-105162333D01*
X147177238Y-105162333D01*
X147272476Y-105209952D01*
X147320095Y-105257571D01*
X147367714Y-105352809D01*
X147367714Y-105590904D01*
X147320095Y-105686142D01*
X147272476Y-105733761D01*
X147177238Y-105781380D01*
X146939142Y-105781380D01*
X146843904Y-105733761D01*
X146796285Y-105686142D01*
X148224857Y-105114714D02*
X148224857Y-105781380D01*
X147986761Y-104733761D02*
X147748666Y-105448047D01*
X148367714Y-105448047D01*
%TO.C,S58*%
X53706404Y-119033761D02*
X53849261Y-119081380D01*
X54087357Y-119081380D01*
X54182595Y-119033761D01*
X54230214Y-118986142D01*
X54277833Y-118890904D01*
X54277833Y-118795666D01*
X54230214Y-118700428D01*
X54182595Y-118652809D01*
X54087357Y-118605190D01*
X53896880Y-118557571D01*
X53801642Y-118509952D01*
X53754023Y-118462333D01*
X53706404Y-118367095D01*
X53706404Y-118271857D01*
X53754023Y-118176619D01*
X53801642Y-118129000D01*
X53896880Y-118081380D01*
X54134976Y-118081380D01*
X54277833Y-118129000D01*
X55182595Y-118081380D02*
X54706404Y-118081380D01*
X54658785Y-118557571D01*
X54706404Y-118509952D01*
X54801642Y-118462333D01*
X55039738Y-118462333D01*
X55134976Y-118509952D01*
X55182595Y-118557571D01*
X55230214Y-118652809D01*
X55230214Y-118890904D01*
X55182595Y-118986142D01*
X55134976Y-119033761D01*
X55039738Y-119081380D01*
X54801642Y-119081380D01*
X54706404Y-119033761D01*
X54658785Y-118986142D01*
X55801642Y-118509952D02*
X55706404Y-118462333D01*
X55658785Y-118414714D01*
X55611166Y-118319476D01*
X55611166Y-118271857D01*
X55658785Y-118176619D01*
X55706404Y-118129000D01*
X55801642Y-118081380D01*
X55992119Y-118081380D01*
X56087357Y-118129000D01*
X56134976Y-118176619D01*
X56182595Y-118271857D01*
X56182595Y-118319476D01*
X56134976Y-118414714D01*
X56087357Y-118462333D01*
X55992119Y-118509952D01*
X55801642Y-118509952D01*
X55706404Y-118557571D01*
X55658785Y-118605190D01*
X55611166Y-118700428D01*
X55611166Y-118890904D01*
X55658785Y-118986142D01*
X55706404Y-119033761D01*
X55801642Y-119081380D01*
X55992119Y-119081380D01*
X56087357Y-119033761D01*
X56134976Y-118986142D01*
X56182595Y-118890904D01*
X56182595Y-118700428D01*
X56134976Y-118605190D01*
X56087357Y-118557571D01*
X55992119Y-118509952D01*
%TO.C,J1*%
X25019380Y-57117333D02*
X25733666Y-57117333D01*
X25876523Y-57164952D01*
X25971761Y-57260190D01*
X26019380Y-57403047D01*
X26019380Y-57498285D01*
X26019380Y-56117333D02*
X26019380Y-56688761D01*
X26019380Y-56403047D02*
X25019380Y-56403047D01*
X25162238Y-56498285D01*
X25257476Y-56593523D01*
X25305095Y-56688761D01*
%TO.C,S3*%
X42370095Y-65833761D02*
X42512952Y-65881380D01*
X42751047Y-65881380D01*
X42846285Y-65833761D01*
X42893904Y-65786142D01*
X42941523Y-65690904D01*
X42941523Y-65595666D01*
X42893904Y-65500428D01*
X42846285Y-65452809D01*
X42751047Y-65405190D01*
X42560571Y-65357571D01*
X42465333Y-65309952D01*
X42417714Y-65262333D01*
X42370095Y-65167095D01*
X42370095Y-65071857D01*
X42417714Y-64976619D01*
X42465333Y-64929000D01*
X42560571Y-64881380D01*
X42798666Y-64881380D01*
X42941523Y-64929000D01*
X43274857Y-64881380D02*
X43893904Y-64881380D01*
X43560571Y-65262333D01*
X43703428Y-65262333D01*
X43798666Y-65309952D01*
X43846285Y-65357571D01*
X43893904Y-65452809D01*
X43893904Y-65690904D01*
X43846285Y-65786142D01*
X43798666Y-65833761D01*
X43703428Y-65881380D01*
X43417714Y-65881380D01*
X43322476Y-65833761D01*
X43274857Y-65786142D01*
%TO.C,H1*%
X14740095Y-56078380D02*
X14740095Y-55078380D01*
X14740095Y-55554571D02*
X15311523Y-55554571D01*
X15311523Y-56078380D02*
X15311523Y-55078380D01*
X16311523Y-56078380D02*
X15740095Y-56078380D01*
X16025809Y-56078380D02*
X16025809Y-55078380D01*
X15930571Y-55221238D01*
X15835333Y-55316476D01*
X15740095Y-55364095D01*
%TO.C,H2*%
X164254595Y-53284380D02*
X164254595Y-52284380D01*
X164254595Y-52760571D02*
X164826023Y-52760571D01*
X164826023Y-53284380D02*
X164826023Y-52284380D01*
X165254595Y-52379619D02*
X165302214Y-52332000D01*
X165397452Y-52284380D01*
X165635547Y-52284380D01*
X165730785Y-52332000D01*
X165778404Y-52379619D01*
X165826023Y-52474857D01*
X165826023Y-52570095D01*
X165778404Y-52712952D01*
X165206976Y-53284380D01*
X165826023Y-53284380D01*
%TO.C,H4*%
X104163845Y-131261380D02*
X104163845Y-130261380D01*
X104163845Y-130737571D02*
X104735273Y-130737571D01*
X104735273Y-131261380D02*
X104735273Y-130261380D01*
X105640035Y-130594714D02*
X105640035Y-131261380D01*
X105401940Y-130213761D02*
X105163845Y-130928047D01*
X105782892Y-130928047D01*
%TO.C,J3*%
X87590380Y-56213333D02*
X88304666Y-56213333D01*
X88447523Y-56260952D01*
X88542761Y-56356190D01*
X88590380Y-56499047D01*
X88590380Y-56594285D01*
X87590380Y-55832380D02*
X87590380Y-55213333D01*
X87971333Y-55546666D01*
X87971333Y-55403809D01*
X88018952Y-55308571D01*
X88066571Y-55260952D01*
X88161809Y-55213333D01*
X88399904Y-55213333D01*
X88495142Y-55260952D01*
X88542761Y-55308571D01*
X88590380Y-55403809D01*
X88590380Y-55689523D01*
X88542761Y-55784761D01*
X88495142Y-55832380D01*
%TO.C,D65*%
X146942714Y-57871380D02*
X146942714Y-56871380D01*
X147180809Y-56871380D01*
X147323666Y-56919000D01*
X147418904Y-57014238D01*
X147466523Y-57109476D01*
X147514142Y-57299952D01*
X147514142Y-57442809D01*
X147466523Y-57633285D01*
X147418904Y-57728523D01*
X147323666Y-57823761D01*
X147180809Y-57871380D01*
X146942714Y-57871380D01*
X148371285Y-56871380D02*
X148180809Y-56871380D01*
X148085571Y-56919000D01*
X148037952Y-56966619D01*
X147942714Y-57109476D01*
X147895095Y-57299952D01*
X147895095Y-57680904D01*
X147942714Y-57776142D01*
X147990333Y-57823761D01*
X148085571Y-57871380D01*
X148276047Y-57871380D01*
X148371285Y-57823761D01*
X148418904Y-57776142D01*
X148466523Y-57680904D01*
X148466523Y-57442809D01*
X148418904Y-57347571D01*
X148371285Y-57299952D01*
X148276047Y-57252333D01*
X148085571Y-57252333D01*
X147990333Y-57299952D01*
X147942714Y-57347571D01*
X147895095Y-57442809D01*
X149371285Y-56871380D02*
X148895095Y-56871380D01*
X148847476Y-57347571D01*
X148895095Y-57299952D01*
X148990333Y-57252333D01*
X149228428Y-57252333D01*
X149323666Y-57299952D01*
X149371285Y-57347571D01*
X149418904Y-57442809D01*
X149418904Y-57680904D01*
X149371285Y-57776142D01*
X149323666Y-57823761D01*
X149228428Y-57871380D01*
X148990333Y-57871380D01*
X148895095Y-57823761D01*
X148847476Y-57776142D01*
%TO.C,R2*%
X110280333Y-59776380D02*
X109947000Y-59300190D01*
X109708904Y-59776380D02*
X109708904Y-58776380D01*
X110089857Y-58776380D01*
X110185095Y-58824000D01*
X110232714Y-58871619D01*
X110280333Y-58966857D01*
X110280333Y-59109714D01*
X110232714Y-59204952D01*
X110185095Y-59252571D01*
X110089857Y-59300190D01*
X109708904Y-59300190D01*
X110661285Y-58871619D02*
X110708904Y-58824000D01*
X110804142Y-58776380D01*
X111042238Y-58776380D01*
X111137476Y-58824000D01*
X111185095Y-58871619D01*
X111232714Y-58966857D01*
X111232714Y-59062095D01*
X111185095Y-59204952D01*
X110613666Y-59776380D01*
X111232714Y-59776380D01*
%TO.C,D67*%
X124227714Y-57871380D02*
X124227714Y-56871380D01*
X124465809Y-56871380D01*
X124608666Y-56919000D01*
X124703904Y-57014238D01*
X124751523Y-57109476D01*
X124799142Y-57299952D01*
X124799142Y-57442809D01*
X124751523Y-57633285D01*
X124703904Y-57728523D01*
X124608666Y-57823761D01*
X124465809Y-57871380D01*
X124227714Y-57871380D01*
X125656285Y-56871380D02*
X125465809Y-56871380D01*
X125370571Y-56919000D01*
X125322952Y-56966619D01*
X125227714Y-57109476D01*
X125180095Y-57299952D01*
X125180095Y-57680904D01*
X125227714Y-57776142D01*
X125275333Y-57823761D01*
X125370571Y-57871380D01*
X125561047Y-57871380D01*
X125656285Y-57823761D01*
X125703904Y-57776142D01*
X125751523Y-57680904D01*
X125751523Y-57442809D01*
X125703904Y-57347571D01*
X125656285Y-57299952D01*
X125561047Y-57252333D01*
X125370571Y-57252333D01*
X125275333Y-57299952D01*
X125227714Y-57347571D01*
X125180095Y-57442809D01*
X126084857Y-56871380D02*
X126751523Y-56871380D01*
X126322952Y-57871380D01*
%TO.C,D66*%
X135267714Y-57871380D02*
X135267714Y-56871380D01*
X135505809Y-56871380D01*
X135648666Y-56919000D01*
X135743904Y-57014238D01*
X135791523Y-57109476D01*
X135839142Y-57299952D01*
X135839142Y-57442809D01*
X135791523Y-57633285D01*
X135743904Y-57728523D01*
X135648666Y-57823761D01*
X135505809Y-57871380D01*
X135267714Y-57871380D01*
X136696285Y-56871380D02*
X136505809Y-56871380D01*
X136410571Y-56919000D01*
X136362952Y-56966619D01*
X136267714Y-57109476D01*
X136220095Y-57299952D01*
X136220095Y-57680904D01*
X136267714Y-57776142D01*
X136315333Y-57823761D01*
X136410571Y-57871380D01*
X136601047Y-57871380D01*
X136696285Y-57823761D01*
X136743904Y-57776142D01*
X136791523Y-57680904D01*
X136791523Y-57442809D01*
X136743904Y-57347571D01*
X136696285Y-57299952D01*
X136601047Y-57252333D01*
X136410571Y-57252333D01*
X136315333Y-57299952D01*
X136267714Y-57347571D01*
X136220095Y-57442809D01*
X137648666Y-56871380D02*
X137458190Y-56871380D01*
X137362952Y-56919000D01*
X137315333Y-56966619D01*
X137220095Y-57109476D01*
X137172476Y-57299952D01*
X137172476Y-57680904D01*
X137220095Y-57776142D01*
X137267714Y-57823761D01*
X137362952Y-57871380D01*
X137553428Y-57871380D01*
X137648666Y-57823761D01*
X137696285Y-57776142D01*
X137743904Y-57680904D01*
X137743904Y-57442809D01*
X137696285Y-57347571D01*
X137648666Y-57299952D01*
X137553428Y-57252333D01*
X137362952Y-57252333D01*
X137267714Y-57299952D01*
X137220095Y-57347571D01*
X137172476Y-57442809D01*
%TO.C,H3*%
X64001345Y-130927380D02*
X64001345Y-129927380D01*
X64001345Y-130403571D02*
X64572773Y-130403571D01*
X64572773Y-130927380D02*
X64572773Y-129927380D01*
X64953726Y-129927380D02*
X65572773Y-129927380D01*
X65239440Y-130308333D01*
X65382297Y-130308333D01*
X65477535Y-130355952D01*
X65525154Y-130403571D01*
X65572773Y-130498809D01*
X65572773Y-130736904D01*
X65525154Y-130832142D01*
X65477535Y-130879761D01*
X65382297Y-130927380D01*
X65096583Y-130927380D01*
X65001345Y-130879761D01*
X64953726Y-130832142D01*
%TO.C,R1*%
X106470333Y-59776380D02*
X106137000Y-59300190D01*
X105898904Y-59776380D02*
X105898904Y-58776380D01*
X106279857Y-58776380D01*
X106375095Y-58824000D01*
X106422714Y-58871619D01*
X106470333Y-58966857D01*
X106470333Y-59109714D01*
X106422714Y-59204952D01*
X106375095Y-59252571D01*
X106279857Y-59300190D01*
X105898904Y-59300190D01*
X107422714Y-59776380D02*
X106851285Y-59776380D01*
X107137000Y-59776380D02*
X107137000Y-58776380D01*
X107041761Y-58919238D01*
X106946523Y-59014476D01*
X106851285Y-59062095D01*
%TO.C,S2*%
X32920095Y-65833761D02*
X33062952Y-65881380D01*
X33301047Y-65881380D01*
X33396285Y-65833761D01*
X33443904Y-65786142D01*
X33491523Y-65690904D01*
X33491523Y-65595666D01*
X33443904Y-65500428D01*
X33396285Y-65452809D01*
X33301047Y-65405190D01*
X33110571Y-65357571D01*
X33015333Y-65309952D01*
X32967714Y-65262333D01*
X32920095Y-65167095D01*
X32920095Y-65071857D01*
X32967714Y-64976619D01*
X33015333Y-64929000D01*
X33110571Y-64881380D01*
X33348666Y-64881380D01*
X33491523Y-64929000D01*
X33872476Y-64976619D02*
X33920095Y-64929000D01*
X34015333Y-64881380D01*
X34253428Y-64881380D01*
X34348666Y-64929000D01*
X34396285Y-64976619D01*
X34443904Y-65071857D01*
X34443904Y-65167095D01*
X34396285Y-65309952D01*
X33824857Y-65881380D01*
X34443904Y-65881380D01*
%TO.C,S1*%
X23470095Y-65833761D02*
X23612952Y-65881380D01*
X23851047Y-65881380D01*
X23946285Y-65833761D01*
X23993904Y-65786142D01*
X24041523Y-65690904D01*
X24041523Y-65595666D01*
X23993904Y-65500428D01*
X23946285Y-65452809D01*
X23851047Y-65405190D01*
X23660571Y-65357571D01*
X23565333Y-65309952D01*
X23517714Y-65262333D01*
X23470095Y-65167095D01*
X23470095Y-65071857D01*
X23517714Y-64976619D01*
X23565333Y-64929000D01*
X23660571Y-64881380D01*
X23898666Y-64881380D01*
X24041523Y-64929000D01*
X24993904Y-65881380D02*
X24422476Y-65881380D01*
X24708190Y-65881380D02*
X24708190Y-64881380D01*
X24612952Y-65024238D01*
X24517714Y-65119476D01*
X24422476Y-65167095D01*
%TO.C,J2*%
X42164380Y-57117333D02*
X42878666Y-57117333D01*
X43021523Y-57164952D01*
X43116761Y-57260190D01*
X43164380Y-57403047D01*
X43164380Y-57498285D01*
X42259619Y-56688761D02*
X42212000Y-56641142D01*
X42164380Y-56545904D01*
X42164380Y-56307809D01*
X42212000Y-56212571D01*
X42259619Y-56164952D01*
X42354857Y-56117333D01*
X42450095Y-56117333D01*
X42592952Y-56164952D01*
X43164380Y-56736380D01*
X43164380Y-56117333D01*
%TO.C,R3*%
X114725333Y-59776380D02*
X114392000Y-59300190D01*
X114153904Y-59776380D02*
X114153904Y-58776380D01*
X114534857Y-58776380D01*
X114630095Y-58824000D01*
X114677714Y-58871619D01*
X114725333Y-58966857D01*
X114725333Y-59109714D01*
X114677714Y-59204952D01*
X114630095Y-59252571D01*
X114534857Y-59300190D01*
X114153904Y-59300190D01*
X115058666Y-58776380D02*
X115677714Y-58776380D01*
X115344380Y-59157333D01*
X115487238Y-59157333D01*
X115582476Y-59204952D01*
X115630095Y-59252571D01*
X115677714Y-59347809D01*
X115677714Y-59585904D01*
X115630095Y-59681142D01*
X115582476Y-59728761D01*
X115487238Y-59776380D01*
X115201523Y-59776380D01*
X115106285Y-59728761D01*
X115058666Y-59681142D01*
%TO.C,S59*%
X71630654Y-119033761D02*
X71773511Y-119081380D01*
X72011607Y-119081380D01*
X72106845Y-119033761D01*
X72154464Y-118986142D01*
X72202083Y-118890904D01*
X72202083Y-118795666D01*
X72154464Y-118700428D01*
X72106845Y-118652809D01*
X72011607Y-118605190D01*
X71821130Y-118557571D01*
X71725892Y-118509952D01*
X71678273Y-118462333D01*
X71630654Y-118367095D01*
X71630654Y-118271857D01*
X71678273Y-118176619D01*
X71725892Y-118129000D01*
X71821130Y-118081380D01*
X72059226Y-118081380D01*
X72202083Y-118129000D01*
X73106845Y-118081380D02*
X72630654Y-118081380D01*
X72583035Y-118557571D01*
X72630654Y-118509952D01*
X72725892Y-118462333D01*
X72963988Y-118462333D01*
X73059226Y-118509952D01*
X73106845Y-118557571D01*
X73154464Y-118652809D01*
X73154464Y-118890904D01*
X73106845Y-118986142D01*
X73059226Y-119033761D01*
X72963988Y-119081380D01*
X72725892Y-119081380D01*
X72630654Y-119033761D01*
X72583035Y-118986142D01*
X73630654Y-119081380D02*
X73821130Y-119081380D01*
X73916369Y-119033761D01*
X73963988Y-118986142D01*
X74059226Y-118843285D01*
X74106845Y-118652809D01*
X74106845Y-118271857D01*
X74059226Y-118176619D01*
X74011607Y-118129000D01*
X73916369Y-118081380D01*
X73725892Y-118081380D01*
X73630654Y-118129000D01*
X73583035Y-118176619D01*
X73535416Y-118271857D01*
X73535416Y-118509952D01*
X73583035Y-118605190D01*
X73630654Y-118652809D01*
X73725892Y-118700428D01*
X73916369Y-118700428D01*
X74011607Y-118652809D01*
X74059226Y-118605190D01*
X74106845Y-118509952D01*
%TO.C,S61*%
X92893154Y-119033761D02*
X93036011Y-119081380D01*
X93274107Y-119081380D01*
X93369345Y-119033761D01*
X93416964Y-118986142D01*
X93464583Y-118890904D01*
X93464583Y-118795666D01*
X93416964Y-118700428D01*
X93369345Y-118652809D01*
X93274107Y-118605190D01*
X93083630Y-118557571D01*
X92988392Y-118509952D01*
X92940773Y-118462333D01*
X92893154Y-118367095D01*
X92893154Y-118271857D01*
X92940773Y-118176619D01*
X92988392Y-118129000D01*
X93083630Y-118081380D01*
X93321726Y-118081380D01*
X93464583Y-118129000D01*
X94321726Y-118081380D02*
X94131250Y-118081380D01*
X94036011Y-118129000D01*
X93988392Y-118176619D01*
X93893154Y-118319476D01*
X93845535Y-118509952D01*
X93845535Y-118890904D01*
X93893154Y-118986142D01*
X93940773Y-119033761D01*
X94036011Y-119081380D01*
X94226488Y-119081380D01*
X94321726Y-119033761D01*
X94369345Y-118986142D01*
X94416964Y-118890904D01*
X94416964Y-118652809D01*
X94369345Y-118557571D01*
X94321726Y-118509952D01*
X94226488Y-118462333D01*
X94036011Y-118462333D01*
X93940773Y-118509952D01*
X93893154Y-118557571D01*
X93845535Y-118652809D01*
X95369345Y-119081380D02*
X94797916Y-119081380D01*
X95083630Y-119081380D02*
X95083630Y-118081380D01*
X94988392Y-118224238D01*
X94893154Y-118319476D01*
X94797916Y-118367095D01*
%TO.C,H8*%
X85344095Y-53792380D02*
X85344095Y-52792380D01*
X85344095Y-53268571D02*
X85915523Y-53268571D01*
X85915523Y-53792380D02*
X85915523Y-52792380D01*
X86534571Y-53220952D02*
X86439333Y-53173333D01*
X86391714Y-53125714D01*
X86344095Y-53030476D01*
X86344095Y-52982857D01*
X86391714Y-52887619D01*
X86439333Y-52840000D01*
X86534571Y-52792380D01*
X86725047Y-52792380D01*
X86820285Y-52840000D01*
X86867904Y-52887619D01*
X86915523Y-52982857D01*
X86915523Y-53030476D01*
X86867904Y-53125714D01*
X86820285Y-53173333D01*
X86725047Y-53220952D01*
X86534571Y-53220952D01*
X86439333Y-53268571D01*
X86391714Y-53316190D01*
X86344095Y-53411428D01*
X86344095Y-53601904D01*
X86391714Y-53697142D01*
X86439333Y-53744761D01*
X86534571Y-53792380D01*
X86725047Y-53792380D01*
X86820285Y-53744761D01*
X86867904Y-53697142D01*
X86915523Y-53601904D01*
X86915523Y-53411428D01*
X86867904Y-53316190D01*
X86820285Y-53268571D01*
X86725047Y-53220952D01*
%TO.C,H5*%
X34417095Y-129310380D02*
X34417095Y-128310380D01*
X34417095Y-128786571D02*
X34988523Y-128786571D01*
X34988523Y-129310380D02*
X34988523Y-128310380D01*
X35940904Y-128310380D02*
X35464714Y-128310380D01*
X35417095Y-128786571D01*
X35464714Y-128738952D01*
X35559952Y-128691333D01*
X35798047Y-128691333D01*
X35893285Y-128738952D01*
X35940904Y-128786571D01*
X35988523Y-128881809D01*
X35988523Y-129119904D01*
X35940904Y-129215142D01*
X35893285Y-129262761D01*
X35798047Y-129310380D01*
X35559952Y-129310380D01*
X35464714Y-129262761D01*
X35417095Y-129215142D01*
%TO.C,H7*%
X163576095Y-94432380D02*
X163576095Y-93432380D01*
X163576095Y-93908571D02*
X164147523Y-93908571D01*
X164147523Y-94432380D02*
X164147523Y-93432380D01*
X164528476Y-93432380D02*
X165195142Y-93432380D01*
X164766571Y-94432380D01*
%TO.C,H6*%
X18542095Y-107132380D02*
X18542095Y-106132380D01*
X18542095Y-106608571D02*
X19113523Y-106608571D01*
X19113523Y-107132380D02*
X19113523Y-106132380D01*
X20018285Y-106132380D02*
X19827809Y-106132380D01*
X19732571Y-106180000D01*
X19684952Y-106227619D01*
X19589714Y-106370476D01*
X19542095Y-106560952D01*
X19542095Y-106941904D01*
X19589714Y-107037142D01*
X19637333Y-107084761D01*
X19732571Y-107132380D01*
X19923047Y-107132380D01*
X20018285Y-107084761D01*
X20065904Y-107037142D01*
X20113523Y-106941904D01*
X20113523Y-106703809D01*
X20065904Y-106608571D01*
X20018285Y-106560952D01*
X19923047Y-106513333D01*
X19732571Y-106513333D01*
X19637333Y-106560952D01*
X19589714Y-106608571D01*
X19542095Y-106703809D01*
D12*
%TO.C,S4*%
X58582000Y-74064200D02*
X49682000Y-74064200D01*
X58582000Y-61264200D02*
X58582000Y-74064200D01*
X49682000Y-74064200D02*
X49682000Y-61264200D01*
X49682000Y-61264200D02*
X58582000Y-61264200D01*
D11*
X54232000Y-60264200D02*
G75*
G03*
X54232000Y-60264200I-100000J0D01*
G01*
D12*
%TO.C,S5*%
X68032000Y-61264200D02*
X68032000Y-74064200D01*
X68032000Y-74064200D02*
X59132000Y-74064200D01*
X59132000Y-61264200D02*
X68032000Y-61264200D01*
X59132000Y-74064200D02*
X59132000Y-61264200D01*
D11*
X63682000Y-60264200D02*
G75*
G03*
X63682000Y-60264200I-100000J0D01*
G01*
D12*
%TO.C,S6*%
X68582000Y-61264200D02*
X77482000Y-61264200D01*
X77482000Y-61264200D02*
X77482000Y-74064200D01*
X68582000Y-74064200D02*
X68582000Y-61264200D01*
X77482000Y-74064200D02*
X68582000Y-74064200D01*
D11*
X73132000Y-60264200D02*
G75*
G03*
X73132000Y-60264200I-100000J0D01*
G01*
D12*
%TO.C,S7*%
X86932000Y-61264200D02*
X86932000Y-74064200D01*
X78032000Y-74064200D02*
X78032000Y-61264200D01*
X86932000Y-74064200D02*
X78032000Y-74064200D01*
X78032000Y-61264200D02*
X86932000Y-61264200D01*
D11*
X82582000Y-60264200D02*
G75*
G03*
X82582000Y-60264200I-100000J0D01*
G01*
D12*
%TO.C,S8*%
X87482000Y-74064200D02*
X87482000Y-61264200D01*
X87482000Y-61264200D02*
X96382000Y-61264200D01*
X96382000Y-61264200D02*
X96382000Y-74064200D01*
X96382000Y-74064200D02*
X87482000Y-74064200D01*
D11*
X92032000Y-60264200D02*
G75*
G03*
X92032000Y-60264200I-100000J0D01*
G01*
D12*
%TO.C,S9*%
X96932000Y-74064200D02*
X96932000Y-61264200D01*
X96932000Y-61264200D02*
X105832000Y-61264200D01*
X105832000Y-74064200D02*
X96932000Y-74064200D01*
X105832000Y-61264200D02*
X105832000Y-74064200D01*
D11*
X101482000Y-60264200D02*
G75*
G03*
X101482000Y-60264200I-100000J0D01*
G01*
D12*
%TO.C,S10*%
X115282000Y-61264200D02*
X115282000Y-74064200D01*
X106382000Y-61264200D02*
X115282000Y-61264200D01*
X115282000Y-74064200D02*
X106382000Y-74064200D01*
X106382000Y-74064200D02*
X106382000Y-61264200D01*
D11*
X110932000Y-60264200D02*
G75*
G03*
X110932000Y-60264200I-100000J0D01*
G01*
D12*
%TO.C,S11*%
X115832000Y-74064200D02*
X115832000Y-61264200D01*
X124732000Y-61264200D02*
X124732000Y-74064200D01*
X115832000Y-61264200D02*
X124732000Y-61264200D01*
X124732000Y-74064200D02*
X115832000Y-74064200D01*
D11*
X120382000Y-60264200D02*
G75*
G03*
X120382000Y-60264200I-100000J0D01*
G01*
D12*
%TO.C,S12*%
X125282000Y-74064200D02*
X125282000Y-61264200D01*
X125282000Y-61264200D02*
X134182000Y-61264200D01*
X134182000Y-74064200D02*
X125282000Y-74064200D01*
X134182000Y-61264200D02*
X134182000Y-74064200D01*
D11*
X129832000Y-60264200D02*
G75*
G03*
X129832000Y-60264200I-100000J0D01*
G01*
D12*
%TO.C,S13*%
X134732000Y-74064200D02*
X134732000Y-61264200D01*
X143632000Y-61264200D02*
X143632000Y-74064200D01*
X143632000Y-74064200D02*
X134732000Y-74064200D01*
X134732000Y-61264200D02*
X143632000Y-61264200D01*
D11*
X139282000Y-60264200D02*
G75*
G03*
X139282000Y-60264200I-100000J0D01*
G01*
D12*
%TO.C,S14*%
X147725750Y-74064200D02*
X147725750Y-61264200D01*
X147725750Y-61264200D02*
X156625750Y-61264200D01*
X156625750Y-61264200D02*
X156625750Y-74064200D01*
X156625750Y-74064200D02*
X147725750Y-74064200D01*
D11*
X152275750Y-60264200D02*
G75*
G03*
X152275750Y-60264200I-100000J0D01*
G01*
D12*
%TO.C,S16*%
X44407000Y-74564200D02*
X44407000Y-87364200D01*
X35507000Y-74564200D02*
X44407000Y-74564200D01*
X44407000Y-87364200D02*
X35507000Y-87364200D01*
X35507000Y-87364200D02*
X35507000Y-74564200D01*
D11*
X40057000Y-73564200D02*
G75*
G03*
X40057000Y-73564200I-100000J0D01*
G01*
D12*
%TO.C,S17*%
X44957000Y-74564200D02*
X53857000Y-74564200D01*
X53857000Y-87364200D02*
X44957000Y-87364200D01*
X53857000Y-74564200D02*
X53857000Y-87364200D01*
X44957000Y-87364200D02*
X44957000Y-74564200D01*
D11*
X49507000Y-73564200D02*
G75*
G03*
X49507000Y-73564200I-100000J0D01*
G01*
D12*
%TO.C,S18*%
X54407000Y-87364200D02*
X54407000Y-74564200D01*
X63307000Y-87364200D02*
X54407000Y-87364200D01*
X54407000Y-74564200D02*
X63307000Y-74564200D01*
X63307000Y-74564200D02*
X63307000Y-87364200D01*
D11*
X58957000Y-73564200D02*
G75*
G03*
X58957000Y-73564200I-100000J0D01*
G01*
D12*
%TO.C,S19*%
X63857000Y-87364200D02*
X63857000Y-74564200D01*
X72757000Y-74564200D02*
X72757000Y-87364200D01*
X72757000Y-87364200D02*
X63857000Y-87364200D01*
X63857000Y-74564200D02*
X72757000Y-74564200D01*
D11*
X68407000Y-73564200D02*
G75*
G03*
X68407000Y-73564200I-100000J0D01*
G01*
D12*
%TO.C,S20*%
X82207000Y-74564200D02*
X82207000Y-87364200D01*
X82207000Y-87364200D02*
X73307000Y-87364200D01*
X73307000Y-74564200D02*
X82207000Y-74564200D01*
X73307000Y-87364200D02*
X73307000Y-74564200D01*
D11*
X77857000Y-73564200D02*
G75*
G03*
X77857000Y-73564200I-100000J0D01*
G01*
D12*
%TO.C,S21*%
X91657000Y-74564200D02*
X91657000Y-87364200D01*
X82757000Y-87364200D02*
X82757000Y-74564200D01*
X82757000Y-74564200D02*
X91657000Y-74564200D01*
X91657000Y-87364200D02*
X82757000Y-87364200D01*
D11*
X87307000Y-73564200D02*
G75*
G03*
X87307000Y-73564200I-100000J0D01*
G01*
D12*
%TO.C,S22*%
X101107000Y-87364200D02*
X92207000Y-87364200D01*
X101107000Y-74564200D02*
X101107000Y-87364200D01*
X92207000Y-87364200D02*
X92207000Y-74564200D01*
X92207000Y-74564200D02*
X101107000Y-74564200D01*
D11*
X96757000Y-73564200D02*
G75*
G03*
X96757000Y-73564200I-100000J0D01*
G01*
D12*
%TO.C,S23*%
X101657000Y-87364200D02*
X101657000Y-74564200D01*
X110557000Y-87364200D02*
X101657000Y-87364200D01*
X101657000Y-74564200D02*
X110557000Y-74564200D01*
X110557000Y-74564200D02*
X110557000Y-87364200D01*
D11*
X106207000Y-73564200D02*
G75*
G03*
X106207000Y-73564200I-100000J0D01*
G01*
D12*
%TO.C,S24*%
X111107000Y-74564200D02*
X120007000Y-74564200D01*
X120007000Y-87364200D02*
X111107000Y-87364200D01*
X111107000Y-87364200D02*
X111107000Y-74564200D01*
X120007000Y-74564200D02*
X120007000Y-87364200D01*
D11*
X115657000Y-73564200D02*
G75*
G03*
X115657000Y-73564200I-100000J0D01*
G01*
D12*
%TO.C,S25*%
X129457000Y-74564200D02*
X129457000Y-87364200D01*
X120557000Y-74564200D02*
X129457000Y-74564200D01*
X129457000Y-87364200D02*
X120557000Y-87364200D01*
X120557000Y-87364200D02*
X120557000Y-74564200D01*
D11*
X125107000Y-73564200D02*
G75*
G03*
X125107000Y-73564200I-100000J0D01*
G01*
D12*
%TO.C,S26*%
X138907000Y-74564200D02*
X138907000Y-87364200D01*
X130007000Y-74564200D02*
X138907000Y-74564200D01*
X138907000Y-87364200D02*
X130007000Y-87364200D01*
X130007000Y-87364200D02*
X130007000Y-74564200D01*
D11*
X134557000Y-73564200D02*
G75*
G03*
X134557000Y-73564200I-100000J0D01*
G01*
D12*
%TO.C,S27*%
X139457000Y-87364200D02*
X139457000Y-74564200D01*
X148357000Y-87364200D02*
X139457000Y-87364200D01*
X139457000Y-74564200D02*
X148357000Y-74564200D01*
X148357000Y-74564200D02*
X148357000Y-87364200D01*
D11*
X144007000Y-73564200D02*
G75*
G03*
X144007000Y-73564200I-100000J0D01*
G01*
D12*
%TO.C,S28*%
X151269500Y-74564200D02*
X160169500Y-74564200D01*
X160169500Y-74564200D02*
X160169500Y-87364200D01*
X160169500Y-87364200D02*
X151269500Y-87364200D01*
X151269500Y-87364200D02*
X151269500Y-74564200D01*
D11*
X155819500Y-73564200D02*
G75*
G03*
X155819500Y-73564200I-100000J0D01*
G01*
D12*
%TO.C,S29*%
X34957000Y-100664200D02*
X26057000Y-100664200D01*
X34957000Y-87864200D02*
X34957000Y-100664200D01*
X26057000Y-87864200D02*
X34957000Y-87864200D01*
X26057000Y-100664200D02*
X26057000Y-87864200D01*
D11*
X30607000Y-86864200D02*
G75*
G03*
X30607000Y-86864200I-100000J0D01*
G01*
D12*
%TO.C,S30*%
X46769500Y-87864200D02*
X46769500Y-100664200D01*
X37869500Y-87864200D02*
X46769500Y-87864200D01*
X46769500Y-100664200D02*
X37869500Y-100664200D01*
X37869500Y-100664200D02*
X37869500Y-87864200D01*
D11*
X42419500Y-86864200D02*
G75*
G03*
X42419500Y-86864200I-100000J0D01*
G01*
D12*
%TO.C,S31*%
X56219500Y-100664200D02*
X47319500Y-100664200D01*
X47319500Y-100664200D02*
X47319500Y-87864200D01*
X56219500Y-87864200D02*
X56219500Y-100664200D01*
X47319500Y-87864200D02*
X56219500Y-87864200D01*
D11*
X51869500Y-86864200D02*
G75*
G03*
X51869500Y-86864200I-100000J0D01*
G01*
D12*
%TO.C,S32*%
X56769500Y-87864200D02*
X65669500Y-87864200D01*
X56769500Y-100664200D02*
X56769500Y-87864200D01*
X65669500Y-87864200D02*
X65669500Y-100664200D01*
X65669500Y-100664200D02*
X56769500Y-100664200D01*
D11*
X61319500Y-86864200D02*
G75*
G03*
X61319500Y-86864200I-100000J0D01*
G01*
D12*
%TO.C,S33*%
X75119500Y-87864200D02*
X75119500Y-100664200D01*
X66219500Y-87864200D02*
X75119500Y-87864200D01*
X66219500Y-100664200D02*
X66219500Y-87864200D01*
X75119500Y-100664200D02*
X66219500Y-100664200D01*
D11*
X70769500Y-86864200D02*
G75*
G03*
X70769500Y-86864200I-100000J0D01*
G01*
D12*
%TO.C,S34*%
X84569500Y-87864200D02*
X84569500Y-100664200D01*
X75669500Y-87864200D02*
X84569500Y-87864200D01*
X84569500Y-100664200D02*
X75669500Y-100664200D01*
X75669500Y-100664200D02*
X75669500Y-87864200D01*
D11*
X80219500Y-86864200D02*
G75*
G03*
X80219500Y-86864200I-100000J0D01*
G01*
D12*
%TO.C,S35*%
X85119500Y-87864200D02*
X94019500Y-87864200D01*
X94019500Y-87864200D02*
X94019500Y-100664200D01*
X94019500Y-100664200D02*
X85119500Y-100664200D01*
X85119500Y-100664200D02*
X85119500Y-87864200D01*
D11*
X89669500Y-86864200D02*
G75*
G03*
X89669500Y-86864200I-100000J0D01*
G01*
D12*
%TO.C,S36*%
X103469500Y-100664200D02*
X94569500Y-100664200D01*
X94569500Y-87864200D02*
X103469500Y-87864200D01*
X94569500Y-100664200D02*
X94569500Y-87864200D01*
X103469500Y-87864200D02*
X103469500Y-100664200D01*
D11*
X99119500Y-86864200D02*
G75*
G03*
X99119500Y-86864200I-100000J0D01*
G01*
D12*
%TO.C,S37*%
X104019500Y-100664200D02*
X104019500Y-87864200D01*
X104019500Y-87864200D02*
X112919500Y-87864200D01*
X112919500Y-100664200D02*
X104019500Y-100664200D01*
X112919500Y-87864200D02*
X112919500Y-100664200D01*
D11*
X108569500Y-86864200D02*
G75*
G03*
X108569500Y-86864200I-100000J0D01*
G01*
D12*
%TO.C,S38*%
X122369500Y-100664200D02*
X113469500Y-100664200D01*
X122369500Y-87864200D02*
X122369500Y-100664200D01*
X113469500Y-100664200D02*
X113469500Y-87864200D01*
X113469500Y-87864200D02*
X122369500Y-87864200D01*
D11*
X118019500Y-86864200D02*
G75*
G03*
X118019500Y-86864200I-100000J0D01*
G01*
D12*
%TO.C,S39*%
X131819500Y-87864200D02*
X131819500Y-100664200D01*
X122919500Y-100664200D02*
X122919500Y-87864200D01*
X122919500Y-87864200D02*
X131819500Y-87864200D01*
X131819500Y-100664200D02*
X122919500Y-100664200D01*
D11*
X127469500Y-86864200D02*
G75*
G03*
X127469500Y-86864200I-100000J0D01*
G01*
D12*
%TO.C,S40*%
X141269500Y-87864200D02*
X141269500Y-100664200D01*
X132369500Y-100664200D02*
X132369500Y-87864200D01*
X132369500Y-87864200D02*
X141269500Y-87864200D01*
X141269500Y-100664200D02*
X132369500Y-100664200D01*
D11*
X136919500Y-86864200D02*
G75*
G03*
X136919500Y-86864200I-100000J0D01*
G01*
D12*
%TO.C,S41*%
X156625750Y-87864200D02*
X156625750Y-100664200D01*
X156625750Y-100664200D02*
X147725750Y-100664200D01*
X147725750Y-87864200D02*
X156625750Y-87864200D01*
X147725750Y-100664200D02*
X147725750Y-87864200D01*
D11*
X152275750Y-86864200D02*
G75*
G03*
X152275750Y-86864200I-100000J0D01*
G01*
D12*
%TO.C,S42*%
X36138250Y-101164200D02*
X36138250Y-113964200D01*
X27238250Y-101164200D02*
X36138250Y-101164200D01*
X36138250Y-113964200D02*
X27238250Y-113964200D01*
X27238250Y-113964200D02*
X27238250Y-101164200D01*
D11*
X31788250Y-100164200D02*
G75*
G03*
X31788250Y-100164200I-100000J0D01*
G01*
D12*
%TO.C,S44*%
X49682000Y-101164200D02*
X58582000Y-101164200D01*
X58582000Y-101164200D02*
X58582000Y-113964200D01*
X49682000Y-113964200D02*
X49682000Y-101164200D01*
X58582000Y-113964200D02*
X49682000Y-113964200D01*
D11*
X54232000Y-100164200D02*
G75*
G03*
X54232000Y-100164200I-100000J0D01*
G01*
D12*
%TO.C,S45*%
X59132000Y-101164200D02*
X68032000Y-101164200D01*
X68032000Y-113964200D02*
X59132000Y-113964200D01*
X59132000Y-113964200D02*
X59132000Y-101164200D01*
X68032000Y-101164200D02*
X68032000Y-113964200D01*
D11*
X63682000Y-100164200D02*
G75*
G03*
X63682000Y-100164200I-100000J0D01*
G01*
D12*
%TO.C,S46*%
X68582000Y-101164200D02*
X77482000Y-101164200D01*
X77482000Y-101164200D02*
X77482000Y-113964200D01*
X77482000Y-113964200D02*
X68582000Y-113964200D01*
X68582000Y-113964200D02*
X68582000Y-101164200D01*
D11*
X73132000Y-100164200D02*
G75*
G03*
X73132000Y-100164200I-100000J0D01*
G01*
D12*
%TO.C,S47*%
X78032000Y-113964200D02*
X78032000Y-101164200D01*
X86932000Y-113964200D02*
X78032000Y-113964200D01*
X78032000Y-101164200D02*
X86932000Y-101164200D01*
X86932000Y-101164200D02*
X86932000Y-113964200D01*
D11*
X82582000Y-100164200D02*
G75*
G03*
X82582000Y-100164200I-100000J0D01*
G01*
D12*
%TO.C,S48*%
X87482000Y-101164200D02*
X96382000Y-101164200D01*
X87482000Y-113964200D02*
X87482000Y-101164200D01*
X96382000Y-113964200D02*
X87482000Y-113964200D01*
X96382000Y-101164200D02*
X96382000Y-113964200D01*
D11*
X92032000Y-100164200D02*
G75*
G03*
X92032000Y-100164200I-100000J0D01*
G01*
D12*
%TO.C,S49*%
X105832000Y-113964200D02*
X96932000Y-113964200D01*
X105832000Y-101164200D02*
X105832000Y-113964200D01*
X96932000Y-101164200D02*
X105832000Y-101164200D01*
X96932000Y-113964200D02*
X96932000Y-101164200D01*
D11*
X101482000Y-100164200D02*
G75*
G03*
X101482000Y-100164200I-100000J0D01*
G01*
D12*
%TO.C,S50*%
X115282000Y-113964200D02*
X106382000Y-113964200D01*
X106382000Y-101164200D02*
X115282000Y-101164200D01*
X106382000Y-113964200D02*
X106382000Y-101164200D01*
X115282000Y-101164200D02*
X115282000Y-113964200D01*
D11*
X110932000Y-100164200D02*
G75*
G03*
X110932000Y-100164200I-100000J0D01*
G01*
D12*
%TO.C,S51*%
X115832000Y-113964200D02*
X115832000Y-101164200D01*
X115832000Y-101164200D02*
X124732000Y-101164200D01*
X124732000Y-101164200D02*
X124732000Y-113964200D01*
X124732000Y-113964200D02*
X115832000Y-113964200D01*
D11*
X120382000Y-100164200D02*
G75*
G03*
X120382000Y-100164200I-100000J0D01*
G01*
D12*
%TO.C,S52*%
X134182000Y-101164200D02*
X134182000Y-113964200D01*
X125282000Y-113964200D02*
X125282000Y-101164200D01*
X125282000Y-101164200D02*
X134182000Y-101164200D01*
X134182000Y-113964200D02*
X125282000Y-113964200D01*
D11*
X129832000Y-100164200D02*
G75*
G03*
X129832000Y-100164200I-100000J0D01*
G01*
D12*
%TO.C,S53*%
X143632000Y-113964200D02*
X134732000Y-113964200D01*
X143632000Y-101164200D02*
X143632000Y-113964200D01*
X134732000Y-101164200D02*
X143632000Y-101164200D01*
X134732000Y-113964200D02*
X134732000Y-101164200D01*
D11*
X139282000Y-100164200D02*
G75*
G03*
X139282000Y-100164200I-100000J0D01*
G01*
D12*
%TO.C,S55*%
X162532000Y-113964200D02*
X153632000Y-113964200D01*
X153632000Y-113964200D02*
X153632000Y-101164200D01*
X162532000Y-101164200D02*
X162532000Y-113964200D01*
X153632000Y-101164200D02*
X162532000Y-101164200D01*
D11*
X158182000Y-100164200D02*
G75*
G03*
X158182000Y-100164200I-100000J0D01*
G01*
D12*
%TO.C,S56*%
X32594500Y-127264200D02*
X23694500Y-127264200D01*
X23694500Y-127264200D02*
X23694500Y-114464200D01*
X32594500Y-114464200D02*
X32594500Y-127264200D01*
X23694500Y-114464200D02*
X32594500Y-114464200D01*
D11*
X28244500Y-113464200D02*
G75*
G03*
X28244500Y-113464200I-100000J0D01*
G01*
D12*
%TO.C,S57*%
X37869500Y-114464200D02*
X46769500Y-114464200D01*
X46769500Y-114464200D02*
X46769500Y-127264200D01*
X37869500Y-127264200D02*
X37869500Y-114464200D01*
X46769500Y-127264200D02*
X37869500Y-127264200D01*
D11*
X42419500Y-113464200D02*
G75*
G03*
X42419500Y-113464200I-100000J0D01*
G01*
D12*
%TO.C,S62*%
X108744500Y-114464200D02*
X117644500Y-114464200D01*
X117644500Y-114464200D02*
X117644500Y-127264200D01*
X108744500Y-127264200D02*
X108744500Y-114464200D01*
X117644500Y-127264200D02*
X108744500Y-127264200D01*
D11*
X113294500Y-113464200D02*
G75*
G03*
X113294500Y-113464200I-100000J0D01*
G01*
D12*
%TO.C,S63*%
X122919500Y-114464200D02*
X131819500Y-114464200D01*
X131819500Y-127264200D02*
X122919500Y-127264200D01*
X131819500Y-114464200D02*
X131819500Y-127264200D01*
X122919500Y-127264200D02*
X122919500Y-114464200D01*
D11*
X127469500Y-113464200D02*
G75*
G03*
X127469500Y-113464200I-100000J0D01*
G01*
D12*
%TO.C,S64*%
X134732000Y-114464200D02*
X143632000Y-114464200D01*
X143632000Y-127264200D02*
X134732000Y-127264200D01*
X143632000Y-114464200D02*
X143632000Y-127264200D01*
X134732000Y-127264200D02*
X134732000Y-114464200D01*
D11*
X139282000Y-113464200D02*
G75*
G03*
X139282000Y-113464200I-100000J0D01*
G01*
D12*
%TO.C,S65*%
X153082000Y-114464200D02*
X153082000Y-127264200D01*
X153082000Y-127264200D02*
X144182000Y-127264200D01*
X144182000Y-127264200D02*
X144182000Y-114464200D01*
X144182000Y-114464200D02*
X153082000Y-114464200D01*
D11*
X148732000Y-113464200D02*
G75*
G03*
X148732000Y-113464200I-100000J0D01*
G01*
D12*
%TO.C,S66*%
X153632000Y-127264200D02*
X153632000Y-114464200D01*
X153632000Y-114464200D02*
X162532000Y-114464200D01*
X162532000Y-114464200D02*
X162532000Y-127264200D01*
X162532000Y-127264200D02*
X153632000Y-127264200D01*
D11*
X158182000Y-113464200D02*
G75*
G03*
X158182000Y-113464200I-100000J0D01*
G01*
D12*
%TO.C,S60*%
X89294500Y-114464200D02*
X89294500Y-127264200D01*
X80394500Y-114464200D02*
X89294500Y-114464200D01*
X80394500Y-127264200D02*
X80394500Y-114464200D01*
X89294500Y-127264200D02*
X80394500Y-127264200D01*
D11*
X84944500Y-113464200D02*
G75*
G03*
X84944500Y-113464200I-100000J0D01*
G01*
D12*
%TO.C,S15*%
X23694500Y-87364200D02*
X23694500Y-74564200D01*
X23694500Y-74564200D02*
X32594500Y-74564200D01*
X32594500Y-74564200D02*
X32594500Y-87364200D01*
X32594500Y-87364200D02*
X23694500Y-87364200D01*
D11*
X28244500Y-73564200D02*
G75*
G03*
X28244500Y-73564200I-100000J0D01*
G01*
D12*
%TO.C,S43*%
X49132000Y-101164200D02*
X49132000Y-113964200D01*
X49132000Y-113964200D02*
X40232000Y-113964200D01*
X40232000Y-101164200D02*
X49132000Y-101164200D01*
X40232000Y-113964200D02*
X40232000Y-101164200D01*
D11*
X44782000Y-100164200D02*
G75*
G03*
X44782000Y-100164200I-100000J0D01*
G01*
D12*
%TO.C,S54*%
X153082000Y-101164200D02*
X153082000Y-113964200D01*
X144182000Y-113964200D02*
X144182000Y-101164200D01*
X153082000Y-113964200D02*
X144182000Y-113964200D01*
X144182000Y-101164200D02*
X153082000Y-101164200D01*
D11*
X148732000Y-100164200D02*
G75*
G03*
X148732000Y-100164200I-100000J0D01*
G01*
D12*
%TO.C,S58*%
X60944500Y-114464200D02*
X60944500Y-127264200D01*
X52044500Y-127264200D02*
X52044500Y-114464200D01*
X60944500Y-127264200D02*
X52044500Y-127264200D01*
X52044500Y-114464200D02*
X60944500Y-114464200D01*
D11*
X56594500Y-113464200D02*
G75*
G03*
X56594500Y-113464200I-100000J0D01*
G01*
D13*
%TO.C,J1*%
X29167000Y-58114000D02*
X29167000Y-55454000D01*
X27897000Y-58114000D02*
X26567000Y-58114000D01*
X26567000Y-58114000D02*
X26567000Y-56784000D01*
X39387000Y-58114000D02*
X39387000Y-55454000D01*
X29167000Y-55454000D02*
X39387000Y-55454000D01*
X29167000Y-58114000D02*
X39387000Y-58114000D01*
D12*
%TO.C,S3*%
X49132000Y-61264200D02*
X49132000Y-74064200D01*
X49132000Y-74064200D02*
X40232000Y-74064200D01*
X40232000Y-61264200D02*
X49132000Y-61264200D01*
X40232000Y-74064200D02*
X40232000Y-61264200D01*
D11*
X44782000Y-60264200D02*
G75*
G03*
X44782000Y-60264200I-100000J0D01*
G01*
D13*
%TO.C,J3*%
X91397000Y-55835000D02*
X99077000Y-55835000D01*
X90127000Y-58495000D02*
X88797000Y-58495000D01*
X91397000Y-58495000D02*
X99077000Y-58495000D01*
X88797000Y-58495000D02*
X88797000Y-57165000D01*
X91397000Y-58495000D02*
X91397000Y-55835000D01*
X99077000Y-58495000D02*
X99077000Y-55835000D01*
%TO.C,D65*%
X142487000Y-58379000D02*
X145347000Y-58379000D01*
X145347000Y-56459000D02*
X142487000Y-56459000D01*
X142487000Y-56459000D02*
X142487000Y-58379000D01*
%TO.C,R2*%
X110944064Y-56684000D02*
X110489936Y-56684000D01*
X110944064Y-58154000D02*
X110489936Y-58154000D01*
%TO.C,D67*%
X120017000Y-58379000D02*
X122877000Y-58379000D01*
X120017000Y-56459000D02*
X120017000Y-58379000D01*
X122877000Y-56459000D02*
X120017000Y-56459000D01*
%TO.C,D66*%
X131057000Y-56459000D02*
X131057000Y-58379000D01*
X133917000Y-56459000D02*
X131057000Y-56459000D01*
X131057000Y-58379000D02*
X133917000Y-58379000D01*
%TO.C,R1*%
X106864064Y-56684000D02*
X106409936Y-56684000D01*
X106864064Y-58154000D02*
X106409936Y-58154000D01*
D12*
%TO.C,S2*%
X39682000Y-74064200D02*
X30782000Y-74064200D01*
X30782000Y-74064200D02*
X30782000Y-61264200D01*
X39682000Y-61264200D02*
X39682000Y-74064200D01*
X30782000Y-61264200D02*
X39682000Y-61264200D01*
D11*
X35332000Y-60264200D02*
G75*
G03*
X35332000Y-60264200I-100000J0D01*
G01*
D12*
%TO.C,S1*%
X30232000Y-74064200D02*
X21332000Y-74064200D01*
X30232000Y-61264200D02*
X30232000Y-74064200D01*
X21332000Y-74064200D02*
X21332000Y-61264200D01*
X21332000Y-61264200D02*
X30232000Y-61264200D01*
D11*
X25882000Y-60264200D02*
G75*
G03*
X25882000Y-60264200I-100000J0D01*
G01*
D13*
%TO.C,J2*%
X46312000Y-55454000D02*
X79392000Y-55454000D01*
X45042000Y-58114000D02*
X43712000Y-58114000D01*
X43712000Y-58114000D02*
X43712000Y-56784000D01*
X46312000Y-58114000D02*
X79392000Y-58114000D01*
X46312000Y-58114000D02*
X46312000Y-55454000D01*
X79392000Y-58114000D02*
X79392000Y-55454000D01*
%TO.C,R3*%
X115119064Y-58154000D02*
X114664936Y-58154000D01*
X115119064Y-56684000D02*
X114664936Y-56684000D01*
D12*
%TO.C,S59*%
X69968750Y-114464200D02*
X78868750Y-114464200D01*
X78868750Y-127264200D02*
X69968750Y-127264200D01*
X78868750Y-114464200D02*
X78868750Y-127264200D01*
X69968750Y-127264200D02*
X69968750Y-114464200D01*
D11*
X74518750Y-113464200D02*
G75*
G03*
X74518750Y-113464200I-100000J0D01*
G01*
D12*
%TO.C,S61*%
X100131250Y-114464200D02*
X100131250Y-127264200D01*
X91231250Y-127264200D02*
X91231250Y-114464200D01*
X91231250Y-114464200D02*
X100131250Y-114464200D01*
X100131250Y-127264200D02*
X91231250Y-127264200D01*
D11*
X95781250Y-113464200D02*
G75*
G03*
X95781250Y-113464200I-100000J0D01*
G01*
%TD*%
%LPC*%
D14*
%TO.C,S4*%
X54132000Y-62584200D03*
X54132000Y-72744200D03*
X54132000Y-67664200D03*
%TD*%
%TO.C,S5*%
X63582000Y-62584200D03*
X63582000Y-72744200D03*
X63582000Y-67664200D03*
%TD*%
%TO.C,S6*%
X73032000Y-62584200D03*
X73032000Y-72744200D03*
X73032000Y-67664200D03*
%TD*%
%TO.C,S7*%
X82482000Y-62584200D03*
X82482000Y-72744200D03*
X82482000Y-67664200D03*
%TD*%
%TO.C,S8*%
X91932000Y-62584200D03*
X91932000Y-72744200D03*
X91932000Y-67664200D03*
%TD*%
%TO.C,S9*%
X101382000Y-62584200D03*
X101382000Y-72744200D03*
X101382000Y-67664200D03*
%TD*%
%TO.C,S10*%
X110832000Y-62584200D03*
X110832000Y-72744200D03*
X110832000Y-67664200D03*
%TD*%
%TO.C,S11*%
X120282000Y-62584200D03*
X120282000Y-72744200D03*
X120282000Y-67664200D03*
%TD*%
%TO.C,S12*%
X129732000Y-62584200D03*
X129732000Y-72744200D03*
X129732000Y-67664200D03*
%TD*%
%TO.C,S13*%
X139182000Y-62584200D03*
X139182000Y-72744200D03*
X139182000Y-67664200D03*
%TD*%
%TO.C,S14*%
X152175750Y-62584200D03*
X152175750Y-72744200D03*
X152175750Y-67664200D03*
%TD*%
%TO.C,S16*%
X39957000Y-75884200D03*
X39957000Y-86044200D03*
X39957000Y-80964200D03*
%TD*%
%TO.C,S17*%
X49407000Y-75884200D03*
X49407000Y-86044200D03*
X49407000Y-80964200D03*
%TD*%
%TO.C,S18*%
X58857000Y-75884200D03*
X58857000Y-86044200D03*
X58857000Y-80964200D03*
%TD*%
%TO.C,S19*%
X68307000Y-75884200D03*
X68307000Y-86044200D03*
X68307000Y-80964200D03*
%TD*%
%TO.C,S20*%
X77757000Y-75884200D03*
X77757000Y-86044200D03*
X77757000Y-80964200D03*
%TD*%
%TO.C,S21*%
X87207000Y-75884200D03*
X87207000Y-86044200D03*
X87207000Y-80964200D03*
%TD*%
%TO.C,S22*%
X96657000Y-75884200D03*
X96657000Y-86044200D03*
X96657000Y-80964200D03*
%TD*%
%TO.C,S23*%
X106107000Y-75884200D03*
X106107000Y-86044200D03*
X106107000Y-80964200D03*
%TD*%
%TO.C,S24*%
X115557000Y-75884200D03*
X115557000Y-86044200D03*
X115557000Y-80964200D03*
%TD*%
%TO.C,S25*%
X125007000Y-75884200D03*
X125007000Y-86044200D03*
X125007000Y-80964200D03*
%TD*%
%TO.C,S26*%
X134457000Y-75884200D03*
X134457000Y-86044200D03*
X134457000Y-80964200D03*
%TD*%
%TO.C,S27*%
X143907000Y-75884200D03*
X143907000Y-86044200D03*
X143907000Y-80964200D03*
%TD*%
%TO.C,S28*%
X155719500Y-75884200D03*
X155719500Y-86044200D03*
X155719500Y-80964200D03*
%TD*%
%TO.C,S29*%
X30507000Y-89184200D03*
X30507000Y-99344200D03*
X30507000Y-94264200D03*
%TD*%
%TO.C,S30*%
X42319500Y-89184200D03*
X42319500Y-99344200D03*
X42319500Y-94264200D03*
%TD*%
%TO.C,S31*%
X51769500Y-89184200D03*
X51769500Y-99344200D03*
X51769500Y-94264200D03*
%TD*%
%TO.C,S32*%
X61219500Y-89184200D03*
X61219500Y-99344200D03*
X61219500Y-94264200D03*
%TD*%
%TO.C,S33*%
X70669500Y-89184200D03*
X70669500Y-99344200D03*
X70669500Y-94264200D03*
%TD*%
%TO.C,S34*%
X80119500Y-89184200D03*
X80119500Y-99344200D03*
X80119500Y-94264200D03*
%TD*%
%TO.C,S35*%
X89569500Y-89184200D03*
X89569500Y-99344200D03*
X89569500Y-94264200D03*
%TD*%
%TO.C,S36*%
X99019500Y-89184200D03*
X99019500Y-99344200D03*
X99019500Y-94264200D03*
%TD*%
%TO.C,S37*%
X108469500Y-89184200D03*
X108469500Y-99344200D03*
X108469500Y-94264200D03*
%TD*%
%TO.C,S38*%
X117919500Y-89184200D03*
X117919500Y-99344200D03*
X117919500Y-94264200D03*
%TD*%
%TO.C,S39*%
X127369500Y-89184200D03*
X127369500Y-99344200D03*
X127369500Y-94264200D03*
%TD*%
%TO.C,S40*%
X136819500Y-89184200D03*
X136819500Y-99344200D03*
X136819500Y-94264200D03*
%TD*%
%TO.C,S41*%
X152175750Y-89184200D03*
X152175750Y-99344200D03*
X152175750Y-94264200D03*
%TD*%
%TO.C,S42*%
X31688250Y-102484200D03*
X31688250Y-112644200D03*
X31688250Y-107564200D03*
%TD*%
%TO.C,S44*%
X54132000Y-102484200D03*
X54132000Y-112644200D03*
X54132000Y-107564200D03*
%TD*%
%TO.C,S45*%
X63582000Y-102484200D03*
X63582000Y-112644200D03*
X63582000Y-107564200D03*
%TD*%
%TO.C,S46*%
X73032000Y-102484200D03*
X73032000Y-112644200D03*
X73032000Y-107564200D03*
%TD*%
%TO.C,S47*%
X82482000Y-102484200D03*
X82482000Y-112644200D03*
X82482000Y-107564200D03*
%TD*%
%TO.C,S48*%
X91932000Y-102484200D03*
X91932000Y-112644200D03*
X91932000Y-107564200D03*
%TD*%
%TO.C,S49*%
X101382000Y-102484200D03*
X101382000Y-112644200D03*
X101382000Y-107564200D03*
%TD*%
%TO.C,S50*%
X110832000Y-102484200D03*
X110832000Y-112644200D03*
X110832000Y-107564200D03*
%TD*%
%TO.C,S51*%
X120282000Y-102484200D03*
X120282000Y-112644200D03*
X120282000Y-107564200D03*
%TD*%
%TO.C,S52*%
X129732000Y-102484200D03*
X129732000Y-112644200D03*
X129732000Y-107564200D03*
%TD*%
%TO.C,S53*%
X139182000Y-102484200D03*
X139182000Y-112644200D03*
X139182000Y-107564200D03*
%TD*%
%TO.C,S55*%
X158082000Y-102484200D03*
X158082000Y-112644200D03*
X158082000Y-107564200D03*
%TD*%
%TO.C,S56*%
X28144500Y-115784200D03*
X28144500Y-125944200D03*
X28144500Y-120864200D03*
%TD*%
%TO.C,S57*%
X42319500Y-115784200D03*
X42319500Y-125944200D03*
X42319500Y-120864200D03*
%TD*%
%TO.C,S62*%
X113194500Y-115784200D03*
X113194500Y-125944200D03*
X113194500Y-120864200D03*
%TD*%
%TO.C,S63*%
X127369500Y-115784200D03*
X127369500Y-125944200D03*
X127369500Y-120864200D03*
%TD*%
%TO.C,S64*%
X139182000Y-115784200D03*
X139182000Y-125944200D03*
X139182000Y-120864200D03*
%TD*%
%TO.C,S65*%
X148632000Y-115784200D03*
X148632000Y-125944200D03*
X148632000Y-120864200D03*
%TD*%
%TO.C,S66*%
X158082000Y-115784200D03*
X158082000Y-125944200D03*
X158082000Y-120864200D03*
%TD*%
%TO.C,S60*%
X84844500Y-115784200D03*
X84844500Y-125944200D03*
X84844500Y-120864200D03*
%TD*%
%TO.C,S15*%
X28144500Y-75884200D03*
X28144500Y-86044200D03*
X28144500Y-80964200D03*
%TD*%
%TO.C,S43*%
X44682000Y-102484200D03*
X44682000Y-112644200D03*
X44682000Y-107564200D03*
%TD*%
%TO.C,S54*%
X148632000Y-102484200D03*
X148632000Y-112644200D03*
X148632000Y-107564200D03*
%TD*%
%TO.C,S58*%
X56494500Y-115784200D03*
X56494500Y-125944200D03*
X56494500Y-120864200D03*
%TD*%
D15*
%TO.C,J1*%
X27897000Y-56784000D03*
D16*
X30437000Y-56784000D03*
X32977000Y-56784000D03*
X35517000Y-56784000D03*
X38057000Y-56784000D03*
%TD*%
D14*
%TO.C,S3*%
X44682000Y-62584200D03*
X44682000Y-72744200D03*
X44682000Y-67664200D03*
%TD*%
D17*
%TO.C,H1*%
X23419500Y-56896000D03*
%TD*%
%TO.C,H2*%
X160444500Y-56896000D03*
%TD*%
%TO.C,H4*%
X104925750Y-124159000D03*
%TD*%
D15*
%TO.C,J3*%
X90127000Y-57165000D03*
D16*
X92667000Y-57165000D03*
X95207000Y-57165000D03*
X97747000Y-57165000D03*
%TD*%
D18*
%TO.C,D65*%
X143322000Y-57419000D03*
X145372000Y-57419000D03*
%TD*%
D19*
%TO.C,R2*%
X111717000Y-57419000D03*
X109717000Y-57419000D03*
%TD*%
D18*
%TO.C,D67*%
X120852000Y-57419000D03*
X122902000Y-57419000D03*
%TD*%
%TO.C,D66*%
X131892000Y-57419000D03*
X133942000Y-57419000D03*
%TD*%
D17*
%TO.C,H3*%
X65157000Y-123825000D03*
%TD*%
D19*
%TO.C,R1*%
X107637000Y-57419000D03*
X105637000Y-57419000D03*
%TD*%
D14*
%TO.C,S2*%
X35232000Y-62584200D03*
X35232000Y-72744200D03*
X35232000Y-67664200D03*
%TD*%
%TO.C,S1*%
X25782000Y-62584200D03*
X25782000Y-72744200D03*
X25782000Y-67664200D03*
%TD*%
D15*
%TO.C,J2*%
X45042000Y-56784000D03*
D16*
X47582000Y-56784000D03*
X50122000Y-56784000D03*
X52662000Y-56784000D03*
X55202000Y-56784000D03*
X57742000Y-56784000D03*
X60282000Y-56784000D03*
X62822000Y-56784000D03*
X65362000Y-56784000D03*
X67902000Y-56784000D03*
X70442000Y-56784000D03*
X72982000Y-56784000D03*
X75522000Y-56784000D03*
X78062000Y-56784000D03*
%TD*%
D19*
%TO.C,R3*%
X115892000Y-57419000D03*
X113892000Y-57419000D03*
%TD*%
D14*
%TO.C,S59*%
X74418750Y-115784200D03*
X74418750Y-125944200D03*
X74418750Y-120864200D03*
%TD*%
%TO.C,S61*%
X95681250Y-115784200D03*
X95681250Y-125944200D03*
X95681250Y-120864200D03*
%TD*%
D17*
%TO.C,H8*%
X86106000Y-56896000D03*
%TD*%
%TO.C,H5*%
X35179000Y-124159000D03*
%TD*%
%TO.C,H7*%
X160444500Y-93980000D03*
%TD*%
%TO.C,H6*%
X23419500Y-106680000D03*
%TD*%
M02*
